<svg width="653" height="653" viewBox="0 0 653 653" fill="none" xmlns="http://www.w3.org/2000/svg">
<path d="M429.961 57.1635C429.961 57.1635 334.036 28.9148 239.285 86.0523C144.535 143.19 96.2915 249.72 54.8521 335.211C13.4128 420.702 36.3722 504.429 108.163 539.6C179.954 574.771 229.321 515.308 330.405 507.551C431.489 499.793 458.576 512.409 542.8 453.221C627.024 394.033 643.048 263.25 577.526 170.289C512.004 77.3282 429.961 57.1635 429.961 57.1635Z" fill="#E5383B"/>
<path opacity="0.8" d="M429.961 57.1635C429.961 57.1635 334.036 28.9148 239.285 86.0523C144.535 143.19 96.2915 249.72 54.8521 335.211C13.4128 420.702 36.3722 504.429 108.163 539.6C179.954 574.771 229.321 515.308 330.405 507.551C431.489 499.793 458.576 512.409 542.8 453.221C627.024 394.033 643.048 263.25 577.526 170.289C512.004 77.3282 429.961 57.1635 429.961 57.1635Z" fill="white"/>
<path d="M93.9406 554.593C93.9406 554.593 61.591 485.688 68.6173 483.703C75.6435 481.718 90.3752 492.688 90.3752 492.688C90.3752 492.688 47.1466 376.846 58.339 367.861C69.5315 358.875 90.4275 404.86 90.4275 404.86C90.4275 404.86 68.1079 333.905 70.733 306.91C73.358 279.915 101.711 305.917 101.711 305.917C101.711 305.917 79 209.051 100.092 204.049C121.184 199.047 120.479 314.889 120.479 314.889C120.479 314.889 127.4 231.997 135.85 254.97C144.3 277.943 126.538 354.827 126.538 354.827C126.538 354.827 138.123 328.863 144.561 352.829C151 376.794 131.762 473.66 131.762 473.66C131.762 473.66 148.113 457.687 149.642 477.656C151.17 497.625 115.79 559.542 115.79 559.542L95.769 561.58L93.9406 554.593Z" fill="#E5383B"/>
<path opacity="0.6" d="M93.9406 554.593C93.9406 554.593 61.591 485.688 68.6173 483.703C75.6435 481.718 90.3752 492.688 90.3752 492.688C90.3752 492.688 47.1466 376.846 58.339 367.861C69.5315 358.875 90.4275 404.86 90.4275 404.86C90.4275 404.86 68.1079 333.905 70.733 306.91C73.358 279.915 101.711 305.917 101.711 305.917C101.711 305.917 79 209.051 100.092 204.049C121.184 199.047 120.479 314.889 120.479 314.889C120.479 314.889 127.4 231.997 135.85 254.97C144.3 277.943 126.538 354.827 126.538 354.827C126.538 354.827 138.123 328.863 144.561 352.829C151 376.794 131.762 473.66 131.762 473.66C131.762 473.66 148.113 457.687 149.642 477.656C151.17 497.625 115.79 559.542 115.79 559.542L95.769 561.58L93.9406 554.593Z" fill="white"/>
<path d="M100.836 557.662C100.836 557.662 73.8807 509.732 78.8696 500.733C83.8585 491.735 98.8383 512.722 98.8383 512.722C98.8383 512.722 64.8823 427.832 69.8843 419.853C74.8863 411.873 90.8587 446.821 90.8587 446.821C90.8587 446.821 84.8902 329.921 94.842 333.905C104.794 337.888 105.786 393.824 105.786 393.824C105.786 393.824 99.8048 261.017 108.79 265.013C117.775 269.01 116.783 416.797 116.783 416.797C116.783 416.797 134.753 359.868 137.679 385.831C140.604 411.795 114.719 481.705 114.719 481.705C114.719 481.705 139.742 426.774 142.785 455.794C145.828 484.813 122.764 538.62 122.764 538.62C122.764 538.62 131.75 516.653 131.75 528.629C131.75 540.605 124.762 555.598 124.762 555.598" stroke="#263238" stroke-linecap="round" stroke-linejoin="round"/>
<path d="M67.1678 500.799L49.9678 557.479H96.5528L114.275 501.099L67.1678 500.799Z" fill="#263238" stroke="#263238" stroke-linecap="round" stroke-linejoin="round"/>
<path d="M175.788 557.388H78.713L67.168 500.799H164.243L175.788 557.388Z" fill="white" stroke="#263238" stroke-linecap="round" stroke-linejoin="round"/>
<path d="M165.784 547.815H84.8119L78.7651 518.208H159.737L165.784 547.815Z" stroke="#263238" stroke-linecap="round" stroke-linejoin="round"/>
<path d="M85.7261 518.325L91.7206 547.684" stroke="#263238" stroke-linecap="round" stroke-linejoin="round"/>
<path d="M93.1572 518.325L99.1518 547.684" stroke="#263238" stroke-linecap="round" stroke-linejoin="round"/>
<path d="M100.588 518.325L106.583 547.684" stroke="#263238" stroke-linecap="round" stroke-linejoin="round"/>
<path d="M108.006 518.325L114.001 547.684" stroke="#263238" stroke-linecap="round" stroke-linejoin="round"/>
<path d="M115.438 518.325L121.432 547.684" stroke="#263238" stroke-linecap="round" stroke-linejoin="round"/>
<path d="M122.869 518.325L128.863 547.684" stroke="#263238" stroke-linecap="round" stroke-linejoin="round"/>
<path d="M130.287 518.325L136.281 547.684" stroke="#263238" stroke-linecap="round" stroke-linejoin="round"/>
<path d="M137.718 518.325L143.712 547.684" stroke="#263238" stroke-linecap="round" stroke-linejoin="round"/>
<path d="M145.136 518.325L151.13 547.684" stroke="#263238" stroke-linecap="round" stroke-linejoin="round"/>
<path d="M152.567 518.325L158.561 547.684" stroke="#263238" stroke-linecap="round" stroke-linejoin="round"/>
<path d="M80.1494 524.059H160.664" stroke="#263238" stroke-linecap="round" stroke-linejoin="round"/>
<path d="M81.3511 529.962H161.866" stroke="#263238" stroke-linecap="round" stroke-linejoin="round"/>
<path d="M82.5654 535.878H163.067" stroke="#263238" stroke-linecap="round" stroke-linejoin="round"/>
<path d="M83.7671 541.781H164.282" stroke="#263238" stroke-linecap="round" stroke-linejoin="round"/>
<path d="M114.04 513.088H78.0859L77.5112 510.215H113.452L114.04 513.088Z" fill="#263238"/>
<path d="M604.678 412.696H487.582C482.072 412.827 476.79 414.923 472.69 418.607C468.59 422.29 465.942 427.318 465.223 432.783L450.857 559.765H587.987L604.678 412.696Z" fill="white" stroke="#263238" stroke-linecap="round" stroke-linejoin="round"/>
<path d="M605.292 412.697C600.714 412.804 596.325 414.546 592.919 417.607C589.513 420.668 587.315 424.847 586.721 429.387L571.95 559.765H605.305L620.089 429.387C620.393 427.286 620.236 425.143 619.627 423.108C619.018 421.074 617.973 419.196 616.564 417.607C615.156 416.018 613.417 414.756 611.47 413.907C609.523 413.059 607.415 412.646 605.292 412.697Z" fill="#263238" stroke="#263238" stroke-linecap="round" stroke-linejoin="round"/>
<path d="M449.643 374.548C441.414 380.424 432.519 385.307 423.144 389.097C406.519 396.019 399.832 398.108 399.832 398.108L404.442 557.179H525.143C525.143 557.179 509.667 457.44 509.667 423.967C509.667 390.494 511.051 383.964 511.051 383.964L471.349 373.804L449.643 374.548Z" fill="#E5383B" stroke="#263238" stroke-linecap="round" stroke-linejoin="round"/>
<path d="M436.478 381.248C432.715 408.265 430.482 435.473 429.791 462.742C429.099 503.607 436.948 558.08 436.948 558.08H348.519C359.515 537.278 367.38 514.966 371.857 491.866C378.387 458.785 383.611 402.706 384.996 402.013C386.38 401.321 433.252 383.965 436.478 381.248Z" fill="#263238" stroke="#263238" stroke-linecap="round" stroke-linejoin="round"/>
<path d="M396.319 558.093C396.319 558.093 387.307 497.142 387.764 482.829C388.221 468.515 390.494 420.036 390.494 420.036" stroke="#616161" stroke-linecap="round" stroke-linejoin="round"/>
<path d="M486.119 377.095C486.119 377.095 474.809 429.034 473.882 471.754C472.955 514.473 469.964 558.328 469.964 558.328H541.467C541.467 558.328 542.395 519.305 541.467 505.919C540.54 492.532 540.54 495.301 540.54 495.301L568.253 502.458C568.253 502.458 550.466 416.797 547.24 407.342C544.014 397.886 545.62 394.869 543.544 393.25C541.467 391.63 486.119 377.095 486.119 377.095Z" fill="#263238" stroke="#263238" stroke-linecap="round" stroke-linejoin="round"/>
<path d="M356.969 522.779C358.833 525.637 361.024 528.267 363.499 530.615C366.673 533.332 373.477 531.921 377.094 535.63C380.712 539.339 376.755 550.662 372.184 554.62C364.348 561.372 368.501 540.88 368.501 540.88C365.738 542.774 362.686 544.208 359.463 545.125C355.023 546.144 343.596 542.67 339.769 542.513C335.942 542.356 330.627 541.625 328.59 537.367C326.552 533.11 339.194 527.977 344.81 525.94C348.777 524.578 352.841 523.521 356.969 522.779Z" fill="white" stroke="#263238" stroke-linecap="round" stroke-linejoin="round"/>
<path d="M332.782 528.786C331.574 528.464 330.299 528.503 329.113 528.898C327.927 529.292 326.882 530.025 326.108 531.007C323.496 534.441 318.272 549.957 319.8 552.947C321.328 555.938 325.285 551.746 327.166 546.822C327.968 544.449 329.037 542.176 330.353 540.044C330.353 540.044 332.416 541.05 333.866 538.359C335.315 535.669 336.778 531.634 332.782 528.786Z" fill="white" stroke="#263238" stroke-linecap="round" stroke-linejoin="round"/>
<path d="M340.174 526.083C338.908 525.355 337.43 525.087 335.99 525.325C334.549 525.563 333.236 526.292 332.272 527.389C328.602 531.307 331.123 547.775 333.069 552.817C335.015 557.858 338.698 557.231 339.246 554.123C339.795 551.014 340.422 535.512 340.618 531.921C340.78 529.963 340.63 527.993 340.174 526.083Z" fill="white" stroke="#263238" stroke-linecap="round" stroke-linejoin="round"/>
<path d="M348.01 524.307C346.761 523.52 345.267 523.219 343.811 523.46C342.355 523.7 341.038 524.466 340.108 525.613C336.465 529.753 339.155 547.175 341.153 552.529C343.151 557.884 346.834 557.257 347.357 553.927C347.879 550.596 348.349 534.232 348.506 530.419C348.639 528.368 348.472 526.309 348.01 524.307Z" fill="white" stroke="#263238" stroke-linecap="round" stroke-linejoin="round"/>
<path d="M359.477 526.422C359.477 526.422 356.434 519.618 351.471 520.741C346.508 521.865 344.941 528.577 345.855 538.764C346.769 548.951 348.676 557.048 351.445 557.335C354.213 557.623 357.23 551.472 357.779 543.518C358.327 535.564 359.15 530.811 359.15 530.811" fill="white"/>
<path d="M359.477 526.422C359.477 526.422 356.434 519.618 351.471 520.741C346.508 521.865 344.941 528.577 345.855 538.764C346.769 548.951 348.676 557.048 351.445 557.335C354.213 557.623 357.23 551.472 357.779 543.518C358.327 535.564 359.15 530.811 359.15 530.811" stroke="#263238" stroke-linecap="round" stroke-linejoin="round"/>
<path d="M423.288 455.232H392.505V502.483H423.288V455.232Z" fill="#E5383B" stroke="#263238" stroke-linecap="round" stroke-linejoin="round"/>
<path d="M410.045 441.468H404.377V463.33H410.045V441.468Z" fill="white" stroke="#263238" stroke-linecap="round" stroke-linejoin="round"/>
<path d="M413.283 468.463H400.054V485.741H413.283V468.463Z" fill="white" stroke="#263238" stroke-linecap="round" stroke-linejoin="round"/>
<path d="M397.899 490.873H415.987" stroke="#263238" stroke-linecap="round" stroke-linejoin="round"/>
<path d="M395.196 494.647H418.416" stroke="#263238" stroke-linecap="round" stroke-linejoin="round"/>
<path d="M446.417 367.861C446.417 367.861 436.478 374.548 434.663 379.863C432.848 385.179 425.194 407.799 422.191 416.34C419.187 424.881 402.104 432.273 404.416 433.892C406.728 435.512 429.125 437.575 429.125 437.575C429.125 437.575 434.206 457.44 435.355 462.52C436.504 467.6 443.439 483.063 443.439 483.063C443.439 483.063 463.983 458.354 467.222 451.719C469.447 447.233 471.991 442.912 474.835 438.79C474.835 438.79 483.612 440.866 489.201 441.794C494.791 442.721 509.98 444.092 509.288 441.559C508.596 439.025 500.982 427.937 497.978 417.084C494.974 406.231 496.815 382.449 493.133 373.216C489.45 363.982 481.379 362.598 478.584 361.906C475.789 361.214 450.57 363.93 446.417 367.861Z" fill="#E5383B" stroke="#263238" stroke-linecap="round" stroke-linejoin="round"/>
<path d="M443.178 360.704C443.178 360.704 446.182 377.552 445.79 391.173C445.398 404.795 440.475 435.277 440.71 450.975C440.944 461.403 441.79 471.808 443.243 482.136C443.243 482.136 465.876 450.975 474.183 425.573C482.489 400.172 484.8 378.479 484.8 376.86C484.8 375.24 485.257 337.614 485.257 337.614C485.257 337.614 461.188 362.781 443.178 360.704Z" fill="white" stroke="#263238" stroke-linecap="round" stroke-linejoin="round"/>
<path d="M485.009 353.587C485.101 345.124 485.192 337.614 485.192 337.614C485.192 337.614 461.188 362.781 443.178 360.704C443.178 360.704 444.027 365.445 444.745 371.936C447.101 373.55 449.716 374.747 452.477 375.475C460.809 377.147 470.147 372.484 476.481 364.479C478.819 361.527 481.914 357.505 485.009 353.587Z" fill="#263238" stroke="#263238" stroke-linecap="round" stroke-linejoin="round"/>
<path d="M501.478 277.12C514.165 277.12 524.45 266.941 524.45 254.383C524.45 241.825 514.165 231.646 501.478 231.646C488.791 231.646 478.505 241.825 478.505 254.383C478.505 266.941 488.791 277.12 501.478 277.12Z" fill="#263238" stroke="#263238" stroke-linecap="round" stroke-linejoin="round"/>
<path d="M408.452 294.112C408.452 294.112 396.123 290.768 394.086 284.108C392.048 277.447 399.427 254.07 423.432 242.094C447.436 230.118 469.455 236.752 479.119 239.417C488.784 242.081 495.797 247.096 502.131 264.766C508.465 282.436 508.792 296.11 506.793 302.771C505.605 306.753 504.157 310.654 502.458 314.446C502.458 314.446 490.129 315.752 486.786 310.776C483.442 305.801 484.787 280.738 470.448 274.77C456.108 268.802 428.773 272.158 422.126 278.1C415.478 284.043 408.452 294.112 408.452 294.112Z" fill="#263238" stroke="#263238" stroke-linecap="round" stroke-linejoin="round"/>
<path d="M406.453 289.776C406.453 289.776 409.457 308.778 409.457 319.108C409.457 329.439 417.789 343.792 422.125 347.84C426.461 351.889 440.801 365.511 449.133 367.182C457.465 368.854 466.803 364.178 473.137 356.173C479.472 348.167 491.813 332.168 491.813 332.168C494.565 332.475 497.338 331.81 499.651 330.288C501.964 328.767 503.673 326.484 504.481 323.836C507.825 314.159 506.153 303.162 500.485 301.83C494.817 300.498 490.821 307.158 490.821 307.158C490.821 307.158 486.145 289.162 480.151 280.15L471.479 267.09L482.541 253.26C482.662 253.11 482.75 252.936 482.801 252.75C482.853 252.564 482.865 252.37 482.838 252.179C482.811 251.988 482.745 251.805 482.645 251.64C482.544 251.476 482.411 251.333 482.253 251.222C481.956 251.009 481.588 250.919 481.225 250.97C480.863 251.021 480.534 251.21 480.307 251.497L469.481 265.432C469.481 265.432 448.141 261.762 429.465 271.1C410.789 280.438 406.453 289.776 406.453 289.776Z" fill="white" stroke="#263238" stroke-linecap="round" stroke-linejoin="round"/>
<path d="M474.966 308.543L471.962 312.552" stroke="#263238" stroke-linecap="round" stroke-linejoin="round"/>
<path d="M433.801 331.45C433.801 331.45 434.467 333.448 438.803 334.453C440.826 334.924 442.942 334.797 444.894 334.087C446.846 333.378 448.55 332.117 449.799 330.457" stroke="#263238" stroke-linecap="round" stroke-linejoin="round"/>
<path d="M438.816 342.172C442.927 343.099 447.209 342.942 451.241 341.715C455.273 340.487 458.917 338.233 461.815 335.172C461.815 335.172 458.824 347.84 452.816 350.178C446.809 352.516 446.482 346.168 446.482 346.168L438.816 342.172Z" stroke="#263238" stroke-linecap="round" stroke-linejoin="round"/>
<path d="M450.805 316.784C453.568 314.183 456.931 312.304 460.594 311.315C464.258 310.327 468.109 310.258 471.806 311.116" stroke="#263238" stroke-width="2" stroke-linecap="round" stroke-linejoin="round"/>
<path d="M429.126 316.118C429.126 316.118 421.799 308.778 414.12 312.774" stroke="#263238" stroke-width="2" stroke-linecap="round" stroke-linejoin="round"/>
<path d="M411.795 311.115L415.452 314.785" stroke="#263238" stroke-linecap="round" stroke-linejoin="round"/>
<path d="M448.467 298.774C448.467 298.774 458.406 287.321 472.772 298.108" stroke="#263238" stroke-linecap="round" stroke-linejoin="round"/>
<path d="M428.459 298.434C428.459 298.434 419.461 291.434 410.45 299.44" stroke="#263238" stroke-linecap="round" stroke-linejoin="round"/>
<path d="M458.654 314.995C458.667 315.32 458.581 315.642 458.409 315.918C458.236 316.194 457.984 316.412 457.685 316.543C457.387 316.673 457.056 316.711 456.736 316.65C456.416 316.59 456.121 316.434 455.891 316.204C455.66 315.974 455.505 315.679 455.445 315.359C455.384 315.039 455.422 314.708 455.552 314.41C455.683 314.111 455.9 313.859 456.177 313.686C456.453 313.513 456.774 313.428 457.1 313.441C457.507 313.457 457.893 313.626 458.181 313.914C458.469 314.202 458.638 314.588 458.654 314.995Z" fill="#263238"/>
<path d="M420.532 313.597C420.534 313.917 420.442 314.232 420.265 314.5C420.089 314.768 419.837 314.977 419.541 315.102C419.245 315.227 418.919 315.261 418.604 315.2C418.289 315.139 418 314.985 417.772 314.759C417.544 314.533 417.389 314.245 417.325 313.93C417.262 313.616 417.293 313.29 417.415 312.993C417.537 312.696 417.745 312.443 418.011 312.264C418.278 312.086 418.592 311.99 418.912 311.99C419.34 311.99 419.75 312.159 420.053 312.46C420.356 312.761 420.528 313.169 420.532 313.597Z" fill="#263238"/>
<path d="M499.323 281.077C499.323 281.077 500.472 296.083 497.704 307.393L502.092 308.777C502.092 308.777 505.553 291.46 503.933 281.769L499.323 281.077Z" fill="#E5383B" stroke="#263238" stroke-linecap="round" stroke-linejoin="round"/>
<path d="M469.494 237.183C474.322 239.592 478.625 242.934 482.153 247.016C485.682 251.098 488.366 255.839 490.051 260.965C495.353 278.047 494.661 283.363 497.887 285.204C501.112 287.046 507.355 288.208 507.577 284.055C507.799 279.902 506.363 261.37 497.129 249.877C490.207 241.127 475.267 237.418 469.494 237.183Z" fill="#E5383B" stroke="#263238" stroke-linecap="round" stroke-linejoin="round"/>
<path d="M501.151 304.09C494.504 302.052 487.203 306.702 484.826 314.42C482.632 321.564 485.427 328.851 491.095 331.542C486.934 342.116 480.745 351.774 472.876 359.973C471.345 359.785 469.798 360.176 468.54 361.07C466.164 362.677 465.119 365.302 466.229 366.947C467.339 368.593 470.147 368.619 472.537 367.026C474.927 365.432 475.776 363.108 475.018 361.514C483.063 353.117 489.374 343.216 493.589 332.378C499.937 333.684 506.649 329.139 508.883 321.786C511.26 314.054 507.799 306.127 501.151 304.09Z" fill="#E5383B" stroke="#263238" stroke-linecap="round" stroke-linejoin="round"/>
<path d="M506.793 319.186C505.67 324.123 501.217 327.336 496.842 326.343C492.467 325.351 489.828 320.531 490.952 315.595C492.075 310.658 496.528 307.445 500.903 308.425C505.278 309.404 507.917 314.237 506.793 319.186Z" fill="#E5383B" stroke="#263238" stroke-linecap="round" stroke-linejoin="round"/>
<path d="M505.513 400.642C505.513 400.642 499.049 384.487 497.677 381.483C496.306 378.48 507.603 360.705 509.431 358.158C511.26 355.611 514.734 350.322 514.734 349.16C514.734 347.997 501.582 335.068 498.8 332.992C496.019 330.915 491.422 335.604 491.422 335.604C491.422 335.604 479.419 351.537 479.419 353.378C479.419 355.22 485.179 360.992 485.179 360.992C485.179 360.992 476.181 373.922 477.343 379.002C478.505 384.082 483.115 388.47 483.115 388.47L489.58 413.402L505.513 400.642Z" fill="white" stroke="#263238" stroke-linecap="round" stroke-linejoin="round"/>
<path d="M485.192 360.927C485.192 360.927 493.028 354.697 492.349 352.856C492.08 352.309 491.647 351.859 491.112 351.569C490.576 351.279 489.963 351.163 489.358 351.236" stroke="#263238" stroke-linecap="round" stroke-linejoin="round"/>
<path d="M490.743 337.614C491.435 337.614 511.743 351.001 511.286 353.286C510.882 354.974 510.263 356.602 509.445 358.132" stroke="#263238" stroke-linecap="round" stroke-linejoin="round"/>
<path d="M493.054 335.538C493.054 335.538 512.213 347.54 512.644 349.617C512.73 350.299 512.649 350.992 512.408 351.635C512.167 352.279 511.773 352.855 511.26 353.313" stroke="#263238" stroke-linecap="round" stroke-linejoin="round"/>
<path d="M495.131 333.461C495.131 333.461 515.217 347.082 514.721 349.133C514.17 350.814 513.311 352.377 512.187 353.743" stroke="#263238" stroke-linecap="round" stroke-linejoin="round"/>
<path d="M508.282 398.801L477.343 416.615C477.343 416.615 517.515 512.188 524.907 525.117C532.299 538.047 552.15 541.05 562.546 537.589C572.942 534.129 578.009 513.35 574.548 504.574C571.087 495.797 546.143 457.44 534.154 438.268C522.165 419.096 508.282 398.801 508.282 398.801Z" fill="#263238" stroke="#263238" stroke-linecap="round" stroke-linejoin="round"/>
<path d="M491.931 449.265C491.931 449.265 525.887 514.565 534.585 527.625" stroke="#616161" stroke-linecap="round" stroke-linejoin="round"/>
<path d="M511.077 406.545L558.968 479.681" stroke="#616161" stroke-linecap="round" stroke-linejoin="round"/>
<path d="M375.279 311.951V269.911C375.279 268.29 374.635 266.735 373.489 265.589C372.343 264.443 370.788 263.799 369.167 263.799H266.633C265.012 263.799 263.457 264.443 262.311 265.589C261.165 266.735 260.521 268.29 260.521 269.911V311.951C260.521 313.572 261.165 315.127 262.311 316.273C263.457 317.419 265.012 318.063 266.633 318.063H354.684L374.731 337.353L370.721 317.841C372.024 317.499 373.177 316.736 374.001 315.67C374.825 314.605 375.275 313.298 375.279 311.951Z" fill="white" stroke="#263238" stroke-linecap="round" stroke-linejoin="round"/>
<path d="M297.65 294.686C300.182 294.686 302.235 292.633 302.235 290.102C302.235 287.57 300.182 285.518 297.65 285.518C295.119 285.518 293.066 287.57 293.066 290.102C293.066 292.633 295.119 294.686 297.65 294.686Z" fill="#263238"/>
<path d="M317.894 294.686C320.425 294.686 322.478 292.633 322.478 290.102C322.478 287.57 320.425 285.518 317.894 285.518C315.362 285.518 313.31 287.57 313.31 290.102C313.31 292.633 315.362 294.686 317.894 294.686Z" fill="#263238"/>
<path d="M338.15 294.686C340.681 294.686 342.734 292.633 342.734 290.102C342.734 287.57 340.681 285.518 338.15 285.518C335.618 285.518 333.565 287.57 333.565 290.102C333.565 292.633 335.618 294.686 338.15 294.686Z" fill="#263238"/>
<path d="M277.173 310.985V301.582L267.286 299.388C266.748 297.478 265.989 295.637 265.027 293.903L270.447 285.361L263.812 278.714L255.271 284.147C253.545 283.175 251.707 282.417 249.799 281.887L247.592 272.001H238.188L235.994 281.887C234.081 282.414 232.239 283.173 230.509 284.147L222.02 278.714L215.373 285.361L220.714 293.85C219.74 295.58 218.982 297.422 218.455 299.336L208.568 301.53V310.933L218.455 313.14C218.98 315.067 219.739 316.922 220.714 318.664L215.281 327.206L221.929 333.853L230.47 328.42C232.202 329.393 234.043 330.155 235.955 330.693L238.149 340.566H247.552L249.76 330.693C251.667 330.153 253.503 329.39 255.232 328.42L263.773 333.853L270.421 327.206L265.027 318.664C265.987 316.933 266.745 315.097 267.286 313.192L277.173 310.985ZM242.916 318.429C240.514 318.429 238.166 317.717 236.168 316.382C234.171 315.048 232.614 313.151 231.695 310.931C230.776 308.712 230.535 306.27 231.004 303.914C231.472 301.558 232.629 299.394 234.328 297.695C236.026 295.996 238.191 294.84 240.547 294.371C242.903 293.902 245.345 294.143 247.564 295.062C249.784 295.981 251.68 297.538 253.015 299.536C254.35 301.533 255.062 303.881 255.062 306.283C255.062 307.878 254.748 309.458 254.137 310.931C253.527 312.405 252.632 313.744 251.505 314.872C250.377 316 249.038 316.894 247.564 317.505C246.091 318.115 244.511 318.429 242.916 318.429Z" fill="#263238" stroke="#263238" stroke-linecap="round" stroke-linejoin="round"/>
<path d="M194.294 557.976H410.306V549.265H194.294V557.976Z" fill="white" stroke="#263238" stroke-linecap="round" stroke-linejoin="round"/>
<path d="M161.122 557.976H349.395V549.265H161.122V557.976Z" fill="white" stroke="#263238" stroke-linecap="round" stroke-linejoin="round"/>
<path d="M157.478 533.763H337.601L318.181 396.254H138.058L157.478 533.763Z" fill="white" stroke="#263238" stroke-linecap="round" stroke-linejoin="round"/>
<path d="M150.02 533.763H330.144L310.724 396.254H130.6L150.02 533.763Z" fill="#263238" stroke="#263238" stroke-linecap="round" stroke-linejoin="round"/>
<path d="M205.212 469.847L187.137 557.976H233.617L251.692 469.847H205.212ZM236.739 495.967C236.663 496.337 236.462 496.669 236.169 496.907C235.876 497.145 235.51 497.274 235.132 497.273L208.803 497.011C208.557 497.008 208.314 496.95 208.093 496.84C207.872 496.731 207.679 496.573 207.527 496.379C207.376 496.184 207.269 495.958 207.217 495.718C207.164 495.477 207.166 495.227 207.223 494.987L209.6 485.101C209.675 484.731 209.877 484.399 210.17 484.161C210.462 483.922 210.829 483.793 211.206 483.795L237.548 484.043C237.794 484.048 238.035 484.108 238.254 484.218C238.473 484.329 238.665 484.487 238.815 484.681C238.966 484.875 239.071 485.1 239.123 485.34C239.174 485.58 239.172 485.828 239.116 486.067L236.739 495.967Z" fill="white" stroke="#263238" stroke-linecap="round" stroke-linejoin="round"/>
<path d="M25.1405 564.297L633.083 564.297V557.976L25.1405 557.976V564.297Z" fill="#263238" stroke="#263238" stroke-linecap="round" stroke-linejoin="round"/>
<path d="M460.835 140.434L456.995 129.294H418.429L421.916 194.594H511.586V140.434H460.835Z" stroke="#263238" stroke-linecap="round" stroke-linejoin="round"/>
<path d="M511.586 194.593L519.239 134.766H458.51" stroke="#263238" stroke-linecap="round" stroke-linejoin="round"/>
<path d="M252.163 172.789C257.854 148.527 242.799 124.245 218.537 118.555C194.275 112.864 169.993 127.919 164.303 152.181C158.612 176.443 173.667 200.724 197.929 206.415C222.191 212.106 246.472 197.051 252.163 172.789Z" stroke="#263238" stroke-linecap="round" stroke-linejoin="round"/>
<path d="M243.61 170.966C248.281 151.436 236.235 131.818 216.705 127.147C197.176 122.477 177.557 134.522 172.887 154.052C168.216 173.582 180.262 193.2 199.792 197.871C219.321 202.542 238.94 190.496 243.61 170.966Z" stroke="#263238" stroke-linecap="round" stroke-linejoin="round"/>
<path d="M213.061 162.492C213.061 163.445 212.778 164.377 212.248 165.169C211.719 165.962 210.966 166.58 210.086 166.944C209.205 167.309 208.236 167.404 207.301 167.219C206.367 167.033 205.508 166.574 204.834 165.9C204.16 165.226 203.701 164.367 203.515 163.432C203.329 162.497 203.424 161.528 203.789 160.648C204.154 159.767 204.772 159.015 205.564 158.485C206.357 157.955 207.288 157.673 208.242 157.673C209.52 157.673 210.745 158.181 211.649 159.084C212.553 159.988 213.061 161.214 213.061 162.492Z" stroke="#263238" stroke-linecap="round" stroke-linejoin="round"/>
<path d="M208.098 128.863V137.862" stroke="#263238" stroke-linecap="round" stroke-linejoin="round"/>
<path d="M208.098 187.307V196.292" stroke="#263238" stroke-linecap="round" stroke-linejoin="round"/>
<path d="M184.264 138.736L190.611 145.097" stroke="#263238" stroke-linecap="round" stroke-linejoin="round"/>
<path d="M225.585 180.058L231.933 186.418" stroke="#263238" stroke-linecap="round" stroke-linejoin="round"/>
<path d="M174.39 162.584H183.375" stroke="#263238" stroke-linecap="round" stroke-linejoin="round"/>
<path d="M232.821 162.584H241.806" stroke="#263238" stroke-linecap="round" stroke-linejoin="round"/>
<path d="M184.264 186.418L190.611 180.058" stroke="#263238" stroke-linecap="round" stroke-linejoin="round"/>
<path d="M225.585 145.097L231.933 138.736" stroke="#263238" stroke-linecap="round" stroke-linejoin="round"/>
<path d="M203.422 162.492H190.114" stroke="#263238" stroke-linecap="round" stroke-linejoin="round"/>
<path d="M208.242 157.673V140.107" stroke="#263238" stroke-linecap="round" stroke-linejoin="round"/>
<path d="M385.374 129.294H281.77V195.469H385.374V129.294Z" stroke="#263238" stroke-linecap="round" stroke-linejoin="round"/>
<path d="M281.77 129.294L333.565 162.375L385.374 129.294" stroke="#263238" stroke-linecap="round" stroke-linejoin="round"/>
<path d="M281.77 195.469L320.95 159.763" stroke="#263238" stroke-linecap="round" stroke-linejoin="round"/>
<path d="M384.878 195.469L345.698 159.763" stroke="#263238" stroke-linecap="round" stroke-linejoin="round"/>
</svg>
