<svg width="658" height="658" viewBox="0 0 658 658" fill="none" xmlns="http://www.w3.org/2000/svg">
<path d="M658 503.238H0V503.567H658V503.238Z" fill="#EBEBEB"/>
<path d="M592.068 524.413H548.482V524.742H592.068V524.413Z" fill="#EBEBEB"/>
<path d="M435.886 527.992H424.45V528.321H435.886V527.992Z" fill="#EBEBEB"/>
<path d="M547.167 512.201H521.913V512.53H547.167V512.201Z" fill="#EBEBEB"/>
<path d="M125.876 514.411H69.0376V514.74H125.876V514.411Z" fill="#EBEBEB"/>
<path d="M145.931 514.411H137.601V514.74H145.931V514.411Z" fill="#EBEBEB"/>
<path d="M296.298 519.965H173.015V520.294H296.298V519.965Z" fill="#EBEBEB"/>
<path d="M478.195 176.147L434.464 150.709H400.775L356.32 174.937V339.818H478.195V176.147Z" fill="#E0E0E0"/>
<path d="M355.057 176.147L356.373 174.936C372.566 159.339 394.189 150.651 416.672 150.708C439.154 150.651 460.778 159.339 476.971 174.936L478.287 176.147V339.817H355.057V176.147ZM470.022 179.647C455.455 166.275 436.4 158.855 416.626 158.855C396.851 158.855 377.796 166.275 363.229 179.647V331.632H470.022V179.647Z" fill="#FAFAFA"/>
<path d="M419.686 332.633H413.566V277.914H361.676V271.794H413.566V215.825H361.676V209.692H413.566V157.815H419.686V209.692H471.575V215.825H419.686V271.794H471.575V277.914H419.686V332.633Z" fill="#F0F0F0"/>
<path d="M350.977 174.476L352.175 173.278C369.283 156.213 392.461 146.63 416.626 146.63C440.79 146.63 463.968 156.213 481.077 173.278L482.274 174.476V343.897H350.977V174.476ZM474.102 177.884C458.638 163.063 438.046 154.788 416.626 154.788C395.206 154.788 374.614 163.063 359.149 177.884V335.804H474.102V177.884Z" fill="#F0F0F0"/>
<path d="M298.521 176.147L254.791 150.709H221.088L176.633 174.937V339.818H298.521V176.147Z" fill="#E0E0E0"/>
<path d="M175.383 176.147L176.633 174.936C192.833 159.341 214.46 150.653 236.946 150.708C259.433 150.649 281.061 159.337 297.258 174.936L298.574 176.147V339.818H175.383V176.147ZM290.349 179.647C275.782 166.275 256.727 158.855 236.952 158.855C217.178 158.855 198.123 166.275 183.556 179.647V331.632H290.349V179.647Z" fill="#FAFAFA"/>
<path d="M240.012 332.633H233.893V277.914H182.003V271.794H233.893V215.825H182.003V209.692H233.893V157.815H240.012V209.692H291.902V215.825H240.012V271.794H291.902V277.914H240.012V332.633Z" fill="#F0F0F0"/>
<path d="M171.304 174.476L172.501 173.278C189.61 156.213 212.788 146.63 236.952 146.63C261.117 146.63 284.295 156.213 301.403 173.278L302.601 174.476V343.897H171.304V174.476ZM294.429 177.884C278.962 163.062 258.368 154.787 236.946 154.787C215.524 154.787 194.929 163.062 179.463 177.884V335.804H294.429V177.884Z" fill="#F0F0F0"/>
<path d="M531.664 460.469C531.664 460.008 533.256 413.803 540.771 406.513C548.074 399.406 556.471 406.25 556.813 406.513L557.576 405.618C557.471 405.526 548.009 397.801 539.942 405.618C532.046 413.251 530.558 458.482 530.493 460.403L531.664 460.469Z" fill="#E0E0E0"/>
<path d="M531.059 469.549C531.059 468.996 536.204 414.093 516.148 391.076L515.253 391.839C534.993 414.475 529.94 468.891 529.887 469.483L531.059 469.549Z" fill="#E0E0E0"/>
<path d="M531.809 463.746L532.98 463.667C532.98 463.048 529.032 401.236 543.771 387.707L542.969 386.839C527.848 400.749 531.664 461.18 531.809 463.746Z" fill="#E0E0E0"/>
<path d="M529.887 463.706H531.072C531.072 461.995 530.585 421.949 519.228 415.435C518.149 414.736 516.917 414.305 515.638 414.179C514.358 414.053 513.066 414.236 511.871 414.711C504.989 417.567 501.58 429.806 501.449 430.319L502.58 430.635C502.58 430.516 505.976 418.422 512.319 415.804C513.349 415.4 514.461 415.248 515.562 415.36C516.663 415.473 517.721 415.846 518.649 416.448C529.414 422.647 529.887 463.298 529.887 463.706Z" fill="#E0E0E0"/>
<path d="M534.296 463.745L535.467 463.679C535.467 463.364 533.756 432.095 542.205 420.988C544.258 418.356 546.482 417.04 548.785 417.198C554.325 417.593 558.971 425.7 559.023 425.779L560.05 425.2C559.839 424.844 555.049 416.461 548.877 415.988C546.113 415.79 543.534 417.225 541.231 420.238C532.585 431.648 534.296 462.442 534.296 463.745Z" fill="#E0E0E0"/>
<path d="M532.467 467.996C532.69 464.956 537.994 393.431 528.677 380.824L527.729 381.522C536.796 393.774 531.348 467.167 531.295 467.917L532.467 467.996Z" fill="#E0E0E0"/>
<path d="M509.292 421.962C509.292 421.962 514.885 424.028 513.24 428.897C511.595 433.767 493.895 441.768 493.895 441.768C493.895 441.768 486.499 434.977 493.29 423.949C500.08 412.921 509.161 418.488 509.292 421.962Z" fill="#EBEBEB"/>
<path d="M533.625 412.698C533.625 412.698 527.663 412.447 527.321 417.58C526.979 422.712 540.231 436.912 540.231 436.912C540.231 436.912 549.667 433.503 547.64 420.699C545.613 407.894 535.098 409.552 533.625 412.698Z" fill="#EBEBEB"/>
<path d="M538.665 388.142C538.665 388.142 534.717 387.721 535.006 385.299C535.296 382.878 550.443 376.653 559.352 386.72C559.352 386.72 553.641 396.525 545.39 396.656C537.138 396.788 538.665 388.142 538.665 388.142Z" fill="#EBEBEB"/>
<path d="M531.256 382.272C531.256 382.272 534.862 384.009 535.862 381.785C536.862 379.561 527.334 366.296 514.451 370.112C514.451 370.112 514.108 381.456 521.031 385.904C527.953 390.352 531.256 382.272 531.256 382.272Z" fill="#EBEBEB"/>
<path d="M550.088 420.015C550.088 420.015 547.337 417.804 550.298 416.725C553.259 415.646 567.762 415.949 567.92 430.319C567.92 430.319 551.022 433.122 548.93 427.687C546.837 422.252 550.088 420.015 550.088 420.015Z" fill="#EBEBEB"/>
<path d="M515.609 387.787C515.609 387.787 518.346 385.562 515.385 384.483C512.424 383.404 497.922 383.72 497.764 398.091C497.764 398.091 514.661 400.894 516.754 395.459C518.846 390.024 515.609 387.787 515.609 387.787Z" fill="#EBEBEB"/>
<path d="M524.531 399.354C524.531 399.354 524.781 396.722 522.61 397.722C520.438 398.722 512.871 406.934 520.715 414.672C520.715 414.672 531.243 406.855 529.361 402.828C527.479 398.801 524.531 399.354 524.531 399.354Z" fill="#EBEBEB"/>
<path d="M552.51 403.183C552.51 403.183 550.865 401.038 553.273 400.775C555.681 400.512 566.433 403.407 563.906 414.106C563.906 414.106 550.812 413.119 550.259 408.671C549.706 404.223 552.51 403.183 552.51 403.183Z" fill="#EBEBEB"/>
<path d="M508.266 503.542H553.194L558.05 454.35H503.423L508.266 503.542Z" fill="#F0F0F0"/>
<path d="M501.027 459.771H560.445V448.914H501.027V459.771Z" fill="#E6E6E6"/>
<path d="M123.164 460.298L110.373 423.45C110.373 423.45 128.112 436.61 127.994 422.015C127.876 407.421 119.914 418.752 117.15 413.369C114.387 407.987 125.046 408.039 121.282 399.88C117.519 391.721 106.951 404.262 105.082 397.024C103.214 389.786 100.213 386.102 92.5014 386.76C92.5014 386.76 88.3166 396.274 93.4358 403.157C98.555 410.04 80.789 404.473 82.592 411.435C84.3949 418.396 90.3301 424.397 92.9357 419.528C95.5414 414.659 98.8709 423.989 94.4096 426.398C89.9484 428.806 100.24 439.215 102.503 433.754C104.08 430.119 106.029 426.657 108.32 423.423L120.164 462.903L123.164 460.298Z" fill="#EBEBEB"/>
<path d="M136.351 460.601L150.827 437.018C150.827 437.018 136.574 443.44 138.851 433.373C141.128 423.305 144.931 432.333 147.668 429.03C150.405 425.727 143.023 424.148 146.839 419.068C150.656 413.988 156.051 424.332 158.486 419.542C160.92 414.751 163.5 412.725 168.75 414.278C168.75 414.278 170.198 421.502 165.618 425.49C161.039 429.477 174.159 428.346 171.869 432.86C169.58 437.373 164.5 440.729 163.421 436.913C162.342 433.096 158.644 439.111 161.368 441.44C164.092 443.769 155.393 449.441 154.656 445.309C154.111 442.561 153.286 439.875 152.195 437.294L138.075 462.799L136.351 460.601Z" fill="#E6E6E6"/>
<path d="M126.639 460.85L133.219 422.87C133.219 422.87 118.032 438.517 115.808 424.278C113.584 410.039 123.164 419.817 125.02 414.132C126.876 408.447 116.492 410.184 118.835 401.63C121.177 393.076 133.508 403.617 134.179 396.261C134.85 388.904 137.18 384.851 144.813 384.259C144.813 384.259 150.406 392.879 146.51 400.393C142.615 407.907 159.065 399.709 158.354 406.749C157.644 413.79 152.867 420.607 149.55 416.277C146.234 411.947 144.47 421.541 149.208 423.199C153.946 424.857 145.563 436.636 142.483 431.674C140.371 428.381 137.924 425.316 135.179 422.528L129.915 462.85L126.639 460.85Z" fill="#F5F5F5"/>
<path d="M118.44 503.541H141.115C141.877 503.539 142.61 503.247 143.165 502.724C143.72 502.201 144.055 501.486 144.102 500.725L146.51 461.627C146.533 461.219 146.473 460.81 146.333 460.426C146.192 460.042 145.975 459.691 145.694 459.394C145.413 459.097 145.075 458.86 144.699 458.699C144.323 458.537 143.919 458.454 143.51 458.455H116.058C115.649 458.453 115.243 458.534 114.866 458.695C114.49 458.856 114.15 459.092 113.869 459.389C113.588 459.687 113.37 460.039 113.231 460.424C113.091 460.809 113.032 461.218 113.057 461.627L115.466 500.725C115.512 501.484 115.845 502.197 116.398 502.72C116.95 503.242 117.68 503.536 118.44 503.541Z" fill="#EBEBEB"/>
<path d="M113.347 462.851H146.51C147.244 462.853 147.953 462.586 148.504 462.101C149.054 461.616 149.408 460.947 149.498 460.219C149.546 459.798 149.505 459.372 149.377 458.968C149.248 458.565 149.036 458.193 148.754 457.877C148.472 457.561 148.126 457.309 147.739 457.136C147.353 456.964 146.934 456.875 146.51 456.876H113.347C112.924 456.875 112.505 456.964 112.118 457.136C111.732 457.309 111.386 457.561 111.104 457.877C110.821 458.193 110.609 458.565 110.481 458.968C110.353 459.372 110.312 459.798 110.36 460.219C110.45 460.947 110.804 461.616 111.354 462.101C111.905 462.586 112.614 462.853 113.347 462.851Z" fill="#F5F5F5"/>
<path d="M329 562.669C469.921 562.669 584.159 556 584.159 547.772C584.159 539.545 469.921 532.875 329 532.875C188.08 532.875 73.8408 539.545 73.8408 547.772C73.8408 556 188.08 562.669 329 562.669Z" fill="#F5F5F5"/>
<path d="M133.706 364.492H138.733L152.722 446.597H147.695L133.706 364.492Z" fill="#263238"/>
<path d="M152.354 364.492H157.381L171.37 446.597H166.343L152.354 364.492Z" fill="#263238"/>
<path d="M171.014 364.492H176.028L190.03 446.597H185.003L171.014 364.492Z" fill="#263238"/>
<path opacity="0.4" d="M133.706 364.492H138.733L152.722 446.597H147.695L133.706 364.492Z" fill="white"/>
<path opacity="0.4" d="M152.354 364.492H157.381L171.37 446.597H166.343L152.354 364.492Z" fill="white"/>
<path opacity="0.4" d="M171.014 364.492H176.028L190.03 446.597H185.003L171.014 364.492Z" fill="white"/>
<path d="M142.391 373.981C150.471 369.085 161.71 369.085 172.436 373.981C177.857 376.349 184.28 377.034 187.122 373.599C191.965 368.559 183.464 353.622 167.172 348.898C155.512 345.555 143.957 345.555 134.1 348.898C120.361 353.622 119.94 368.559 127.52 373.599C132.192 377.034 138.246 376.376 142.391 373.981Z" fill="#E5383B"/>
<path opacity="0.7" d="M142.391 373.981C150.471 369.085 161.71 369.085 172.436 373.981C177.857 376.349 184.28 377.034 187.122 373.599C191.965 368.559 183.464 353.622 167.172 348.898C155.512 345.555 143.957 345.555 134.1 348.898C120.361 353.622 119.94 368.559 127.52 373.599C132.192 377.034 138.246 376.376 142.391 373.981Z" fill="white"/>
<path d="M221.141 453.414H143.168V445.61C143.168 444.064 143.782 442.581 144.875 441.488C145.968 440.394 147.451 439.78 148.997 439.78H215.311C216.857 439.78 218.34 440.394 219.433 441.488C220.526 442.581 221.141 444.064 221.141 445.61V453.414Z" fill="#E5383B"/>
<path opacity="0.7" d="M221.141 453.414H143.168V445.61C143.168 444.064 143.782 442.581 144.875 441.488C145.968 440.394 147.451 439.78 148.997 439.78H215.311C216.857 439.78 218.34 440.394 219.433 441.488C220.526 442.581 221.141 444.064 221.141 445.61V453.414Z" fill="white"/>
<path d="M176.646 448.716L177.068 466.877L178.976 548.982H185.279L187.188 466.877L187.609 448.716H176.646Z" fill="#263238"/>
<path opacity="0.4" d="M176.646 448.716L177.068 466.877L178.976 548.982H185.279L187.188 466.877L187.609 448.716H176.646Z" fill="white"/>
<path opacity="0.2" d="M176.646 448.716L177.068 467.377H187.188L187.609 448.716H176.646Z" fill="black"/>
<path d="M142.391 548.693L148.221 450.006H157.749L149.59 548.693H142.391Z" fill="#263238"/>
<path opacity="0.4" d="M149.603 548.693H142.404L147.695 458.863L148.221 449.888H157.749L157.012 458.863L149.603 548.693Z" fill="white"/>
<path opacity="0.2" d="M157.749 449.888L157.012 459.218H147.695L148.221 449.888H157.749Z" fill="black"/>
<path d="M214.666 548.693L206.507 450.006H216.035L221.865 548.693H214.666Z" fill="#263238"/>
<path opacity="0.4" d="M214.653 548.693L207.244 458.863L206.52 449.888H216.035L216.561 458.863L221.851 548.693H214.653Z" fill="white"/>
<path opacity="0.2" d="M206.52 449.888L207.244 459.218H216.561L216.035 449.888H206.52Z" fill="black"/>
<path d="M141.72 453.414H222.535C223.829 453.414 224.878 452.365 224.878 451.072V448.94C224.878 447.646 223.829 446.597 222.535 446.597H141.72C140.426 446.597 139.377 447.646 139.377 448.94V451.072C139.377 452.365 140.426 453.414 141.72 453.414Z" fill="#263238"/>
<path opacity="0.6" d="M141.72 453.414H222.535C223.829 453.414 224.878 452.365 224.878 451.072V448.94C224.878 447.646 223.829 446.597 222.535 446.597H141.72C140.426 446.597 139.377 447.646 139.377 448.94V451.072C139.377 452.365 140.426 453.414 141.72 453.414Z" fill="white"/>
<path d="M257.212 548.404H259.015L259.502 546.179L265.463 548.877H280.531C280.531 548.877 282.926 546.456 275.754 544.534C275.4 544.444 275.056 544.316 274.728 544.153C270.911 542.35 265.516 536.257 265.516 536.257H257.238C256.986 536.635 256.762 537.031 256.567 537.441C255.606 539.31 253.988 543.126 257.212 548.404Z" fill="#263238"/>
<path d="M256.515 537.481C257.607 536.27 262.568 541.613 266.214 543.429C269.464 545.047 273.109 545.771 274.728 544.126C270.912 542.323 264.884 534.493 264.884 534.493H258.239C258.239 534.493 256.896 536.704 256.515 537.481Z" fill="#FFC2BC"/>
<path d="M265.253 535.573L258.317 503.646L246.815 508.292L257.896 536.56" fill="#FFC2BC"/>
<path d="M238.564 349.753C238.564 349.753 247.776 405.433 249.316 434.148C250.921 464.324 260.594 512.634 265.713 531.532C264.266 532.848 257.502 533.374 254.304 531.769C254.304 531.769 226.404 476.049 230.037 441.215C206.704 375.52 212.336 350.937 212.336 350.937L238.564 349.753Z" fill="#263238"/>
<g opacity="0.7">
<path d="M238.564 349.753C238.564 349.753 247.776 405.433 249.316 434.148C250.921 464.324 260.594 512.634 265.713 531.532C264.266 532.848 257.502 533.374 254.304 531.769C254.304 531.769 226.404 476.049 230.037 441.215C206.704 375.52 212.336 350.937 212.336 350.937L238.564 349.753Z" fill="white"/>
</g>
<path d="M203.361 548.522H205.164L205.651 546.298L211.613 548.93H226.681C226.681 548.93 229.076 546.522 221.904 544.6C221.549 544.505 221.205 544.373 220.877 544.206C217.048 542.416 211.665 536.31 211.665 536.31H203.388C203.136 536.695 202.908 537.095 202.703 537.507C201.756 539.415 200.19 543.245 203.361 548.522Z" fill="#263238"/>
<path d="M202.664 537.599C203.756 536.375 208.73 541.731 212.376 543.547C215.626 545.166 219.272 545.876 220.89 544.231C217.061 542.442 211.046 534.611 211.046 534.611H204.401C204.401 534.611 203.045 536.822 202.664 537.599Z" fill="#FFC2BC"/>
<path d="M211.31 536.23L210.547 501.501L197.86 502.409L204.282 536.441L211.31 536.23Z" fill="#FFC2BC"/>
<path opacity="0.2" d="M223.127 420.29C219.798 409.341 217.416 399.866 215.718 391.733C217.403 385.377 219.785 379.889 223.022 376.665C223.022 376.665 227.668 394.378 223.127 420.29Z" fill="black"/>
<path d="M228.562 346.832C228.562 346.832 220.93 405.907 216.56 434.333C211.954 464.193 211.375 512.095 212.52 531.625C210.849 532.599 204.756 533.77 201.466 532.743C201.466 532.743 185.898 472.352 196.202 437.281C186.793 368.204 200.413 351.28 200.413 351.28L228.562 346.832Z" fill="#263238"/>
<g opacity="0.7">
<path d="M228.562 346.832C228.562 346.832 220.93 405.907 216.56 434.333C211.954 464.193 211.375 512.095 212.52 531.625C210.849 532.599 204.756 533.77 201.466 532.743C201.466 532.743 185.898 472.352 196.202 437.281C186.793 368.204 200.413 351.28 200.413 351.28L228.562 346.832Z" fill="white"/>
</g>
<path d="M221.825 244.013C221.825 244.013 229.102 243.078 232.471 249.658C235.84 256.238 231.55 266.082 231.55 266.082C231.55 266.082 226.931 273.32 231.668 279.242C235.84 284.506 230.944 288.454 222.456 290.494C213.968 292.534 197.821 290.994 193.649 286.19C189.477 281.387 196.689 276.794 195.794 267.569C194.899 258.344 194.623 249.619 204.243 244.644C212.047 240.617 218.311 241.657 221.825 244.013Z" fill="#263238"/>
<path d="M275.662 321.486L281.913 313.813L286.94 321.881C286.94 321.881 279.926 328.132 277.583 326.368L275.662 321.486Z" fill="#EEC1BB"/>
<path d="M290.757 313.471L292.796 319.985L286.94 321.88L281.913 313.826L290.757 313.471Z" fill="#EEC1BB"/>
<path d="M237.064 312.169L237.13 312.379C237.125 312.441 237.125 312.502 237.13 312.564C237.275 313.024 237.525 313.88 237.906 314.946C238.011 315.275 238.143 315.617 238.262 315.998C238.354 316.248 238.446 316.525 238.551 316.788C238.998 317.972 239.525 319.315 240.157 320.736C240.393 321.275 240.643 321.841 240.92 322.394C241.196 322.947 241.42 323.407 241.683 323.908L242.499 325.421C242.499 325.421 242.499 325.421 242.499 325.5C242.499 325.579 242.749 325.934 242.894 326.158C243.039 326.382 243.157 326.618 243.289 326.842L243.644 327.395C243.841 327.711 244.065 328.013 244.276 328.329L244.434 328.579C244.789 329.079 245.157 329.566 245.513 330.014C245.868 330.461 246.092 330.724 246.394 331.04C246.697 331.356 246.802 331.488 247.013 331.698C247.223 331.909 247.579 332.277 247.881 332.54L248.474 333.054L248.882 333.37C249.079 333.514 249.276 333.672 249.487 333.804C249.698 333.935 250 334.133 250.263 334.278C250.844 334.627 251.462 334.91 252.106 335.12C258.028 337.094 278.992 327.684 278.992 327.684L276.491 320.644C276.491 320.644 257.291 326.697 255.435 324.881C254.928 324.286 254.486 323.638 254.119 322.947C253.896 322.578 253.672 322.144 253.448 321.631L253.198 321.157C253.04 320.854 252.882 320.512 252.711 320.17L252.198 319.104C251.764 318.183 251.303 317.17 250.882 316.13L250.316 314.814C250.132 314.366 249.934 313.932 249.737 313.498L249.158 312.182C246 304.944 242.578 296.916 240.209 294.363C240.141 294.282 240.066 294.207 239.985 294.14C239.734 293.85 239.398 293.647 239.025 293.561L237.209 311.458L237.064 312.169Z" fill="#E5383B"/>
<path opacity="0.2" d="M237.064 312.169L237.13 312.379C237.119 312.44 237.119 312.502 237.13 312.563C237.274 313.024 237.525 313.879 237.906 314.945C238.011 315.274 238.143 315.617 238.261 315.998C238.354 316.248 238.446 316.525 238.551 316.788C238.998 317.972 239.525 319.314 240.157 320.736C240.393 321.275 240.643 321.841 240.92 322.394C241.196 322.947 241.42 323.407 241.683 323.907L242.499 325.421C242.499 325.421 242.499 325.421 242.499 325.5C242.499 325.579 242.749 325.934 242.894 326.158C243.119 319.653 241.48 313.219 238.169 307.615C237.649 308.886 237.269 310.21 237.038 311.563L237.064 312.169Z" fill="black"/>
<path d="M198.834 330.645C200.084 338.633 200.755 344.555 200.755 344.555L199.15 349.227L196.149 357.952L218.969 365.084L224.233 351.832L228.563 364.44L241.723 360.492L239.433 343.107C242.631 307.18 239.433 293.81 239.433 293.81C234.063 290.52 225.878 290.599 225.878 290.599C227.773 300.653 205.585 289.651 205.585 289.651C200.102 290.167 194.726 291.498 189.635 293.599C191.81 298.463 193.473 303.539 194.597 308.747C195.61 312.813 196.492 317.116 197.229 321.275C197.834 324.525 198.36 327.684 198.834 330.645Z" fill="#E5383B"/>
<path d="M206.928 270.478C208.454 276.149 210.336 286.533 206.651 290.31C206.651 290.31 201.506 295.284 216.469 294.824C217.785 297.942 222.812 303.667 222.812 303.667C222.812 303.667 225.089 297.35 224.049 295.074C233.682 294.245 224.273 290.31 224.273 290.31C217.837 288.809 217.693 284.111 218.43 279.782L206.928 270.478Z" fill="#EEC1BB"/>
<path opacity="0.2" d="M211.613 274.241L218.429 279.703C218.227 280.735 218.122 281.783 218.114 282.835C215.666 282.479 212.152 279.834 211.718 277.307C211.499 276.3 211.463 275.261 211.613 274.241Z" fill="black"/>
<path d="M202.085 259.094C203.809 268.306 204.335 272.149 209.56 276.544C217.456 283.124 228.207 279.65 229.3 270.32C230.221 261.924 227.26 248.356 217.824 245.316C215.815 244.58 213.646 244.399 211.543 244.79C209.44 245.182 207.481 246.132 205.871 247.541C204.262 248.95 203.061 250.766 202.395 252.799C201.729 254.831 201.621 257.006 202.085 259.094Z" fill="#EEC1BB"/>
<path d="M209.954 252.488C204.901 259.002 215.284 266.503 204.901 266.069C194.518 265.635 198.742 250.975 204.901 247.645C211.06 244.316 209.954 252.488 209.954 252.488Z" fill="#263238"/>
<path d="M216.587 260.568C216.693 261.344 217.193 261.884 217.68 261.884C218.166 261.884 218.495 261.186 218.377 260.41C218.259 259.633 217.772 259.094 217.285 259.094C216.798 259.094 216.469 259.844 216.587 260.568Z" fill="#263238"/>
<path d="M225.931 260.068C226.049 260.844 226.536 261.384 227.036 261.384C227.536 261.384 227.839 260.686 227.733 259.91C227.628 259.133 227.128 258.594 226.628 258.594C226.128 258.594 225.825 259.252 225.931 260.068Z" fill="#263238"/>
<path d="M226.417 258.659L228.168 257.988C228.168 257.988 227.431 259.515 226.417 258.659Z" fill="#263238"/>
<path d="M223.509 261.528C224.447 263.248 225.597 264.844 226.931 266.279C226.575 266.59 226.153 266.816 225.697 266.939C225.241 267.062 224.763 267.079 224.299 266.99L223.509 261.528Z" fill="#D4827D"/>
<path d="M220.351 270.175C220.789 270.21 221.229 270.21 221.667 270.175C221.696 270.171 221.724 270.162 221.749 270.148C221.775 270.133 221.797 270.114 221.814 270.09C221.831 270.067 221.844 270.04 221.85 270.011C221.856 269.983 221.857 269.953 221.851 269.925C221.845 269.864 221.815 269.808 221.768 269.769C221.722 269.73 221.662 269.71 221.601 269.714C220.627 269.792 219.648 269.648 218.736 269.295C217.825 268.942 217.005 268.388 216.337 267.674C216.322 267.645 216.3 267.62 216.273 267.601C216.247 267.581 216.217 267.568 216.184 267.561C216.152 267.555 216.119 267.555 216.087 267.563C216.055 267.571 216.025 267.586 216 267.606C215.974 267.627 215.953 267.653 215.939 267.683C215.925 267.712 215.917 267.744 215.917 267.777C215.916 267.81 215.923 267.843 215.936 267.873C215.95 267.903 215.97 267.929 215.995 267.951C217.125 269.201 218.675 269.993 220.351 270.175Z" fill="#263238"/>
<path d="M213.968 256.462C214.093 256.458 214.211 256.406 214.297 256.317C214.659 255.898 215.118 255.575 215.635 255.378C216.152 255.18 216.71 255.114 217.258 255.185C217.315 255.199 217.373 255.2 217.43 255.189C217.487 255.178 217.541 255.154 217.589 255.121C217.636 255.087 217.676 255.044 217.705 254.994C217.734 254.943 217.752 254.888 217.758 254.83C217.771 254.707 217.737 254.584 217.664 254.484C217.591 254.385 217.484 254.316 217.364 254.29C216.67 254.19 215.962 254.265 215.304 254.509C214.647 254.752 214.061 255.157 213.6 255.685C213.518 255.773 213.473 255.888 213.473 256.008C213.473 256.127 213.518 256.242 213.6 256.33C213.7 256.421 213.833 256.468 213.968 256.462Z" fill="#263238"/>
<path d="M228.036 255.62C228.093 255.625 228.151 255.618 228.205 255.6C228.259 255.582 228.309 255.553 228.352 255.515C228.435 255.431 228.482 255.317 228.482 255.199C228.482 255.08 228.435 254.967 228.352 254.883C227.882 254.318 227.289 253.869 226.618 253.57C225.947 253.271 225.217 253.13 224.483 253.159C224.425 253.165 224.369 253.183 224.318 253.212C224.267 253.241 224.223 253.281 224.189 253.328C224.154 253.375 224.129 253.429 224.117 253.486C224.104 253.543 224.103 253.602 224.114 253.659C224.137 253.779 224.203 253.886 224.301 253.959C224.398 254.032 224.52 254.066 224.641 254.054C225.223 254.042 225.801 254.162 226.33 254.406C226.858 254.65 227.325 255.011 227.694 255.462C227.786 255.553 227.907 255.609 228.036 255.62Z" fill="#263238"/>
<path d="M217.14 259.252L218.877 258.581C218.877 258.581 218.087 260.068 217.14 259.252Z" fill="#263238"/>
<path d="M201.19 267.925C201.574 268.736 202.124 269.459 202.804 270.046C203.484 270.633 204.279 271.071 205.138 271.333C207.27 271.899 208.191 269.451 207.48 267.017C206.849 264.819 204.967 261.884 202.887 262.411C200.808 262.937 200.124 265.832 201.19 267.925Z" fill="#EEC1BB"/>
<path d="M221.825 249.027C221.825 249.027 220.733 257.804 204.888 258.541L203.072 249.027C203.072 249.027 207.862 240.881 218.864 243.078C229.866 245.276 229.392 256.462 229.392 256.462C228.806 254.714 227.816 253.129 226.501 251.836C225.185 250.544 223.583 249.581 221.825 249.027Z" fill="#263238"/>
<path d="M219.772 288.02C219.772 288.02 224.707 291.467 224.115 295.073L232.537 297.153C232.537 297.153 227.497 288.625 219.772 288.02Z" fill="#E5383B"/>
<path d="M204.677 298.653L216.521 294.824C216.521 294.824 210.283 289.796 208.336 287.072L204.388 289.994C204.295 290.218 203.137 293.086 204.677 298.653Z" fill="#E5383B"/>
<path opacity="0.6" d="M219.772 288.02C219.772 288.02 224.707 291.467 224.115 295.073L232.537 297.153C232.537 297.153 227.497 288.625 219.772 288.02Z" fill="white"/>
<path opacity="0.6" d="M204.677 298.653L216.521 294.824C216.521 294.824 210.283 289.796 208.336 287.072L204.388 289.994C204.295 290.218 203.137 293.086 204.677 298.653Z" fill="white"/>
<path opacity="0.2" d="M200.755 344.555L199.15 349.227C202.545 349.227 206.519 349.043 210.296 348.832C217.587 348.411 224.128 347.845 224.128 347.845L223.588 338.739L216.284 338.844L215.929 338.159C214.477 337.828 213.051 337.388 211.665 336.844C207.417 335.092 203.266 333.115 199.229 330.922L198.834 330.711C200.032 338.633 200.755 344.555 200.755 344.555Z" fill="black"/>
<path d="M214.324 339.528L224.128 338.212L222.22 347.516C222.22 347.516 212.823 347.213 212.336 344.318L214.324 339.528Z" fill="#EEC1BB"/>
<path d="M230.787 344.081L227.773 350.201L222.22 347.556L224.128 338.238L230.787 344.081Z" fill="#EEC1BB"/>
<path opacity="0.2" d="M194.557 308.721C195.57 312.787 196.452 317.091 197.189 321.249C199.124 315.09 197.479 306.892 197.479 306.892C196.337 307.18 195.315 307.82 194.557 308.721Z" fill="black"/>
<path d="M189.583 293.586C185.2 297.455 177.397 332.408 179.936 336.856C182.476 341.304 212.113 346.344 212.113 346.344L214.968 338.817C214.968 338.817 191.491 332.342 191.491 329.776C191.491 327.21 196.229 316.169 196.229 316.169C196.229 316.169 199.4 306.957 195.794 298.653C193.636 293.639 189.583 293.586 189.583 293.586Z" fill="#E5383B"/>
<path d="M214.968 338.817L211.665 336.777L207.835 346.345H212.112L214.968 338.817Z" fill="#E5383B"/>
<path d="M276.439 320.683L273.017 321.235L275.662 330.645L278.939 327.723L276.439 320.683Z" fill="#E5383B"/>
<path opacity="0.6" d="M214.968 338.817L211.665 336.777L207.835 346.345H212.112L214.968 338.817Z" fill="white"/>
<path opacity="0.6" d="M276.439 320.683L273.017 321.235L275.662 330.645L278.939 327.723L276.439 320.683Z" fill="white"/>
<path d="M440.268 364.492H435.241L421.251 446.597H426.279L440.268 364.492Z" fill="#263238"/>
<path d="M421.607 364.492H416.58L402.591 446.597H407.618L421.607 364.492Z" fill="#263238"/>
<path d="M402.959 364.492H397.932L383.943 446.597H388.97L402.959 364.492Z" fill="#263238"/>
<path opacity="0.4" d="M440.268 364.492H435.241L421.251 446.597H426.279L440.268 364.492Z" fill="white"/>
<path opacity="0.4" d="M421.607 364.492H416.58L402.591 446.597H407.618L421.607 364.492Z" fill="white"/>
<path opacity="0.4" d="M402.959 364.492H397.932L383.943 446.597H388.97L402.959 364.492Z" fill="white"/>
<path d="M431.648 373.981C423.555 369.085 412.329 369.085 401.591 373.981C396.169 376.349 389.747 377.034 386.904 373.599C382.074 368.559 390.563 353.622 406.855 348.898C418.528 345.555 430.069 345.555 439.926 348.898C453.665 353.622 454.086 368.559 446.506 373.599C441.768 377.034 435.728 376.376 431.648 373.981Z" fill="#E5383B"/>
<path opacity="0.7" d="M431.648 373.981C423.555 369.085 412.329 369.085 401.591 373.981C396.169 376.349 389.747 377.034 386.904 373.599C382.074 368.559 390.563 353.622 406.855 348.898C418.528 345.555 430.069 345.555 439.926 348.898C453.665 353.622 454.086 368.559 446.506 373.599C441.768 377.034 435.728 376.376 431.648 373.981Z" fill="white"/>
<path d="M358.662 439.78H425.068C426.614 439.78 428.097 440.394 429.19 441.488C430.283 442.581 430.898 444.064 430.898 445.61V453.414H352.833V445.61C352.833 444.064 353.447 442.581 354.54 441.488C355.633 440.394 357.116 439.78 358.662 439.78Z" fill="#E5383B"/>
<path opacity="0.7" d="M358.662 439.78H425.068C426.614 439.78 428.097 440.394 429.19 441.488C430.283 442.581 430.898 444.064 430.898 445.61V453.414H352.833V445.61C352.833 444.064 353.447 442.581 354.54 441.488C355.633 440.394 357.116 439.78 358.662 439.78Z" fill="white"/>
<path d="M397.313 448.716L396.905 466.877L394.984 548.982H388.68L386.785 466.877L386.364 448.716H397.313Z" fill="#263238"/>
<path opacity="0.4" d="M397.313 448.716L396.905 466.877L394.984 548.982H388.68L386.785 466.877L386.364 448.716H397.313Z" fill="white"/>
<path opacity="0.2" d="M397.313 448.716L396.905 467.377H386.785L386.364 448.716H397.313Z" fill="black"/>
<path d="M431.569 548.693L425.739 450.006H416.225L424.371 548.693H431.569Z" fill="#263238"/>
<path opacity="0.4" d="M424.357 548.693H431.556L426.279 458.863L425.752 449.888H416.225L416.962 458.863L424.357 548.693Z" fill="white"/>
<path opacity="0.2" d="M416.225 449.888L416.962 459.218H426.279L425.752 449.888H416.225Z" fill="black"/>
<path d="M359.294 548.693L367.453 450.006H357.926L352.109 548.693H359.294Z" fill="#263238"/>
<path opacity="0.4" d="M359.321 548.693L366.716 458.863L367.453 449.888H357.926L357.399 458.863L352.109 548.693H359.321Z" fill="white"/>
<path opacity="0.2" d="M367.454 449.888L366.717 459.218H357.399L357.926 449.888H367.454Z" fill="black"/>
<path d="M432.253 446.598H351.438C350.144 446.598 349.095 447.646 349.095 448.94V451.072C349.095 452.366 350.144 453.415 351.438 453.415H432.253C433.547 453.415 434.596 452.366 434.596 451.072V448.94C434.596 447.646 433.547 446.598 432.253 446.598Z" fill="#263238"/>
<path opacity="0.6" d="M432.253 446.598H351.438C350.144 446.598 349.095 447.646 349.095 448.94V451.072C349.095 452.366 350.144 453.415 351.438 453.415H432.253C433.547 453.415 434.596 452.366 434.596 451.072V448.94C434.596 447.646 433.547 446.598 432.253 446.598Z" fill="white"/>
<path d="M331.5 389.943V393.339C331.5 394.22 330.474 394.576 329.619 394.576H261.766C260.897 394.576 259.857 394.22 259.857 393.339V389.943H331.5Z" fill="#263238"/>
<path opacity="0.2" d="M331.5 389.943V393.339C331.5 394.22 330.474 394.576 329.619 394.576H261.766C260.897 394.576 259.857 394.22 259.857 393.339V389.943H331.5Z" fill="white"/>
<path opacity="0.2" d="M331.5 389.943V393.339C331.5 394.22 330.474 394.576 329.619 394.576H284.875C284.006 394.576 282.966 394.22 282.966 393.339V389.943H331.5Z" fill="black"/>
<path d="M342.857 354.701L334.777 391.339C334.629 391.927 334.291 392.45 333.815 392.826C333.339 393.202 332.752 393.41 332.145 393.418H288.033C287.759 393.409 287.49 393.338 287.248 393.209C287.006 393.08 286.797 392.897 286.637 392.675C286.476 392.452 286.369 392.196 286.324 391.925C286.279 391.655 286.296 391.378 286.375 391.115L294.442 354.754C294.609 354.199 294.961 353.718 295.441 353.392C295.92 353.067 296.496 352.915 297.074 352.964H341.186C342.371 352.964 343.121 353.504 342.857 354.701Z" fill="#263238"/>
<path opacity="0.2" d="M342.857 354.701L334.777 391.339C334.629 391.927 334.291 392.45 333.815 392.826C333.339 393.202 332.752 393.41 332.145 393.418H289.52C289.245 393.412 288.975 393.342 288.731 393.214C288.488 393.086 288.277 392.903 288.117 392.68C287.956 392.456 287.849 392.199 287.805 391.927C287.761 391.656 287.78 391.378 287.862 391.115L295.929 354.754C296.096 354.199 296.448 353.718 296.927 353.392C297.407 353.067 297.983 352.915 298.561 352.964H341.173C342.37 352.964 343.12 353.504 342.857 354.701Z" fill="white"/>
<path opacity="0.2" d="M321.104 373.323C321.104 376.455 317.735 378.995 315.274 378.995C312.813 378.995 311.326 376.455 312.05 373.323C312.774 370.191 315.208 367.73 317.616 367.638C316.919 370.783 318.419 373.323 320.88 373.323H321.104Z" fill="black"/>
<path d="M338.475 548.982L339.436 402.683H329.96L330.908 548.982H338.475Z" fill="#263238"/>
<path opacity="0.4" d="M330.908 548.982H338.475L339.238 431.792L339.436 402.972H329.947L330.132 431.792L330.908 548.982Z" fill="white"/>
<path opacity="0.2" d="M329.947 402.972L330.132 432.121H339.238L339.436 402.972H329.947Z" fill="black"/>
<path d="M264.766 548.982L275.267 402.683H265.792L257.199 548.982H264.766Z" fill="#263238"/>
<path opacity="0.5" d="M264.766 548.982L274.636 411.552L275.267 402.972H265.792L265.279 411.552L257.199 548.982H264.766Z" fill="white"/>
<path opacity="0.2" d="M265.279 411.131H274.636L275.268 402.972H265.793L265.279 411.131Z" fill="black"/>
<path d="M412.184 548.982L403.591 402.683H394.116L404.631 548.982H412.184Z" fill="#263238"/>
<path opacity="0.5" d="M404.631 548.982H412.184L404.104 411.552L403.591 402.972H394.116L394.747 411.552L404.631 548.982Z" fill="white"/>
<path opacity="0.2" d="M403.591 402.972H394.116L394.747 411.131H404.104L403.591 402.972Z" fill="black"/>
<path d="M408.578 407.157H260.805C260.134 407.157 259.492 406.891 259.018 406.417C258.544 405.943 258.278 405.301 258.278 404.63V398.208H411.105V404.63C411.105 404.962 411.04 405.291 410.913 405.597C410.786 405.904 410.6 406.183 410.365 406.417C410.13 406.652 409.852 406.838 409.545 406.965C409.239 407.092 408.91 407.157 408.578 407.157Z" fill="#263238"/>
<path opacity="0.6" d="M408.578 407.157H260.805C260.134 407.157 259.492 406.891 259.018 406.417C258.544 405.943 258.278 405.301 258.278 404.63V398.208H411.105V404.63C411.105 404.962 411.04 405.291 410.913 405.597C410.786 405.904 410.6 406.183 410.365 406.417C410.13 406.652 409.852 406.838 409.545 406.965C409.239 407.092 408.91 407.157 408.578 407.157Z" fill="white"/>
<path opacity="0.2" d="M258.291 402.683H411.105V398.208H258.291V402.683Z" fill="black"/>
<path d="M253.856 399.379H415.527C416.197 399.379 416.84 399.113 417.314 398.639C417.787 398.165 418.054 397.523 418.054 396.852C418.054 396.521 417.988 396.193 417.861 395.888C417.734 395.582 417.548 395.304 417.313 395.07C417.078 394.837 416.799 394.652 416.493 394.526C416.186 394.401 415.858 394.337 415.527 394.339H253.856C253.525 394.337 253.197 394.401 252.89 394.526C252.584 394.652 252.305 394.837 252.07 395.07C251.836 395.304 251.649 395.582 251.522 395.888C251.395 396.193 251.33 396.521 251.33 396.852C251.33 397.523 251.596 398.165 252.07 398.639C252.544 399.113 253.186 399.379 253.856 399.379Z" fill="#263238"/>
<path opacity="0.6" d="M253.856 399.379H415.527C416.197 399.379 416.84 399.113 417.314 398.639C417.787 398.165 418.054 397.523 418.054 396.852C418.054 396.521 417.988 396.193 417.861 395.888C417.734 395.582 417.548 395.304 417.313 395.07C417.078 394.837 416.799 394.652 416.493 394.526C416.186 394.401 415.858 394.337 415.527 394.339H253.856C253.525 394.337 253.197 394.401 252.89 394.526C252.584 394.652 252.305 394.837 252.07 395.07C251.836 395.304 251.649 395.582 251.522 395.888C251.395 396.193 251.33 396.521 251.33 396.852C251.33 397.523 251.596 398.165 252.07 398.639C252.544 399.113 253.186 399.379 253.856 399.379Z" fill="white"/>
<path d="M499.514 274.57C502.923 288.546 506.502 302.364 507.529 316.853C507.098 327.952 505.805 339 503.66 349.898L497.29 349.49C496.54 339.08 496.619 327.789 495.974 317.419C494.974 310.128 492.987 303.022 491.289 295.665L487.012 277.676L499.514 274.557V274.57Z" fill="#E4897B"/>
<path d="M502.844 368.309L492.934 366.387L494.132 357.715L506.226 359.36L502.844 368.309Z" fill="#E4897B"/>
<path d="M504.028 348.385L506.225 359.36L494.131 357.715C494.131 357.715 494.066 347.687 498.606 346.582L504.028 348.385Z" fill="#E4897B"/>
<path d="M513.148 354.912L512.398 336.423C512.347 335.481 511.939 334.594 511.257 333.943C510.574 333.293 509.669 332.927 508.726 332.922H476.116C475.946 332.92 475.778 332.953 475.623 333.019C475.467 333.086 475.327 333.184 475.211 333.308C475.096 333.432 475.008 333.579 474.953 333.739C474.898 333.899 474.877 334.069 474.892 334.238L475.734 354.965L513.148 354.912Z" fill="#263238"/>
<path d="M510.884 377.692H476.01C475.661 377.692 475.327 377.553 475.08 377.306C474.833 377.059 474.694 376.725 474.694 376.376L472.984 334.119C472.969 333.95 472.99 333.78 473.045 333.62C473.1 333.46 473.188 333.313 473.303 333.189C473.418 333.065 473.559 332.966 473.714 332.9C473.87 332.833 474.038 332.8 474.207 332.803H509.068C509.417 332.803 509.752 332.942 509.999 333.188C510.246 333.435 510.384 333.77 510.384 334.119L512.095 376.376C512.112 376.544 512.093 376.713 512.039 376.874C511.986 377.034 511.899 377.181 511.785 377.305C511.67 377.429 511.531 377.528 511.376 377.595C511.221 377.661 511.053 377.694 510.884 377.692Z" fill="#263238"/>
<path opacity="0.2" d="M510.384 334.172L512.108 376.442C512.121 376.61 512.099 376.779 512.043 376.939C511.987 377.098 511.899 377.244 511.784 377.367C511.669 377.491 511.53 377.59 511.375 377.657C511.22 377.724 511.053 377.758 510.884 377.758H476.023C475.674 377.758 475.34 377.619 475.093 377.372C474.846 377.126 474.707 376.791 474.707 376.442L472.983 334.172C472.967 334.003 472.986 333.832 473.04 333.671C473.094 333.51 473.182 333.362 473.298 333.237C473.414 333.113 473.555 333.015 473.712 332.949C473.868 332.883 474.037 332.851 474.207 332.856H509.068C509.417 332.856 509.752 332.995 509.999 333.241C510.246 333.488 510.384 333.823 510.384 334.172Z" fill="white"/>
<path d="M509.7 338.212H506.555C506.247 338.209 505.952 338.089 505.73 337.877C505.507 337.664 505.374 337.375 505.357 337.067V336.225C505.351 336.073 505.376 335.921 505.431 335.778C505.485 335.636 505.567 335.506 505.673 335.396C505.778 335.286 505.905 335.199 506.045 335.14C506.186 335.081 506.337 335.052 506.489 335.054H509.634C509.942 335.057 510.237 335.177 510.46 335.389C510.682 335.602 510.815 335.891 510.832 336.199V337.041C510.838 337.191 510.812 337.341 510.758 337.482C510.704 337.622 510.621 337.75 510.516 337.857C510.412 337.969 510.285 338.058 510.145 338.119C510.005 338.18 509.853 338.212 509.7 338.212ZM506.45 335.712C506.386 335.712 506.322 335.724 506.264 335.749C506.205 335.774 506.152 335.811 506.107 335.857C506.063 335.902 506.029 335.955 506.006 336.014C505.983 336.073 505.973 336.136 505.976 336.199V337.041C505.986 337.178 506.046 337.307 506.146 337.402C506.246 337.497 506.378 337.551 506.515 337.554H509.661C509.724 337.554 509.788 337.542 509.846 337.517C509.905 337.492 509.958 337.455 510.003 337.409C510.047 337.364 510.081 337.311 510.104 337.252C510.127 337.193 510.137 337.13 510.134 337.067V336.225C510.128 336.087 510.068 335.956 509.967 335.86C509.867 335.765 509.733 335.712 509.595 335.712H506.45Z" fill="white"/>
<path d="M509.897 338.87H506.462L506.41 337.37H509.844L509.897 338.87Z" fill="#263238"/>
<path opacity="0.2" d="M503.804 334.172L505.528 376.442C505.541 376.61 505.519 376.779 505.463 376.939C505.407 377.098 505.319 377.244 505.204 377.367C505.089 377.491 504.95 377.59 504.795 377.657C504.64 377.724 504.473 377.758 504.304 377.758H476.023C475.674 377.758 475.34 377.619 475.093 377.372C474.846 377.126 474.707 376.791 474.707 376.442L472.983 334.172C472.967 334.003 472.986 333.832 473.04 333.671C473.094 333.51 473.182 333.362 473.298 333.237C473.414 333.113 473.555 333.015 473.712 332.949C473.868 332.883 474.037 332.851 474.207 332.856H502.488C502.837 332.856 503.172 332.995 503.419 333.241C503.666 333.488 503.804 333.823 503.804 334.172Z" fill="black"/>
<path d="M453.941 230.142C453.941 230.866 453.533 231.458 453.059 231.458C452.586 231.458 452.217 230.866 452.23 230.142C452.243 229.418 452.638 228.826 453.112 228.826C453.586 228.826 454.02 229.418 453.941 230.142Z" fill="#263238"/>
<path d="M453.599 231.445C452.694 233.642 451.494 235.705 450.032 237.578C450.521 237.939 451.083 238.189 451.678 238.312C452.273 238.435 452.888 238.427 453.48 238.289L453.599 231.445Z" fill="#DE5753"/>
<path d="M456.652 226.167C456.756 226.15 456.85 226.093 456.915 226.009C456.984 225.918 457.015 225.804 457 225.691C456.985 225.577 456.926 225.474 456.836 225.404C456.304 224.988 455.68 224.705 455.016 224.579C454.352 224.453 453.667 224.488 453.02 224.68C452.966 224.699 452.917 224.729 452.876 224.767C452.834 224.805 452.801 224.852 452.777 224.903C452.754 224.955 452.741 225.011 452.74 225.067C452.739 225.124 452.749 225.18 452.77 225.233C452.808 225.338 452.887 225.423 452.988 225.47C453.089 225.516 453.205 225.521 453.309 225.483C453.824 225.338 454.365 225.317 454.889 225.422C455.413 225.527 455.905 225.756 456.323 226.088C456.367 226.127 456.421 226.154 456.478 226.168C456.535 226.182 456.595 226.181 456.652 226.167Z" fill="#263238"/>
<path d="M476.392 237.88C474.681 244.341 472.602 256.304 476.905 260.936C476.905 260.936 474.668 267.516 462.495 266.661C449.111 265.779 456.534 259.594 456.534 259.594C463.956 258.278 464.127 252.895 463.192 247.75L476.392 237.88Z" fill="#E4897B"/>
<path d="M478.116 229.05C477.405 237.933 477.445 243.17 472.852 247.645C465.969 254.383 455.073 250.106 453.112 241.196C451.348 233.169 452.809 219.996 461.574 216.627C463.504 215.867 465.596 215.615 467.651 215.893C469.707 216.172 471.657 216.972 473.315 218.217C474.973 219.463 476.285 221.112 477.126 223.008C477.966 224.905 478.307 226.984 478.116 229.05Z" fill="#E4897B"/>
<path d="M476.773 243.565C473.549 246.289 459.165 241.828 459.942 230.892C459.942 230.892 453.836 225.799 453.178 219.048C452.52 212.297 456.612 208.941 461.705 209.468C466.206 209.942 466.522 212.297 466.522 212.297C466.522 212.297 487.13 210.981 484.327 219.956C494.197 227.418 480.787 240.17 476.773 243.565Z" fill="#263238"/>
<path d="M463.785 232.05C463.581 234.263 462.657 236.348 461.153 237.985C459.166 240.117 457.139 238.748 456.823 236.116C456.547 233.748 457.231 229.786 459.639 228.628C462.048 227.47 463.969 229.392 463.785 232.05Z" fill="#E4897B"/>
<path d="M478.761 259.883L478.155 255.462C478.155 255.462 456.652 253.988 453.599 259.883C450.546 265.779 474.734 265.016 478.761 259.883Z" fill="#E5383B"/>
<path opacity="0.5" d="M478.761 259.883L478.155 255.462C478.155 255.462 456.652 253.988 453.599 259.883C450.546 265.779 474.734 265.016 478.761 259.883Z" fill="white"/>
<path d="M483.288 280.019L484.459 283.072L490.973 300.048L491.21 300.641L507.002 294.179C507.002 294.179 499.672 263.003 492.908 261.7L483.288 280.019Z" fill="#E5383B"/>
<path opacity="0.7" d="M483.288 280.019L484.459 283.072L490.973 300.048L491.21 300.641L507.002 294.179C507.002 294.179 499.672 263.003 492.908 261.7L483.288 280.019Z" fill="white"/>
<path opacity="0.2" d="M484.459 283.071L490.973 300.048C497.487 285.73 490.013 272.833 490.013 272.833C488.091 274.412 486.117 278.334 484.459 283.071Z" fill="black"/>
<path d="M518.596 538.034C518.634 538.015 518.665 537.987 518.689 537.953C518.712 537.918 518.725 537.878 518.728 537.836C518.722 537.796 518.707 537.757 518.684 537.723C518.662 537.689 518.631 537.66 518.596 537.639C518.478 537.639 515.688 536.454 514.477 537.033C514.345 537.093 514.228 537.18 514.132 537.289C514.037 537.398 513.966 537.526 513.924 537.665C513.852 537.831 513.834 538.015 513.872 538.192C513.909 538.369 514.001 538.53 514.135 538.652C514.481 538.82 514.857 538.917 515.242 538.938C515.626 538.958 516.01 538.901 516.372 538.771C517.136 538.598 517.881 538.351 518.596 538.034ZM517.951 537.849C516.635 538.363 514.898 538.731 514.411 538.323C514.411 538.323 514.227 538.165 514.332 537.784C514.36 537.704 514.404 537.63 514.46 537.567C514.517 537.503 514.585 537.452 514.661 537.415L514.911 537.336C515.95 537.28 516.989 537.455 517.951 537.849Z" fill="#E5383B"/>
<path d="M518.662 537.994C518.679 537.962 518.688 537.925 518.688 537.889C518.688 537.852 518.679 537.816 518.662 537.783C518.662 537.678 517.872 535.151 516.675 534.572C516.53 534.495 516.372 534.448 516.209 534.435C516.046 534.421 515.882 534.441 515.727 534.493C515.569 534.527 515.429 534.616 515.33 534.744C515.231 534.871 515.181 535.03 515.188 535.191C515.188 536.204 517.385 537.744 518.399 538.047H518.504L518.662 537.994ZM516.53 534.954C517.317 535.612 517.886 536.493 518.162 537.481C517.109 536.981 515.675 535.783 515.661 535.178C515.661 535.178 515.661 534.993 515.925 534.901H516.017C516.188 534.854 516.371 534.873 516.53 534.954Z" fill="#E5383B"/>
<path d="M452.849 540.021C452.891 540.013 452.931 539.993 452.961 539.962C452.992 539.932 453.012 539.893 453.02 539.85C453.027 539.808 453.021 539.765 453.002 539.727C452.983 539.689 452.952 539.658 452.915 539.639C452.783 539.56 449.638 537.771 448.151 538.179C448.009 538.208 447.875 538.267 447.759 538.354C447.643 538.44 447.548 538.551 447.479 538.679C447.381 538.812 447.328 538.973 447.328 539.139C447.328 539.305 447.381 539.466 447.479 539.6C447.861 540.126 448.967 540.284 450.111 540.284C451.03 540.279 451.946 540.191 452.849 540.021ZM452.151 539.718C450.493 539.942 448.203 539.929 447.795 539.35C447.795 539.35 447.69 539.152 447.795 538.889C447.836 538.811 447.894 538.743 447.964 538.691C448.035 538.638 448.117 538.603 448.203 538.587C448.339 538.573 448.476 538.573 448.611 538.587C449.855 538.726 451.058 539.11 452.151 539.718Z" fill="#E5383B"/>
<path d="M452.928 539.995C452.958 539.972 452.982 539.942 452.998 539.907C453.014 539.873 453.021 539.835 453.02 539.797C452.927 538.526 452.44 537.316 451.625 536.336C451.462 536.2 451.273 536.098 451.069 536.037C450.866 535.976 450.652 535.957 450.44 535.981C449.861 535.981 449.69 536.336 449.651 536.573C449.493 537.586 451.638 539.521 452.717 540.008H452.809C452.849 540.015 452.89 540.01 452.928 539.995ZM451.388 536.665C452.063 537.444 452.477 538.415 452.572 539.442C451.467 538.771 450.019 537.244 450.111 536.639C450.111 536.639 450.111 536.442 450.533 536.402H450.651C450.92 536.398 451.182 536.492 451.388 536.665Z" fill="#E5383B"/>
<path d="M462.679 539.823H453.704L452.809 519.03H461.784L462.679 539.823Z" fill="#E4897B"/>
<path d="M528.558 535.665L519.794 537.56L510.977 518.202L519.754 516.307L528.558 535.665Z" fill="#E4897B"/>
<path d="M518.938 536.678L528.795 534.546C528.969 534.508 529.151 534.531 529.312 534.61C529.472 534.688 529.6 534.819 529.677 534.981L533.098 542.403C533.182 542.584 533.223 542.782 533.218 542.982C533.214 543.181 533.164 543.377 533.073 543.555C532.982 543.732 532.851 543.887 532.691 544.006C532.532 544.126 532.347 544.208 532.151 544.245C528.703 544.93 526.979 545.088 522.649 546.035C520.017 546.614 513.964 548.075 510.279 548.878C506.594 549.68 505.344 546.14 506.765 545.482C513.2 542.534 515.898 539.942 517.635 537.586C517.945 537.135 518.408 536.813 518.938 536.678Z" fill="#263238"/>
<path d="M453.757 538.783H463.561C463.738 538.782 463.91 538.841 464.049 538.951C464.188 539.061 464.285 539.216 464.324 539.389L466.101 547.377C466.143 547.571 466.14 547.772 466.093 547.965C466.046 548.159 465.955 548.339 465.829 548.492C465.702 548.645 465.542 548.768 465.361 548.85C465.181 548.933 464.984 548.973 464.785 548.969C461.245 548.969 456.139 548.706 451.691 548.706C446.492 548.706 442.005 548.982 435.899 548.982C432.214 548.982 431.187 545.258 432.727 544.916C439.754 543.389 445.492 543.218 451.559 539.481C452.21 539.044 452.973 538.802 453.757 538.783Z" fill="#263238"/>
<path opacity="0.2" d="M452.809 519.03L453.27 529.756H462.245L461.784 519.03H452.809Z" fill="black"/>
<path opacity="0.2" d="M519.754 516.307L510.977 518.202L515.53 528.19L524.308 526.282L519.754 516.307Z" fill="black"/>
<path d="M457.534 328C457.534 328 467.72 393.8 473.326 418.449C479.445 445.44 512.292 534.744 512.292 534.744L528.361 531.414C528.361 531.414 505.397 458.639 500.251 420.87C496.303 391.918 488.525 327.974 488.525 327.974L457.534 328Z" fill="#263238"/>
<path opacity="0.3" d="M463.969 351.438C475.747 353.662 474.497 395.787 473.089 417.462C469.693 402.143 464.719 372.718 461.324 351.754C462.146 351.359 463.076 351.248 463.969 351.438Z" fill="black"/>
<path d="M440.505 328C440.505 328 439.268 392.379 440.241 418.633C441.255 445.94 451.204 535.362 451.204 535.362H466.403C466.403 535.362 466.969 447.532 467.641 420.712C468.377 391.471 472.062 328 472.062 328H440.505Z" fill="#263238"/>
<path d="M437.465 300.969C437.925 311.089 438.781 322.433 440.399 334.119L489.091 332.645C489.091 332.645 488.604 291.612 492.947 261.752C492.947 261.752 460.442 255.778 437.596 261.344C437.596 261.344 437.136 268.056 437.057 278.834C437.004 285.019 437.096 292.573 437.465 300.969Z" fill="#E5383B"/>
<path d="M489.723 333.554L488.012 333.606L488.289 337.41L490.013 337.357L489.723 333.554Z" fill="black"/>
<path d="M486.262 333.672L471.628 334.132L471.917 337.949L486.512 337.475L486.262 333.672Z" fill="black"/>
<path d="M469.878 334.186L450.072 334.804L450.335 338.66L470.141 338.002L469.878 334.186Z" fill="black"/>
<path d="M439.86 335.133V339.002L448.585 338.726L448.322 334.856L439.86 335.133Z" fill="black"/>
<path opacity="0.7" d="M437.465 300.969C437.925 311.089 438.781 322.433 440.399 334.119L489.091 332.645C489.091 332.645 488.604 291.612 492.947 261.752C492.947 261.752 460.442 255.778 437.596 261.344C437.596 261.344 437.136 268.056 437.057 278.834C437.004 285.019 437.096 292.573 437.465 300.969Z" fill="white"/>
<path opacity="0.2" d="M437.465 300.969C445.466 291.547 447.44 276.123 447.44 276.123C443.807 276.18 440.242 277.11 437.044 278.834C437.004 285.019 437.096 292.573 437.465 300.969Z" fill="black"/>
<path d="M444.65 272.333C440.965 281.269 431.24 305.839 420.185 305.997C407.433 304.983 399.985 284.941 397.813 274.307L404.012 272.412C406.417 277.419 409.234 282.217 412.434 286.757C414.908 290.007 417.356 293.231 421.015 294.521H421.146C420.416 294.251 419.619 294.218 418.869 294.429C424.581 287.244 428.779 276.531 432.701 267.596L444.689 272.307L444.65 272.333Z" fill="#E4897B"/>
<path d="M401.117 255.106L391.602 258.449L394.05 266.858L405.775 263.463L401.117 255.106Z" fill="#E4897B"/>
<path d="M405.209 274.636L405.775 263.463L394.05 266.858C394.05 266.858 395.458 276.781 400.103 277.228L405.209 274.636Z" fill="#E4897B"/>
<path d="M437.583 261.345C431.582 263.082 420.606 289.402 420.606 289.402L435.793 298.732C435.793 298.732 448.585 284.085 448.585 276.294C448.585 262.24 437.583 261.345 437.583 261.345Z" fill="#E5383B"/>
<path opacity="0.7" d="M437.583 261.345C431.582 263.082 420.606 289.402 420.606 289.402L435.793 298.732C435.793 298.732 448.585 284.085 448.585 276.294C448.585 262.24 437.583 261.345 437.583 261.345Z" fill="white"/>
<path d="M509.924 335.58C508.266 327.236 495.448 263.726 491.105 261.252L487.275 260.949C489.631 263.213 490.157 265.081 506.344 336.488H509.174C509.286 336.488 509.397 336.463 509.499 336.415C509.601 336.367 509.691 336.297 509.763 336.21C509.835 336.124 509.886 336.022 509.914 335.913C509.942 335.804 509.945 335.69 509.924 335.58Z" fill="#263238"/>
</svg>
