<?xml version="1.0" encoding="UTF-8" standalone="no"?>
<!-- Created with Inkscape (http://www.inkscape.org/) -->

<svg
   version="1.1"
   id="svg2"
   width="4761.04"
   height="2666.6667"
   viewBox="0 0 4761.04 2666.6667"
   sodipodi:docname="9176893_6672.eps"
   xmlns:inkscape="http://www.inkscape.org/namespaces/inkscape"
   xmlns:sodipodi="http://sodipodi.sourceforge.net/DTD/sodipodi-0.dtd"
   xmlns="http://www.w3.org/2000/svg"
   xmlns:svg="http://www.w3.org/2000/svg">
  <defs
     id="defs6" />
  <sodipodi:namedview
     id="namedview4"
     pagecolor="#ffffff"
     bordercolor="#000000"
     borderopacity="0.25"
     inkscape:showpageshadow="2"
     inkscape:pageopacity="0.0"
     inkscape:pagecheckerboard="0"
     inkscape:deskcolor="#d1d1d1" />
  <g
     id="g8"
     inkscape:groupmode="layer"
     inkscape:label="ink_ext_XXXXXX"
     transform="matrix(1.3333333,0,0,-1.3333333,0,2666.6667)">
    <g
       id="g10"
       transform="scale(0.1)">
      <path
         d="M 35707.8,0 H 0 V 20000 H 35707.8 V 0"
         style="fill:#ffffff;fill-opacity:1;fill-rule:nonzero;stroke:none"
         id="path12" />
      <path
         d="M 34469.2,962 H 896.023 c -86.21,0 -156.113,69.9 -156.113,156.1 v 0.1 c 0,86.2 69.895,156.1 156.106,156.1 H 34469.2 c 86.2,0 156.1,-69.9 156.1,-156.1 v 0 c 0,-86.3 -69.9,-156.2 -156.1,-156.2"
         style="fill:#95a6db;fill-opacity:1;fill-rule:nonzero;stroke:none"
         id="path14" />
      <path
         d="m 8321.55,15411.1 h 3923.05 c 309.4,0 560.3,250.9 560.3,560.3 v 1674.1 c 0,309.5 -250.9,560.3 -560.3,560.3 H 8321.55 c -309.46,0 -560.33,-250.8 -560.33,-560.3 v -1674.1 c 0,-309.4 250.87,-560.3 560.33,-560.3"
         style="fill:#b8c6f2;fill-opacity:1;fill-rule:nonzero;stroke:none"
         id="path16" />
      <path
         d="m 8475.47,15536.3 v -1040.4 c 0,-83.5 112.38,-110.4 150.21,-36 l 546.81,1076.4 h -697.02"
         style="fill:#b8c6f2;fill-opacity:1;fill-rule:nonzero;stroke:none"
         id="path18" />
      <path
         d="M 8418.9,17332.4 H 12100 c 141.6,0 256.3,114.8 256.3,256.3 v 0 c 0,141.6 -114.7,256.4 -256.3,256.4 H 8418.9 c -141.57,0 -256.33,-114.8 -256.33,-256.4 v 0 c 0,-141.5 114.76,-256.3 256.33,-256.3"
         style="fill:#ffffff;fill-opacity:1;fill-rule:nonzero;stroke:none"
         id="path20" />
      <path
         d="M 8418.9,16519.3 H 12100 c 141.6,0 256.3,114.7 256.3,256.3 v 0 c 0,141.6 -114.7,256.3 -256.3,256.3 H 8418.9 c -141.57,0 -256.33,-114.7 -256.33,-256.3 v 0 c 0,-141.6 114.76,-256.3 256.33,-256.3"
         style="fill:#ffffff;fill-opacity:1;fill-rule:nonzero;stroke:none"
         id="path22" />
      <path
         d="m 8381.26,15706.2 h 2362.34 c 120.7,0 218.6,97.9 218.6,218.6 v 75.3 c 0,120.8 -97.9,218.7 -218.6,218.7 H 8381.26 c -120.78,0 -218.69,-97.9 -218.69,-218.7 v -75.3 c 0,-120.7 97.91,-218.6 218.69,-218.6"
         style="fill:#ffffff;fill-opacity:1;fill-rule:nonzero;stroke:none"
         id="path24" />
      <path
         d="m 28282.3,6680.8 c -0.4,40.1 -0.7,76.4 -1,108.7 -1,109.5 -41,214.7 -112.7,297.4 -852.4,979.4 -4432,5254.9 -5576.5,6332.7 -354.7,337.2 -969.4,428.5 -1984.4,428.5 0,0 -16367.38,0 -16985.55,0 -1078.28,0 -1464.63,-583 -1464.63,-1815.8 0,-881.5 80.82,-7006.2 80.82,-7006.2 0,0 182.34,-2163.6 560.78,-2304.7 77.19,-28.8 25096.98,-184.2 25262.08,89.8 165.1,273.9 217.2,2035 217.2,2035 1.8,148.8 3.3,296.3 4.3,440.1 4,575.9 1.8,1092.2 -0.4,1394.5"
         style="fill:#b8c6f2;fill-opacity:1;fill-rule:nonzero;stroke:none"
         id="path26" />
      <path
         d="m 28283.7,5058.4 c 0,0 21.8,-2039.3 -115.3,-2232.8 -155.4,-164.9 -392.9,-268.1 -651.1,-282.8 -271.1,-37.2 -2398.9,-19.9 -2398.9,-19.9 0,0 -21954.77,163.8 -22319.28,198.5 -364.51,34.7 -507.82,270.4 -520.28,607.8 0,72 -34.27,1195.8 -40.5,1835.9 L 28283.7,5058.4"
         style="fill:#5e8adb;fill-opacity:1;fill-rule:nonzero;stroke:none"
         id="path28" />
      <path
         d="m 23585.5,6114.1 c -1336.5,0 -2419.9,-1083.4 -2419.9,-2419.9 0,-1336.5 1083.4,-2419.9 2419.9,-2419.9 1336.5,0 2420,1083.4 2420,2419.9 0,1336.5 -1083.5,2419.9 -2420,2419.9"
         style="fill:#3a3d96;fill-opacity:1;fill-rule:nonzero;stroke:none"
         id="path30" />
      <path
         d="m 23585.5,5458.7 c -974.5,0 -1764.5,-790 -1764.5,-1764.5 0,-974.5 790,-1764.5 1764.5,-1764.5 974.5,0 1764.5,790 1764.5,1764.5 0,974.5 -790,1764.5 -1764.5,1764.5"
         style="fill:#b8c6f2;fill-opacity:1;fill-rule:nonzero;stroke:none"
         id="path32" />
      <path
         d="m 23585.5,4645.5 c -525.4,0 -951.3,-425.9 -951.3,-951.3 0,-525.4 425.9,-951.3 951.3,-951.3 525.4,0 951.3,425.9 951.3,951.3 0,525.4 -425.9,951.3 -951.3,951.3"
         style="fill:#98b0f2;fill-opacity:1;fill-rule:nonzero;stroke:none"
         id="path34" />
      <path
         d="m 5677.83,6114.1 c -1336.49,0 -2419.93,-1083.4 -2419.93,-2419.9 0,-1336.5 1083.44,-2419.9 2419.93,-2419.9 1336.5,0 2419.94,1083.4 2419.94,2419.9 0,1336.5 -1083.44,2419.9 -2419.94,2419.9"
         style="fill:#3a3d96;fill-opacity:1;fill-rule:nonzero;stroke:none"
         id="path36" />
      <path
         d="m 5677.83,5458.7 c -974.5,0 -1764.49,-790 -1764.49,-1764.5 0,-974.5 789.99,-1764.5 1764.49,-1764.5 974.5,0 1764.49,790 1764.49,1764.5 0,974.5 -789.99,1764.5 -1764.49,1764.5"
         style="fill:#b8c6f2;fill-opacity:1;fill-rule:nonzero;stroke:none"
         id="path38" />
      <path
         d="m 5677.83,4645.5 c -525.38,0 -951.29,-425.9 -951.29,-951.3 0,-525.4 425.91,-951.3 951.29,-951.3 525.38,0 951.29,425.9 951.29,951.3 0,525.4 -425.91,951.3 -951.29,951.3"
         style="fill:#98b0f2;fill-opacity:1;fill-rule:nonzero;stroke:none"
         id="path40" />
      <path
         d="m 24095.4,8765.5 h -4852.7 c -150,0 -271.5,121.6 -271.5,271.5 v 3224.8 c 0,246.5 199.8,446.4 446.4,446.4 h 1673.5 c 448.7,0 870.6,-213.1 1136.9,-574.2 l 2118.2,-2871.8 c 151.8,-205.8 4.9,-496.7 -250.8,-496.7"
         style="fill:#5e8adb;fill-opacity:1;fill-rule:nonzero;stroke:none"
         id="path42" />
      <path
         d="m 24814.3,9242 c 0,-385.7 -396.1,-698.3 -884.6,-698.3 -488.6,0 -884.7,312.6 -884.7,698.3 0,385.7 396.1,698.4 884.7,698.4 488.5,0 884.6,-312.7 884.6,-698.4"
         style="fill:#98b0f2;fill-opacity:1;fill-rule:nonzero;stroke:none"
         id="path44" />
      <path
         d="m 28282.7,5286.3 h -254 c -385.1,0 -697.2,312.3 -697.2,697.3 0,192.5 78,366.9 204.1,493 126.2,126.1 300.5,204.2 493.1,204.2 h 253.6 c 2.2,-302.3 4.4,-818.6 0.4,-1394.5"
         style="fill:#faaf16;fill-opacity:1;fill-rule:nonzero;stroke:none"
         id="path46" />
      <path
         d="m 9675.87,4626.5 h 7162.03 c 214.6,0 388.5,173.9 388.5,388.5 v 7770.1 c 0,214.5 -173.9,388.4 -388.5,388.4 H 9675.87 c -214.53,0 -388.45,-173.9 -388.45,-388.4 V 5015 c 0,-214.6 173.92,-388.5 388.45,-388.5"
         style="fill:#272a66;fill-opacity:1;fill-rule:nonzero;stroke:none"
         id="path48" />
      <path
         d="m 15341.2,4645.5 h -3430.8 v 6894.8 h 3430.8 V 4645.5"
         style="fill:#313480;fill-opacity:1;fill-rule:nonzero;stroke:none"
         id="path50" />
      <path
         d="m 13984.7,4645.5 h -3410.5 v 5294.9 h 3410.5 V 4645.5"
         style="fill:#3a3d96;fill-opacity:1;fill-rule:nonzero;stroke:none"
         id="path52" />
      <path
         d="m 16861.4,4645.5 h -3577 V 8442 h 3577 V 4645.5"
         style="fill:#4043a6;fill-opacity:1;fill-rule:nonzero;stroke:none"
         id="path54" />
      <path
         d="m 3623.26,4645.5 h 7162.04 c 214.5,0 388.5,173.9 388.5,388.5 v 7770.1 c 0,214.5 -174,388.4 -388.5,388.4 H 3623.26 c -214.54,0 -388.46,-173.9 -388.46,-388.4 V 5034 c 0,-214.6 173.92,-388.5 388.46,-388.5"
         style="fill:#98b0f2;fill-opacity:1;fill-rule:nonzero;stroke:none"
         id="path56" />
      <path
         d="m 11173.8,6680.8 h -7939 v 787.9 h 7939 v -787.9"
         style="fill:#b8c6f2;fill-opacity:1;fill-rule:nonzero;stroke:none"
         id="path58" />
      <path
         d="M 9777.86,8765.5 H 4452.9 c -314.31,0 -569.1,254.8 -569.1,569.1 v 2804.5 c 0,314.3 254.79,569.1 569.1,569.1 h 5324.96 c 314.34,0 569.14,-254.8 569.14,-569.1 V 9334.6 c 0,-314.3 -254.8,-569.1 -569.14,-569.1"
         style="fill:#5e8adb;fill-opacity:1;fill-rule:nonzero;stroke:none"
         id="path60" />
      <path
         d="m 3746.97,6241.1 c -242.98,523.7 367.95,1183.8 76.55,1682.1 -181,309.5 -656.63,422.3 -709.63,776.9 -15.78,105.7 12.49,212.2 27.4,318 58.22,412.7 -101.49,850 -412.01,1128.2 -309.73,277.3 -760.41,388.1 -1163.5,286.3 l -0.08,0.2 c -0.49,-0.2 -0.97,-0.4 -1.47,-0.6 -0.52,-0.1 -1.04,-0.2 -1.55,-0.3 l 0.06,-0.3 c -389.29,-146.2 -716.029,-500.5 -812.244,-905 -96.441,-405.5 21.777,-855.8 305.034,-1161.7 72.58,-78.3 156.54,-149.7 203.84,-245.5 158.72,-321.5 -167.64,-685.4 -139.78,-1042.9 44.86,-575.5 923.16,-769.3 1022.25,-1338 26.13,-150 -8.93,-303.3 -11.96,-455.5 -13.22,-664.6 708.77,-1235.1 1352.35,-1068.6 l 32.97,10.4 c 623.63,230.2 891.31,1110.6 501.37,1649 -89.31,123.3 -205.5,229.2 -269.6,367.3"
         style="fill:#17962e;fill-opacity:1;fill-rule:nonzero;stroke:none"
         id="path62" />
      <path
         d="M 1604.24,10399.1 4130.55,2628.4 c 20.25,-62.4 -13.84,-129.3 -76.16,-149.6 -62.32,-20.2 -129.25,13.9 -149.52,76.2 -0.2,0.6 -0.57,1.8 -0.77,2.5 l -2356.85,7823.7 c -4.76,15.8 4.18,32.5 19.98,37.2 15.56,4.7 31.99,-4 37.01,-19.3"
         style="fill:#068a1e;fill-opacity:1;fill-rule:nonzero;stroke:none"
         id="path64" />
      <path
         d="m 1819.42,6786.6 c 516.67,88.6 934.86,-310 1183.14,-719.3 59.7,-91.9 -91.21,-178.5 -139.98,-79.5 -175.7,351.7 -447.18,722.2 -865.71,772.7 -21.34,12.9 -221.41,-4.2 -177.45,26.1"
         style="fill:#068a1e;fill-opacity:1;fill-rule:nonzero;stroke:none"
         id="path66" />
      <path
         d="m 1052.12,9237 c 514.74,82.3 926.17,-317.6 1168.41,-727.7 45.79,-72.1 -71.64,-139.7 -110.51,-62.7 -181.02,351.3 -458.94,720.7 -880.28,766.4 -21.25,12.6 -222.29,-6.7 -177.62,24"
         style="fill:#068a1e;fill-opacity:1;fill-rule:nonzero;stroke:none"
         id="path68" />
      <path
         d="m 3210.26,7979.4 c -429.66,-250.8 -473.5,-796.3 -409.81,-1242.5 11,-76 -109.44,-91.9 -117.79,-14.9 -22.6,412.2 19.64,899.3 368.78,1173.3 18.68,13.3 176.02,135.7 158.82,84.1"
         style="fill:#068a1e;fill-opacity:1;fill-rule:nonzero;stroke:none"
         id="path70" />
      <path
         d="m 4994,6244 c 201.27,413.4 -275.39,948.1 -35.92,1340.6 148.72,243.8 529.15,326.5 576.63,608.1 14.14,83.9 -6.78,169.2 -17.09,253.6 -40.22,329.6 93.45,675.4 344.87,892.3 250.77,216.3 611.3,297.8 930.77,210.7 l 0.06,0.1 c 0.39,-0.1 0.77,-0.3 1.17,-0.4 0.4,-0.1 0.82,-0.2 1.23,-0.4 l -0.06,-0.1 c 307.83,-122.3 562.74,-409.2 633.33,-732.8 70.78,-324.3 -30.06,-681.2 -260.16,-920.5 -58.97,-61.3 -126.9,-116.9 -165.98,-192.5 -131.17,-253.6 123.28,-548.3 95.78,-832.5 -44.27,-457.7 -746.56,-598.9 -833.92,-1050.3 -23.05,-119.1 2.59,-241.6 2.74,-362.9 0.65,-529.5 -582.78,-973 -1092.78,-830.8 l -26.1,8.7 c -493.18,192.6 -693.24,897.7 -374.72,1320.6 72.97,96.9 167.06,179.5 220.15,288.5"
         style="fill:#17962e;fill-opacity:1;fill-rule:nonzero;stroke:none"
         id="path72" />
      <path
         d="M 6762.14,9523.2 4634.82,3372.9 c -17.07,-49.4 9.09,-103.2 58.41,-120.3 49.33,-17 103.14,9.1 120.2,58.5 0.16,0.5 0.49,1.4 0.65,1.9 l 1993.18,6195.1 c 4.01,12.5 -2.86,25.9 -15.37,29.9 -12.32,4 -25.52,-2.7 -29.75,-14.8"
         style="fill:#068a1e;fill-opacity:1;fill-rule:nonzero;stroke:none"
         id="path74" />
      <path
         d="m 6537.04,6649.7 c -298.13,55.8 -586.55,-98.6 -775.36,-322.5 -51.75,-90.7 -247.14,-217.2 -159.66,-321.6 211.24,-31.3 205.5,619.1 935.02,644.1"
         style="fill:#068a1e;fill-opacity:1;fill-rule:nonzero;stroke:none"
         id="path76" />
      <path
         d="m 7184.5,8589.6 c -408.66,73.2 -742.24,-239.2 -941.23,-562.1 -37.55,-56.7 54.96,-112.3 87.06,-51.6 149.37,277.1 376.17,567.1 712.38,597.2 19.91,10.6 171.62,-9.9 141.79,16.5"
         style="fill:#068a1e;fill-opacity:1;fill-rule:nonzero;stroke:none"
         id="path78" />
      <path
         d="m 5447.25,7620.2 c 338.41,-206 365.2,-641.1 307.85,-995.5 -9.89,-60.3 85.78,-74.8 93.59,-13.6 24.12,328 -2.28,716.4 -276.23,939.8 -16.62,11.6 -134.73,109.4 -125.21,69.3"
         style="fill:#068a1e;fill-opacity:1;fill-rule:nonzero;stroke:none"
         id="path80" />
      <path
         d="m 5246.04,7125.8 c -75.4,572.3 704.88,1019.7 575.7,1582.4 -80.24,349.4 -500.42,599.2 -445.03,953.5 16.5,105.5 75.31,198.7 121.16,295.2 178.9,376.5 157.17,841.5 -56.05,1199.7 -212.7,357.3 -609.67,597.7 -1024.79,621 v 0.2 c -0.53,0 -1.05,-0.1 -1.58,-0.1 -0.53,0 -1.06,0.1 -1.58,0.1 v -0.2 c -415.23,-23.3 -832.89,-263.7 -1045.59,-621 -213.22,-358.2 -234.96,-823.2 -56.05,-1199.7 45.85,-96.5 104.65,-189.7 121.16,-295.2 55.39,-354.3 -364.8,-604.1 -445.03,-953.5 -129.18,-562.7 651.09,-1010.1 575.69,-1582.4 -19.89,-151 -99.13,-286.7 -147.52,-431.1 -211.23,-630.3 307.3,-1880.6 971.24,-1913.9 h 34.55 c 663.95,33.3 1182.47,1283.6 971.24,1913.9 -48.38,144.4 -127.62,280.1 -147.52,431.1"
         style="fill:#068a1e;fill-opacity:1;fill-rule:nonzero;stroke:none"
         id="path82" />
      <path
         d="m 4443.72,11734.1 88.78,-8170.6 c 0.71,-65.5 -51.83,-119.2 -117.34,-119.9 -65.53,-0.7 -119.22,51.8 -119.95,117.3 0,0.7 0,1.9 0,2.6 l 88.79,8170.6 c 0.18,16.5 13.7,29.7 30.18,29.5 16.27,-0.2 29.35,-13.3 29.54,-29.5"
         style="fill:#17962e;fill-opacity:1;fill-rule:nonzero;stroke:none"
         id="path84" />
      <path
         d="m 3579.8,8202.1 c 377.27,-52.1 659.36,-350.7 795.24,-692.4 25.59,-128.5 208.01,-356.9 62.3,-446.5 -258.38,27.9 3.85,818 -857.54,1138.9"
         style="fill:#17962e;fill-opacity:1;fill-rule:nonzero;stroke:none"
         id="path86" />
      <path
         d="m 3569.57,10790.1 c 515.82,-75.2 788.95,-579.9 897.58,-1043.5 22.16,-82.6 -110.12,-112 -124.22,-26.9 -67.73,389.4 -222.6,824.9 -611.04,994.4 -16.51,18.4 -214.1,60.1 -162.32,76"
         style="fill:#17962e;fill-opacity:1;fill-rule:nonzero;stroke:none"
         id="path88" />
      <path
         d="m 5222.62,8945.1 c -352.58,-80.9 -582.01,-392.2 -679.77,-724.9 -64.05,-99.9 -24.41,-369.3 -151.64,-386.5 -123.42,70.4 45.92,306.9 64,418.4 112.07,318.5 442.98,714.1 767.41,693"
         style="fill:#17962e;fill-opacity:1;fill-rule:nonzero;stroke:none"
         id="path90" />
      <path
         d="M 5186.6,3911.9 H 3244.18 c -152.17,0 -270.12,-137 -251.97,-292.6 l 261.78,-2243.6 c 15.33,-131.4 123.52,-230.2 251.97,-230.2 h 1418.86 c 128.44,0 236.64,98.8 251.96,230.2 l 261.78,2243.6 c 18.16,155.6 -99.8,292.6 -251.96,292.6"
         style="fill:#e62552;fill-opacity:1;fill-rule:nonzero;stroke:none"
         id="path92" />
      <path
         d="M 5597.03,3417.4 H 2896.18 c -67.37,0 -121.98,54.6 -121.98,122 v 291.7 c 0,67.4 54.61,122 121.98,122 h 2700.85 c 67.36,0 121.97,-54.6 121.97,-122 v -291.7 c 0,-67.4 -54.61,-122 -121.97,-122"
         style="fill:#c4204a;fill-opacity:1;fill-rule:nonzero;stroke:none"
         id="path94" />
      <path
         d="m 7031.51,12980.8 h 0.42 l 354.16,-1.3 80.22,-836.6 -413.44,-218.2 -440.87,215.8 71.25,839 348.26,1.3"
         style="fill:#f37a50;fill-opacity:1;fill-rule:nonzero;stroke:none"
         id="path96" />
      <path
         d="m 6327.67,13577.4 c 80.56,-606.6 532.1,-1047.1 1008.53,-983.8 476.43,63.3 797.33,606.3 716.76,1213 -80.57,606.6 -532.1,1047 -1008.53,983.7 C 6568,14727.1 6247.1,14184 6327.67,13577.4"
         style="fill:#f37a50;fill-opacity:1;fill-rule:nonzero;stroke:none"
         id="path98" />
      <path
         d="m 7490.29,13564.2 c 87.63,-114.2 198.12,-253.1 198.12,-253.1 0,0 -32.11,-132.4 -200.94,-150.5 68.69,36.5 134.79,91.4 96.45,184 -38.34,92.5 -93.63,219.6 -93.63,219.6"
         style="fill:#de623c;fill-opacity:1;fill-rule:nonzero;stroke:none"
         id="path100" />
      <path
         d="m 6131.14,14065.1 c -51.67,577.9 479.8,767.7 479.8,767.7 0,0 -119.04,41.9 -90.17,216.6 83.97,-51.6 186.69,-75.5 284.76,-65.8 660.81,65.5 1076.76,-43.2 1011,-302.2 -23.39,-92.1 405.26,-139.3 214.35,-750.8 -40.86,72.2 -77.58,343.2 -206.08,402.9 -128.95,59.9 -52.44,-151.6 -344.29,-118.7 -294.5,33.1 -486.2,155.3 -700.76,39 -171.55,-105.4 -386.1,-809.1 -376.28,-857.2 -22.47,110.3 -249.61,414.5 -272.33,668.5"
         style="fill:#201d40;fill-opacity:1;fill-rule:nonzero;stroke:none"
         id="path102" />
      <path
         d="m 8057.62,13475.4 c 0,0 -56.28,-329.7 -128.25,-417.7 -15.59,141.9 -326.89,52.6 -462.16,40.7 -244.96,-21.5 -493.63,195.9 -576.15,-125.8 -311.94,-18.1 -425.48,668.6 -425.48,668.6 -191.89,-686.3 151.65,-1186.8 907.95,-1256.5 498.28,-46 774.25,590 684.09,1090.7"
         style="fill:#201d40;fill-opacity:1;fill-rule:nonzero;stroke:none"
         id="path104" />
      <path
         d="m 7136.96,13600.1 c -46.4,-3.1 -86.55,32 -89.67,78.4 -3.12,46.4 31.98,86.5 78.38,89.7 46.41,3.1 86.56,-32 89.67,-78.4 3.13,-46.4 -31.97,-86.6 -78.38,-89.7"
         style="fill:#000000;fill-opacity:1;fill-rule:nonzero;stroke:none"
         id="path106" />
      <path
         d="m 7832.35,13625.8 c -46.4,-3.2 -86.55,31.9 -89.67,78.3 -3.12,46.5 31.98,86.6 78.38,89.7 46.41,3.1 86.56,-32 89.67,-78.4 3.13,-46.4 -31.97,-86.5 -78.38,-89.6"
         style="fill:#000000;fill-opacity:1;fill-rule:nonzero;stroke:none"
         id="path108" />
      <path
         d="m 7972.24,13801.6 c -14.24,-1 -28.6,5.4 -37.27,18 -23.86,34.7 -51.28,54.6 -81.49,59.2 -52.21,7.9 -100.87,-29.9 -101.36,-30.2 -18.06,-14.2 -44.31,-11.3 -58.62,6.7 -14.32,18 -11.52,44.1 6.38,58.5 3.1,2.5 76.61,60.7 165.18,47.8 54.37,-8 101.06,-39.8 138.76,-94.7 13.07,-19 8.26,-45 -10.75,-58.1 -6.4,-4.4 -13.61,-6.8 -20.83,-7.2"
         style="fill:#201d40;fill-opacity:1;fill-rule:nonzero;stroke:none"
         id="path110" />
      <path
         d="m 6947.02,13734.4 c -9.14,-0.6 -18.55,1.8 -26.65,7.5 -18.94,13.1 -23.59,39.2 -10.41,58.1 50.2,72.1 108.34,113.4 172.8,122.8 83.18,12.1 144.12,-35.7 146.68,-37.7 18.04,-14.4 20.99,-40.7 6.6,-58.7 -14.33,-18 -40.41,-21 -58.43,-6.8 -1.3,1 -37.41,27.5 -83.87,20.3 -40.31,-6.3 -79.07,-35.7 -115.21,-87.6 -7.54,-10.9 -19.29,-17 -31.51,-17.9"
         style="fill:#201d40;fill-opacity:1;fill-rule:nonzero;stroke:none"
         id="path112" />
      <path
         d="m 6457.6,13638.4 c 104.26,-99.2 122.99,-248.7 41.82,-334 -81.16,-85.4 -231.47,-74.1 -335.73,25 -104.27,99.2 -123,248.8 -41.84,334.1 81.17,85.3 231.48,74.1 335.75,-25.1"
         style="fill:#f37a50;fill-opacity:1;fill-rule:nonzero;stroke:none"
         id="path114" />
      <path
         d="m 6363.42,13345 c 4.42,1.7 8.53,4.4 11.96,8.1 49.14,53.4 59.67,117.9 28.17,172.5 -32.24,55.8 -99.38,86.6 -159.63,73.1 -16.96,-3.8 -27.63,-20.6 -23.84,-37.5 3.8,-17 20.61,-27.7 37.57,-23.9 33.01,7.4 73.16,-11.6 91.41,-43.2 17.53,-30.4 10.43,-65.3 -20,-98.4 -11.76,-12.8 -10.93,-32.7 1.86,-44.4 9.07,-8.4 21.72,-10.4 32.5,-6.3"
         style="fill:#de623c;fill-opacity:1;fill-rule:nonzero;stroke:none"
         id="path116" />
      <path
         d="m 7194.59,13003.9 c -3.48,21.7 1.4,42.3 23.18,39.5 55.38,-7 146.98,-16.8 234.48,-17.5 87.49,-0.7 179.21,7.6 234.71,13.7 21.83,2.5 27,-18.3 22.55,-39.8 -18.4,-89.1 -119.41,-188.5 -253.52,-187.4 -134.11,1.1 -248.45,110.8 -261.4,191.5"
         style="fill:#ffffff;fill-opacity:1;fill-rule:nonzero;stroke:none"
         id="path118" />
      <path
         d="M 7677.81,2025.6 C 7990.97,1593.5 8760,1858.7 8734.54,1274.3 h -1655.5 c 1.54,134.2 24.66,452.8 51.62,577.5 l 547.15,173.8"
         style="fill:#000000;fill-opacity:1;fill-rule:nonzero;stroke:none"
         id="path120" />
      <path
         d="M 5928.08,2025.6 C 6241.23,1593.5 7010.26,1858.7 6984.8,1274.3 H 5329.31 c 1.53,134.2 24.65,452.8 51.63,577.5 l 547.14,173.8"
         style="fill:#000000;fill-opacity:1;fill-rule:nonzero;stroke:none"
         id="path122" />
      <path
         d="m 8219.19,8633.3 c 0,0 189.87,-2769.3 112.73,-3385 -77.13,-615.7 -350.27,-1405 -319.32,-3441.4 -381.23,-95.4 -933.56,0 -933.56,0 0,0 -81.89,2302.7 321.12,3331.1 -163.87,999.1 -689.74,3287.2 -689.74,3287.2 l 1508.77,208.1"
         style="fill:#062440;fill-opacity:1;fill-rule:nonzero;stroke:none"
         id="path124" />
      <path
         d="m 7497.58,8557.5 c 0,0 -383.4,-3108.9 -571.08,-3698.6 -187.67,-589.7 -350.99,-1021.7 -690.78,-3027.8 -391.77,-19.6 -957.62,-7.5 -957.62,-7.5 0,0 51.21,2485.5 661.38,3064.2 20.66,1013.1 -98.66,3649.8 -98.66,3649.8 l 1656.76,19.9"
         style="fill:#2c2858;fill-opacity:1;fill-rule:nonzero;stroke:none"
         id="path126" />
      <path
         d="m 5730.15,12086 c 0,0 665.89,233.1 887.94,126.2 689.96,-332.2 848.22,0 848.22,0 220.48,-19 886.03,-126.2 886.03,-126.2 0,-743.3 49.63,-1489.1 36.1,-2051.6 -9.52,-489.8 83.82,-1822.8 83.82,-1822.8 0,0 -734.14,-192.4 -1428.65,-197.5 -694.51,4.6 -1401.36,189.7 -1401.36,189.7 0,0 37.09,1350.1 67.94,1851.9 -10.03,562.5 19.96,1289 19.96,2030.3"
         style="fill:#e62552;fill-opacity:1;fill-rule:nonzero;stroke:none"
         id="path128" />
      <path
         d="m 9536.03,10981.3 c -274.86,655.8 -1090.46,1072.9 -1183.69,1104.7 l -189.18,-841.9 c 391.83,-231.7 676.23,-482.4 676.23,-482.4 -48.21,-234.4 -40.14,-464.3 -175.85,-760.7 0,0 117.85,162.6 263.24,66.3 141.34,-93.5 401.28,97.5 401.28,97.5 0,0 417.91,315.6 207.97,816.5"
         style="fill:#c4204a;fill-opacity:1;fill-rule:nonzero;stroke:none"
         id="path130" />
      <path
         d="m 9382.86,9324.1 c 4.75,-1.5 9.52,-2.4 14.28,-2.9 h 15.64 c 28.66,3 54.16,22.6 63.26,51.9 l 732.76,2362.3 c 1.5,4.8 2.4,9.6 2.9,14.3 0.3,3.2 0.1,6.3 0.1,9.4 -0.1,1.8 0.2,3.7 0,5.6 -0.2,1.6 -0.7,3.2 -1,4.8 -4.4,26.9 -23.2,50.4 -50.9,59 -4.5,1.4 -9.1,2.5 -14,3 -5.4,0.6 -10.7,0.6 -15.9,0 H 8285.47 L 7546.3,9321.2 h 1837.83 l -1.27,2.9"
         style="fill:#80bc48;fill-opacity:1;fill-rule:nonzero;stroke:none"
         id="path132" />
      <path
         d="m 8302.25,11828.6 c -39.27,12.2 -80.98,-9.8 -93.18,-49 l -728.12,-2356.5 -1.65,-5.5 c -12.08,-39.1 9.71,-80.6 48.69,-92.9 l 0.08,-0.1 c 39.26,-12.2 80.97,9.7 93.17,48.9 l 730.01,2361.9 c 12.2,39.3 -9.74,81 -49,93.2"
         style="fill:#17962e;fill-opacity:1;fill-rule:nonzero;stroke:none"
         id="path134" />
      <path
         d="m 9695.82,10329.8 c 6.89,4.6 14.39,7.5 22.08,9.6 -0.79,1.2 -1.65,2.3 -2.43,3.4 -45.9,69.3 -42.82,152 6.83,184.9 8.16,5.4 17.11,9 26.5,11.1 -12.91,51.3 -1.34,100.2 34.12,123.7 14.08,9.3 30.42,13.5 47.62,13.3 -16.22,50.4 -3.34,103.2 36.36,129.5 49.67,32.9 121.69,11.7 160.9,-47.4 39.1,-59.1 30.6,-133.7 -19,-166.6 -12.63,-8.3 -26.63,-13.1 -41.18,-14.8 33.08,-64.4 26.38,-134.9 -18.52,-164.7 -8.15,-5.4 -17.11,-8.9 -26.48,-11.1 12.9,-51.2 1.34,-100.1 -34.13,-123.6 -13.08,-8.7 -28.11,-12.9 -43.95,-13.4 16.42,-44 5.99,-91.5 -28.92,-114.6 -41.96,-27.8 -102.79,-9.8 -135.86,40.1 -33.08,49.9 -25.89,112.9 16.06,140.6"
         style="fill:#f37a50;fill-opacity:1;fill-rule:nonzero;stroke:none"
         id="path136" />
      <path
         d="m 7428.1,10479.1 168.15,97.5 c 0,0 46.55,238.5 316.57,244.2 -30.93,-100.1 -75.47,-244.2 -75.47,-244.2 0,0 132.9,-103.2 448.12,73.4 308.13,69.2 176.51,-155.4 278.63,-171.6 150.7,-23.8 -109.84,-319.9 -417.51,-365.2 -398.11,-58.7 -445.35,22.8 -445.35,22.8 l -225.27,-78.7 -47.87,421.8"
         style="fill:#f37a50;fill-opacity:1;fill-rule:nonzero;stroke:none"
         id="path138" />
      <path
         d="m 5708.49,10201.7 c 562,39.3 1684.39,339.5 1684.39,339.5 153.42,-235.3 110.99,-547.9 110.99,-547.9 -872.79,-765.2 -2186.32,-1012.5 -2589.36,-828.4 -367.94,168.2 -106.57,2408.6 817.26,2921.7 l -23.28,-1884.9"
         style="fill:#c4204a;fill-opacity:1;fill-rule:nonzero;stroke:none"
         id="path140" />
      <path
         d="m 8678.16,11469.9 c -31.84,-79.8 -113.7,-122.1 -182.82,-94.5 -69.12,27.7 -99.34,114.7 -67.5,194.4 31.85,79.8 113.7,122.1 182.82,94.5 69.13,-27.6 99.35,-114.7 67.5,-194.4"
         style="fill:#17962e;fill-opacity:1;fill-rule:nonzero;stroke:none"
         id="path142" />
      <path
         d="m 8913.62,11497 c -18.99,-47.6 -67.82,-72.9 -109.06,-56.4 -41.24,16.5 -59.27,68.4 -40.26,116 18.99,47.6 67.82,72.8 109.06,56.3 41.23,-16.4 59.27,-68.4 40.26,-115.9"
         style="fill:#17962e;fill-opacity:1;fill-rule:nonzero;stroke:none"
         id="path144" />
      <path
         d="m 15685.6,1274.3 h -3754.9 v 4654.3 h 3754.9 V 1274.3"
         style="fill:#de8914;fill-opacity:1;fill-rule:nonzero;stroke:none"
         id="path146" />
      <path
         d="M 12704.4,1274.3 H 8861.11 V 7030.9 H 12704.4 V 1274.3"
         style="fill:#ff9a16;fill-opacity:1;fill-rule:nonzero;stroke:none"
         id="path148" />
      <path
         d="m 14241.7,1274.3 h -3924.6 v 3924.5 h 3924.6 V 1274.3"
         style="fill:#faaf16;fill-opacity:1;fill-rule:nonzero;stroke:none"
         id="path150" />
      <path
         d="m 13732.1,3809.5 h -1821.7 v 745.9 h 1821.7 v -745.9"
         style="fill:#fac352;fill-opacity:1;fill-rule:nonzero;stroke:none"
         id="path152" />
      <path
         d="m 11652.5,3220.9 -695.7,-385.1 -385.1,695.8 695.8,385 385,-695.7"
         style="fill:#ff9a16;fill-opacity:1;fill-rule:nonzero;stroke:none"
         id="path154" />
      <path
         d="m 11173.8,2975.5 c 0,-252.2 204.4,-456.6 456.6,-456.6 252.2,0 456.6,204.4 456.6,456.6 0,252.2 -204.4,456.7 -456.6,456.7 -252.2,0 -456.6,-204.5 -456.6,-456.7"
         style="fill:#fac352;fill-opacity:1;fill-rule:nonzero;stroke:none"
         id="path156" />
      <path
         d="m 16696.1,17417.8 c 29.6,660.9 574.8,1187.6 1243,1187.6 225.6,0 437.2,-60 619.6,-165 v 0 c 22.7,325.3 293.6,582.1 624.6,582.1 296.8,0 545.4,-206.5 609.9,-483.7 v 0 c 79.2,19.1 161.8,29.2 246.8,29.2 447.5,0 829.8,-279.4 981.9,-673.3 89.3,35.4 186.6,54.8 288.6,54.8 244.6,0 463.1,-111.9 607,-287.3 80,-97.5 8.8,-244.4 -117.3,-244.4 h -5104.1"
         style="fill:#e3eaff;fill-opacity:1;fill-rule:nonzero;stroke:none"
         id="path158" />
      <path
         d="m 30156.2,15723.7 c 0,-6.8 -0.1,-13.6 -0.2,-20.3 h -2347.8 c 66.4,229 277.8,396.4 528.2,396.4 57.4,0 112.7,-8.8 164.6,-25 134.6,302.6 437.9,513.7 790.4,513.7 477.7,0 864.8,-387.2 864.8,-864.8"
         style="fill:#e3eaff;fill-opacity:1;fill-rule:nonzero;stroke:none"
         id="path160" />
      <path
         d="m 27637.7,14191.7 c 0,-9 -0.1,-18 -0.5,-26.9 h -4051.1 c -0.4,8.9 -0.6,17.9 -0.6,26.9 0,395.7 320.8,716.6 716.5,716.6 74.8,0 146.8,-11.5 214.5,-32.7 175.3,394.3 570.5,669.2 1029.8,669.2 477,0 884.6,-296.3 1049.1,-714.7 97.8,50 208.5,78.2 325.8,78.2 395.7,0 716.5,-320.9 716.5,-716.6"
         style="fill:#e3eaff;fill-opacity:1;fill-rule:nonzero;stroke:none"
         id="path162" />
      <path
         d="m 4581.16,15076.3 c 0,-9 -0.16,-18 -0.56,-26.9 H 529.531 c -0.398,8.9 -0.566,17.9 -0.566,26.9 0,395.7 320.808,716.5 716.515,716.5 74.73,0 146.75,-11.4 214.43,-32.6 175.34,394.3 570.49,669.2 1029.87,669.2 476.93,0 884.56,-296.3 1049.01,-714.7 97.81,49.9 208.51,78.1 325.86,78.1 395.7,0 716.51,-320.8 716.51,-716.5"
         style="fill:#e3eaff;fill-opacity:1;fill-rule:nonzero;stroke:none"
         id="path164" />
      <path
         d="m 30996.5,15716.8 -90,322.4 c 0,0 -226.4,-61.9 -281.8,91.8 l 221.3,102.4 c 0,0 70.5,163.4 -216.7,435.6 -172.6,299.7 105.1,235.2 88.7,347.2 -24.1,165.3 370.3,-10.8 517.8,-317.8 190.8,-397.2 122.8,-818.2 122.8,-818.2 l -362.1,-163.4"
         style="fill:#f37a50;fill-opacity:1;fill-rule:nonzero;stroke:none"
         id="path166" />
      <path
         d="m 25403.3,12387.1 -110.1,276.8 c 0,0 193.6,362.3 -33.7,441.9 -61.3,21.5 3.1,-261.6 -121.3,-214.8 -26,9.7 -64.9,135.2 -109.5,328 -4.7,201.1 -172.9,285.9 -262.4,291.9 -166.7,11.3 -319.3,-255.3 -214,-579.1 136.4,-419.1 476.3,-676.6 476.3,-676.6 l 374.7,131.9"
         style="fill:#f37a50;fill-opacity:1;fill-rule:nonzero;stroke:none"
         id="path168" />
      <path
         d="m 28251.6,2035.6 c -326.8,-459.8 -1129.5,-177.7 -1102.9,-799.5 1220.6,8 1727.9,0 1727.9,0 -1.6,142.8 -25.8,481.8 -53.9,614.5 l -571.1,185"
         style="fill:#000000;fill-opacity:1;fill-rule:nonzero;stroke:none"
         id="path170" />
      <path
         d="m 30077.9,2023.5 c -326.9,-459.7 -1129.5,-177.6 -1103,-799.5 1220.7,8 1728,0 1728,0 -1.6,142.9 -25.8,481.8 -53.9,614.6 l -571.1,184.9"
         style="fill:#000000;fill-opacity:1;fill-rule:nonzero;stroke:none"
         id="path172" />
      <path
         d="m 27686.6,9054.4 c 0,0 -198.2,-2946.7 -117.7,-3601.8 80.5,-655.1 365.6,-1494.9 333.3,-3661.8 397.9,-101.6 974.4,0 974.4,0 0,0 85.5,2450.1 -335.2,3544.5 171.1,1063 719.9,3497.8 719.9,3497.8 l -1574.7,221.3"
         style="fill:#0e6a41;fill-opacity:1;fill-rule:nonzero;stroke:none"
         id="path174" />
      <path
         d="m 28278.1,8973.9 c 0,0 400.1,-3308.2 596,-3935.6 195.9,-627.5 474.6,-1069.1 829.2,-3203.7 409,-20.9 999.6,-3.6 999.6,-3.6 0,0 -161.7,2622.3 -798.6,3238.1 -21.6,1078 103,3883.5 103,3883.5 l -1729.2,21.3"
         style="fill:#3f964f;fill-opacity:1;fill-rule:nonzero;stroke:none"
         id="path176" />
      <path
         d="m 29822.2,12947.3 c 0,0 36.1,-8.7 1424.1,925.1 0.4,0.2 0.9,0.3 1.4,0.2 l 735.7,-214.9 c 0.8,-0.3 1.4,-1.2 1.1,-2.1 -199.9,-616.5 -2071.4,-2020 -2071.4,-2020 l -90.9,1311.7"
         style="fill:#95a6db;fill-opacity:1;fill-rule:nonzero;stroke:none"
         id="path178" />
      <path
         d="m 29121.4,13308.6 -579.3,93.4 -574.5,-119.6 591.7,-696.3 562.1,722.5"
         style="fill:#607edb;fill-opacity:1;fill-rule:nonzero;stroke:none"
         id="path180" />
      <path
         d="m 28908.7,12970.2 c -229.1,-178.9 -471.6,-255.5 -723.7,-74.2 l -34.8,891.6 755.7,9 2.8,-826.4"
         style="fill:#f37a50;fill-opacity:1;fill-rule:nonzero;stroke:none"
         id="path182" />
      <path
         d="m 27797.1,12980.1 v 0 l 177.3,56.8 -6.8,245.6 453.5,-416.9 133.9,-30.6 132.3,36.6 434.1,437 4.3,-245.6 150.4,-40.7 v 0 l 637,-87.5 v -2831.7 l 237.8,-1309.7 c -745.7,-193.9 -1856.5,-204.3 -2651,-40.2 l 131.4,1193.4 -252.9,2872.3 418.7,161.2"
         style="fill:#95a6db;fill-opacity:1;fill-rule:nonzero;stroke:none"
         id="path184" />
      <path
         d="m 28527.7,12519.4 c 0,0 79.6,-1731.8 210,-2618.3 -42.1,-50.9 -232,-280.6 -232,-280.6 0,0 -230.6,218.5 -293,258 -141.9,1562.7 113.8,2632.7 113.8,2632.7 l 201.2,8.2"
         style="fill:#e62552;fill-opacity:1;fill-rule:nonzero;stroke:none"
         id="path186" />
      <path
         d="m 28673.3,12820.6 -244.3,63 -178.8,-71.4 76.3,-301 216.2,0.7 130.6,308.7"
         style="fill:#c4204a;fill-opacity:1;fill-rule:nonzero;stroke:none"
         id="path188" />
      <path
         d="m 28429,12883.6 c 0,0 196.8,-260.5 375.9,-363.9 l 459.9,487.8 -141.4,301.4 -694.4,-425.3"
         style="fill:#ffffff;fill-opacity:1;fill-rule:nonzero;stroke:none"
         id="path190" />
      <path
         d="m 28429,12883.6 c 0,0 -155.6,-226.2 -358.2,-375.8 l -358.3,448.8 255.1,325.8 461.4,-398.8"
         style="fill:#ffffff;fill-opacity:1;fill-rule:nonzero;stroke:none"
         id="path192" />
      <path
         d="m 31393.3,15950.8 c -263.9,-52.1 -399.6,-85.1 -572.2,-183.1 282.6,-1447.5 252,-2070.7 571.5,-2350.9 266.4,-233.5 573.2,-28.5 605.7,278.4 43,404.8 -395,1601.3 -605,2255.6"
         style="fill:#95a6db;fill-opacity:1;fill-rule:nonzero;stroke:none"
         id="path194" />
      <path
         d="m 27378.4,12818.9 c -357.1,159 -1574.4,-1283.2 -1574.4,-1283.2 l -326.3,1066.2 -652.3,-348.8 c 0,0 398,-1736.3 841.3,-1809.9 414,-68.8 1822.7,972.8 1822.7,972.8 l -111,1402.9"
         style="fill:#95a6db;fill-opacity:1;fill-rule:nonzero;stroke:none"
         id="path196" />
      <path
         d="m 29142,13828.6 c 372,-44.2 566.4,430.8 566.4,430.8 227.8,37.7 189.4,264.5 189.4,264.5 108,33.2 252.1,149.2 205.7,355.5 -39.3,174.6 -210.6,166.4 -232.6,370.9 -17.7,164.1 100,566.3 -423.8,597.4 0,0 -12.9,305 -327.6,377.9 -385.7,89.3 -481.1,-142.6 -650.2,-184.2 -188.8,-46.5 -594.9,127.1 -647.8,-310.1 0,0 -269.6,-6.3 -393.5,-202.6 -115.5,-182.8 -47.7,-416.5 29.9,-502.4 0,0 -216.2,-73.7 -265.8,-278.5 -33.3,-137.3 20.3,-314.8 157.1,-400.9 87,-54.8 169.6,-59.8 169.6,-59.8 88.4,-14.4 94,-250.9 171.8,-296.6 124.9,-73.3 260.5,-125 398.5,-165.9 l 1052.9,4"
         style="fill:#2c2858;fill-opacity:1;fill-rule:nonzero;stroke:none"
         id="path198" />
      <path
         d="m 27712.2,14736.7 c -42.8,-641.5 309.2,-1187.3 786.4,-1219.2 477.1,-31.9 898.7,462.2 941.6,1103.7 42.9,641.4 -338.7,1055.7 -815.8,1087.6 -477.2,31.9 -869.3,-330.7 -912.2,-972.1"
         style="fill:#f37a50;fill-opacity:1;fill-rule:nonzero;stroke:none"
         id="path200" />
      <path
         d="m 28923.1,14406.8 c 50.7,-3.4 94.6,35 98,85.7 3.3,50.7 -35,94.6 -85.7,97.9 -50.7,3.4 -94.6,-34.9 -98,-85.6 -3.4,-50.7 35,-94.6 85.7,-98"
         style="fill:#000000;fill-opacity:1;fill-rule:nonzero;stroke:none"
         id="path202" />
      <path
         d="m 28191.3,14455.7 c 50.7,-3.4 94.6,35 98,85.7 3.4,50.7 -35,94.6 -85.7,98 -50.7,3.4 -94.6,-35 -98,-85.7 -3.4,-50.7 35,-94.6 85.7,-98"
         style="fill:#000000;fill-opacity:1;fill-rule:nonzero;stroke:none"
         id="path204" />
      <path
         d="m 28041.2,14641.1 c 15.1,-1 30.3,5.7 39.4,19.1 25.2,36.7 54.3,57.8 86.2,62.6 55.2,8.4 106.7,-31.5 107.3,-31.9 19.1,-15 46.8,-11.9 62,7.1 15.1,19.1 12.1,46.7 -6.8,61.9 -3.3,2.6 -81.1,64.2 -174.8,50.5 -57.5,-8.5 -106.9,-42.2 -146.7,-100.2 -13.9,-20.1 -8.8,-47.6 11.4,-61.4 6.7,-4.7 14.3,-7.2 22,-7.7"
         style="fill:#2c2858;fill-opacity:1;fill-rule:nonzero;stroke:none"
         id="path206" />
      <path
         d="m 29108.7,14565.2 c 9.6,-0.6 19.6,1.9 28.2,7.9 20,13.9 24.9,41.5 10.9,61.5 -53.1,76.2 -114.6,119.9 -182.8,129.8 -88,12.8 -152.5,-37.7 -155.2,-39.9 -19,-15.2 -22.2,-43 -6.9,-62.1 15.1,-19 42.7,-22.1 61.8,-7.2 1.4,1.1 39.6,29.2 88.7,21.6 42.7,-6.7 83.7,-37.9 121.9,-92.7 8,-11.5 20.4,-18 33.4,-18.9"
         style="fill:#2c2858;fill-opacity:1;fill-rule:nonzero;stroke:none"
         id="path208" />
      <path
         d="m 28466.6,14408.5 c -124.5,-77.7 -163.8,-110.4 -211.6,-135.9 24.6,-108.1 187.4,-171.9 235.5,-162.8 -112,64.8 -123.2,143.3 -123.2,143.3 l 99.3,155.4"
         style="fill:#de623c;fill-opacity:1;fill-rule:nonzero;stroke:none"
         id="path210" />
      <path
         d="m 29286,14515.7 c -89.1,-133 -81.5,-294.4 17.1,-360.5 98.6,-66 250.8,-11.8 339.9,121.3 89.1,133 81.5,294.4 -17.1,360.4 -98.6,66.1 -250.8,11.8 -339.9,-121.2"
         style="fill:#f37a50;fill-opacity:1;fill-rule:nonzero;stroke:none"
         id="path212" />
      <path
         d="m 29373.9,14263.5 c 3.8,-0.3 7.8,0.2 11.6,1.5 15.4,5.4 23.5,22.1 18.2,37.5 -17.7,51.1 -15.4,91.1 6.5,119 34,42.9 108,51.9 161,46.6 16.1,-1.7 30.6,10.2 32.2,26.4 1.6,16.2 -10.2,30.6 -26.3,32.3 -71.1,7.1 -164.4,-7.2 -213.1,-68.8 -24.2,-30.7 -46.7,-85.9 -16,-174.7 4,-11.6 14.5,-19 25.9,-19.8"
         style="fill:#de623c;fill-opacity:1;fill-rule:nonzero;stroke:none"
         id="path214" />
      <path
         d="m 28827.4,13961.1 c 14.7,20.8 -2.3,49 -27.5,45.4 -64,-9.1 -169.9,-21.9 -271.2,-24.1 -101.3,-2.3 -207.6,5.8 -272,12 -25.3,2.5 -41,-26.5 -25.4,-46.5 47.9,-61.8 146.3,-155 301.6,-151.5 155.2,3.4 249.3,100.9 294.5,164.7"
         style="fill:#ffffff;fill-opacity:1;fill-rule:nonzero;stroke:none"
         id="path216" />
      <path
         d="m 29743.3,15077.9 -1020.9,856 -1156,-561 125.2,-828.3 c 36.6,380.8 267.8,253.2 390.7,362.3 124.6,110.6 181.3,286.1 466.1,124.4 0,0 236.9,156.3 352.3,-72.8 89.2,-177.1 215.8,-145.9 341,-157.6 147.8,-13.8 109.7,-156.8 200.2,-154 l 301.4,431"
         style="fill:#2c2858;fill-opacity:1;fill-rule:nonzero;stroke:none"
         id="path218" />
      <path
         d="m 30905.3,16233.4 c -62.9,-4 -100.7,-9.5 -145.4,69.2 -44.7,78.6 -85.3,186.2 -138.5,121.3 -53.3,-65 -28.9,-248.3 12.3,-309.4 100.6,-12.2 271.6,118.9 271.6,118.9"
         style="fill:#f37a50;fill-opacity:1;fill-rule:nonzero;stroke:none"
         id="path220" />
      <path
         d="m 23720.5,13535.5 c 400.6,3.7 1803.1,-2180.3 1803.1,-2180.3 l 255.3,-2562.2 -653.5,-25.7 -607.8,2238.8 -634.1,334.3 -163,2195.1"
         style="fill:#201d40;fill-opacity:1;fill-rule:nonzero;stroke:none"
         id="path222" />
      <path
         d="m 20565.1,9345.7 -7.9,-343 c 0,0 244.8,7.3 253.3,-159.8 l -229.8,-7.2 c 0,0 -139.9,-180.6 60.6,-533.1 80,-345.3 -173.1,-199.3 -190.5,-314 -25.6,-169.3 -359.9,121 -413,465.9 -68.7,446.4 22.5,500 22.5,500 l 101,339 403.8,52.2"
         style="fill:#f37a50;fill-opacity:1;fill-rule:nonzero;stroke:none"
         id="path224" />
      <path
         d="m 20895.6,13251.9 c -391.3,-86.3 -1111.3,-2408.6 -1111.3,-2408.6 l 216,-1775.9 649.9,72.7 -39,1384.7 487,1312.5 -202.6,1414.6"
         style="fill:#201d40;fill-opacity:1;fill-rule:nonzero;stroke:none"
         id="path226" />
      <path
         d="m 21748.4,2035.5 c -353.2,-471.2 -1220.7,-182.1 -1192,-819.4 1319.2,8.2 1867.4,0 1867.4,0 -1.7,146.4 -27.8,493.8 -58.2,629.8 l -617.2,189.6"
         style="fill:#000000;fill-opacity:1;fill-rule:nonzero;stroke:none"
         id="path228" />
      <path
         d="m 23722.2,2023.1 c -353.3,-471.1 -1220.8,-182 -1192.1,-819.3 1319.2,8.2 1867.5,0 1867.5,0 -1.8,146.3 -27.8,493.8 -58.3,629.8 l -617.1,189.5"
         style="fill:#000000;fill-opacity:1;fill-rule:nonzero;stroke:none"
         id="path230" />
      <path
         d="m 20989.8,9248.5 c 0,0 -211.8,-3035.5 -124.8,-3706.9 87,-671.4 540.7,-1536.2 505.8,-3757 430,-104.1 1053,0 1053,0 0,0 92.4,2511.1 -362.2,3632.6 184.9,1089.5 778.1,3584.8 778.1,3584.8 l -1849.9,246.5"
         style="fill:#201d40;fill-opacity:1;fill-rule:nonzero;stroke:none"
         id="path232" />
      <path
         d="m 22298.1,9142.2 c 0,0 86.1,-3386.3 297.8,-4029.4 211.7,-643 556.7,-1066.7 940,-3254.4 441.9,-21.4 1078.3,-30.5 1078.3,-30.5 0,0 -312.3,2757.6 -1000.6,3388.7 -23.3,1104.8 207,3907.9 207,3907.9 l -1522.5,17.7"
         style="fill:#2c2858;fill-opacity:1;fill-rule:nonzero;stroke:none"
         id="path234" />
      <path
         d="m 21706.7,13621.8 588.6,123.2 593.8,-95.1 -572.6,-741.1 -609.8,713"
         style="fill:#95a6db;fill-opacity:1;fill-rule:nonzero;stroke:none"
         id="path236" />
      <path
         d="m 21868.1,13228.3 c 265.1,-171.5 621.5,-174.8 894.7,23.6 l -12.8,909 -846,-29.3 -35.9,-903.3"
         style="fill:#f37a50;fill-opacity:1;fill-rule:nonzero;stroke:none"
         id="path238" />
      <path
         d="m 23078.1,13348.5 v 0 l -184.3,49.8 -4.7,251.6 -444.4,-448.3 -135.6,-37.7 -137.2,31.2 -465.2,426.7 7.2,-251.6 -152,-48.9 v 0 l -550.7,-154.7 287.3,-3121.4 -100.8,-1084.6 c 772.6,-162.9 1612.1,-130.1 2417.6,75.8 l -148.4,1060.4 235.3,3109.3 -624.1,142.4"
         style="fill:#95a6db;fill-opacity:1;fill-rule:nonzero;stroke:none"
         id="path240" />
      <path
         d="m 22168.6,12840.6 -177.6,-2412.2 215.2,-257.1 240.3,214.3 -92.5,2448.7 -185.4,6.3"
         style="fill:#2c2858;fill-opacity:1;fill-rule:nonzero;stroke:none"
         id="path242" />
      <path
         d="m 22023.2,13136.1 221.1,47.3 245.3,-52 -135.5,-301.8 -186.1,3 -144.8,303.5"
         style="fill:#2c2858;fill-opacity:1;fill-rule:nonzero;stroke:none"
         id="path244" />
      <path
         d="m 21657.8,13509.9 19.9,-2725.1 58,-1918.5 c 0,0 -548.7,-195.8 -958,113.7 l 110.5,4271.9 769.6,258"
         style="fill:#2c2858;fill-opacity:1;fill-rule:nonzero;stroke:none"
         id="path246" />
      <path
         d="m 21671.3,13538.7 12.1,-2943.1 -432.6,2283.7 z"
         style="fill:#494c7f;fill-opacity:1;fill-rule:nonzero;stroke:none"
         id="path248" />
      <path
         d="m 22905.4,13623 -142.6,-4831.3 c 0,0 993.2,-174.1 1398.5,93.9 l -219.7,1526.7 -195.4,3122.9 -840.8,87.8"
         style="fill:#2c2858;fill-opacity:1;fill-rule:nonzero;stroke:none"
         id="path250" />
      <path
         d="m 22895.8,13632.4 -77.4,-2955.7 514.3,2326.7 z"
         style="fill:#494c7f;fill-opacity:1;fill-rule:nonzero;stroke:none"
         id="path252" />
      <path
         d="m 25050.1,9020.3 7.9,-342.9 c 0,0 -244.7,7.3 -253.3,-159.9 l 229.8,-7.1 c 0,0 139.9,-180.7 -60.6,-533.2 -79.9,-345.3 173.2,-199.2 190.5,-314 25.6,-169.3 359.9,121 413,466 68.7,446.3 -22.4,500 -22.4,500 l -101.1,338.9 -403.8,52.2"
         style="fill:#f37a50;fill-opacity:1;fill-rule:nonzero;stroke:none"
         id="path254" />
      <path
         d="m 23040.6,14808.3 c -134.1,-616.5 -635.4,-1030.9 -1119.6,-925.6 -484.2,105.4 -768,690.5 -633.9,1307.1 134.1,616.5 635.4,1030.9 1119.6,925.5 484.2,-105.3 768,-690.5 633.9,-1307"
         style="fill:#f37a50;fill-opacity:1;fill-rule:nonzero;stroke:none"
         id="path256" />
      <path
         d="m 21580,14954.2 c -49.2,-14.7 -101,13.2 -115.7,62.4 -14.7,49.1 13.2,100.9 62.4,115.6 49.1,14.7 100.9,-13.2 115.6,-62.4 14.7,-49.1 -13.2,-100.9 -62.3,-115.6"
         style="fill:#000000;fill-opacity:1;fill-rule:nonzero;stroke:none"
         id="path258" />
      <path
         d="m 22338.5,14980.4 c -24.4,-45.4 -81,-62.3 -126.4,-37.9 -45.3,24.5 -62.2,81.1 -37.8,126.4 24.5,45.4 81,62.3 126.4,37.9 45.3,-24.5 62.3,-81.1 37.8,-126.4"
         style="fill:#000000;fill-opacity:1;fill-rule:nonzero;stroke:none"
         id="path260" />
      <path
         d="m 21740.6,15025.2 c -66.5,-151.5 -151.8,-337 -151.8,-337 0,0 72.1,-139 265.6,-112.9 -86.7,21.9 -175.6,65.1 -158.1,179 17.4,113.8 44.3,270.9 44.3,270.9"
         style="fill:#de623c;fill-opacity:1;fill-rule:nonzero;stroke:none"
         id="path262" />
      <path
         d="m 22439.8,15121.6 c -17.8,-7.9 -39.3,-2.8 -51.5,13.3 -2.9,3.8 -74.6,94.6 -162.7,56.2 -21.7,-9.5 -47.1,0.5 -56.6,22.2 -9.5,21.8 0.6,47.2 22.3,56.6 120.2,52.5 226.2,-31.3 265.4,-82.9 14.4,-18.9 10.7,-45.9 -8.2,-60.3 -2.7,-2.1 -5.6,-3.8 -8.7,-5.1"
         style="fill:#2c2858;fill-opacity:1;fill-rule:nonzero;stroke:none"
         id="path264" />
      <path
         d="m 21389.5,15121.6 c 17.8,-7.9 39.3,-2.8 51.6,13.3 2.9,3.8 74.6,94.6 162.6,56.2 21.8,-9.5 47.1,0.5 56.6,22.2 9.5,21.8 -0.6,47.2 -22.2,56.6 -120.2,52.5 -226.2,-31.3 -265.5,-82.9 -14.3,-18.9 -10.7,-45.9 8.2,-60.3 2.8,-2.1 5.7,-3.8 8.7,-5.1"
         style="fill:#2c2858;fill-opacity:1;fill-rule:nonzero;stroke:none"
         id="path266" />
      <path
         d="m 22945.5,14783.1 c -25.8,227.6 -218.6,156.9 -273.7,454.7 -55,297.8 -109.4,522.2 -388.6,440.5 -279.2,-81.8 -354.9,-22.2 -477.6,32.2 -368.7,163.6 -505.1,-464.5 -505.1,-464.5 0,0 -266.8,504.6 9,780.4 305.6,305.8 395.8,95.9 680.4,318.1 284.5,222.3 738.8,145.3 849.3,-31.3 116.4,-186.2 149.1,-325.2 431.2,-433 282.2,-107.8 441.3,-322.4 225,-635.5 -216.3,-313.1 216.6,-473.5 -171,-783.5 -150.4,-120.3 -427.4,-175.9 -478.6,-122.6 -68.5,71.2 116.3,297.8 99.7,444.5"
         style="fill:#2c2858;fill-opacity:1;fill-rule:nonzero;stroke:none"
         id="path268" />
      <path
         d="m 21254.2,14851.9 c 0,0 46.9,-306.4 115.5,-399.8 23.3,143.5 158.7,23.4 262.1,30.2 249.9,16.3 672.9,185.1 789.3,-171.3 316.3,-34.9 481.9,645 481.9,645 159,-708 -295,-1203.3 -1067.8,-1234.4 -509.2,-20.5 -699,625.8 -581,1130.3"
         style="fill:#2c2858;fill-opacity:1;fill-rule:nonzero;stroke:none"
         id="path270" />
      <path
         d="m 21544,14281.7 c -14.9,19.1 0.1,46.6 24.2,44.3 61.2,-5.8 162.5,-13.3 258.9,-10.9 96.4,2.3 197.2,14.7 258.1,23.5 24,3.4 40.2,-23.4 26.3,-43.2 -42.9,-60.8 -132.3,-153.8 -280.1,-157.4 -147.8,-3.6 -241.6,84.9 -287.4,143.7"
         style="fill:#ffffff;fill-opacity:1;fill-rule:nonzero;stroke:none"
         id="path272" />
      <path
         d="m 22848.7,14937.8 c -104.5,-112.3 -114.8,-272.7 -22.9,-358.3 91.9,-85.5 251.2,-63.8 355.7,48.5 104.5,112.3 114.8,272.7 22.8,358.2 -91.8,85.6 -251.1,63.9 -355.6,-48.4"
         style="fill:#f37a50;fill-opacity:1;fill-rule:nonzero;stroke:none"
         id="path274" />
      <path
         d="m 22967.9,14631.6 c -4.8,1.5 -9.3,4.1 -13.2,7.9 -55.8,53.6 -71.2,121.6 -41.2,181.7 30.7,61.5 100.2,98.6 165.1,88.2 18.3,-3 30.8,-20.1 27.9,-38.4 -3,-18.3 -20.2,-30.8 -38.5,-27.8 -35.6,5.7 -77.1,-17.1 -94.5,-52 -16.6,-33.4 -6.8,-70.2 27.7,-103.4 13.4,-12.8 13.8,-34.1 0.9,-47.4 -9.1,-9.5 -22.4,-12.4 -34.2,-8.8"
         style="fill:#de623c;fill-opacity:1;fill-rule:nonzero;stroke:none"
         id="path276" />
      <path
         d="m 22244.3,13183.4 427.1,-379.8 330.4,676.2 -112.7,170.1 -644.8,-466.5"
         style="fill:#ffffff;fill-opacity:1;fill-rule:nonzero;stroke:none"
         id="path278" />
      <path
         d="m 22244.3,13183.4 -328.3,-348.6 -309.1,602.9 99.8,184.1 537.6,-438.4"
         style="fill:#ffffff;fill-opacity:1;fill-rule:nonzero;stroke:none"
         id="path280" />
      <path
         d="m 24886.2,2503.5 c 34.2,341.9 -142.1,2943.3 -142.1,2943.3 -498.8,2287 -302.9,3924.1 -302.9,3924.1 l 857.3,-60.2 337.8,-1292.4 -160.2,-2158.3 c 0,0 60.2,-166.1 91.9,-299 172.1,-720.4 0.7,-1581.4 -105.3,-2155.3 -49.1,-265.9 -125.5,-824.8 -127.5,-951.9 l 215.3,-278.4 c 0,0 -779.4,-862.6 -899.3,-868 -233.1,-10.6 -164.4,220.3 -164.4,220.3 320.4,329 389.5,878 399.4,975.8"
         style="fill:#f37a50;fill-opacity:1;fill-rule:nonzero;stroke:none"
         id="path282" />
      <path
         d="m 25563.9,1869.8 -42.9,-554.3 -99.6,-4.5 -50.4,514.7 c -265.2,-67.7 -455.2,-548.8 -455.2,-548.8 -182.6,-65.5 -646.8,-110.5 -812.1,-25.3 -39.9,161.9 383.8,275.4 383.8,275.4 38.3,-45.3 264.4,-80 344.7,-31.5 295.7,251.8 439.9,617.9 503,958.3 0,0 467.2,-32.5 228.7,-584"
         style="fill:#e62552;fill-opacity:1;fill-rule:nonzero;stroke:none"
         id="path284" />
      <path
         d="m 25176,9204.5 1207.7,166.4 c 462,-1045.2 612.6,-2865.1 738,-3513.4 503.4,-844 663.3,-3403.7 663.3,-3403.7 l 215.3,-278.4 c 0,0 -779.4,-862.6 -899.3,-868 -233.1,-10.6 -164.4,220.3 -164.4,220.3 320.4,329 382.8,766 403.5,862.2 31.2,144.5 -977.5,2984.1 -977.5,2984.1 l -107.6,269.4 c -1232,2034.9 -1434.2,3573.3 -1434.2,3573.3 l 355.2,-12.2"
         style="fill:#f37a50;fill-opacity:1;fill-rule:nonzero;stroke:none"
         id="path286" />
      <path
         d="m 28013.7,1869.8 -42.9,-554.3 -99.6,-4.5 -50.4,514.7 c -265.2,-67.7 -455.1,-548.8 -455.1,-548.8 -182.7,-65.5 -646.9,-110.5 -812.2,-25.3 -39.9,161.9 383.8,275.4 383.8,275.4 38.3,-45.3 264.4,-80 344.7,-31.5 295.7,251.8 439.9,617.9 503,958.3 0,0 467.2,-32.5 228.7,-584"
         style="fill:#e62552;fill-opacity:1;fill-rule:nonzero;stroke:none"
         id="path288" />
      <path
         d="m 24733.3,12169.7 c -393.2,136.9 -1228.8,558.8 -832.9,1127.7 395.8,568.9 564,330.5 411.8,1014.6 -152.3,684.1 329.3,1228.8 795.6,1097.4 466.3,-131.4 589,-506.2 1157.7,-404.8 568.6,101.5 1048,-426.2 838.6,-890.6 -209.3,-464.4 -298.5,-687.8 -95.2,-941.4 203.4,-253.6 1109.9,-519.2 739.8,-1136 -370.1,-616.9 -543.2,-581.2 -408.9,-893.8 134.4,-312.7 -163.6,-673.6 -688,-630.5 -524.3,43.1 -1000.6,235.9 -1199.2,818.6 -198.5,582.8 -719.3,838.8 -719.3,838.8"
         style="fill:#000000;fill-opacity:1;fill-rule:nonzero;stroke:none"
         id="path290" />
      <path
         d="m 24837.6,12348.8 c -177.9,-18.5 -388.5,-108.9 -465.1,-320.5 -76.5,-211.6 -27.8,-764.8 -27.8,-764.8 l 492.9,1085.3"
         style="fill:#c4204a;fill-opacity:1;fill-rule:nonzero;stroke:none"
         id="path292" />
      <path
         d="m 25822.4,12919.7 -5.9,-774.6 c 0,0 -375.8,-228.7 -672.6,-46.1 45.6,228.3 112,749 112,749 l 566.5,71.7"
         style="fill:#f37a50;fill-opacity:1;fill-rule:nonzero;stroke:none"
         id="path294" />
      <path
         d="m 24744.5,13819 c 0,-575.6 347.1,-1042.1 775.2,-1042.1 428.2,0 775.3,466.5 775.3,1042.1 0,575.6 -347.1,1042.1 -775.3,1042.1 -428.1,0 -775.2,-466.5 -775.2,-1042.1"
         style="fill:#f37a50;fill-opacity:1;fill-rule:nonzero;stroke:none"
         id="path296" />
      <path
         d="m 26346.5,13819 c -427.9,54.7 -825.8,293.2 -1050.6,601.4 -145.2,-360.2 -551.4,-601.4 -551.4,-601.4 0,0 -304.5,689 249.2,1060.6 528.3,354.6 1788.6,112.3 1352.8,-1060.6"
         style="fill:#000000;fill-opacity:1;fill-rule:nonzero;stroke:none"
         id="path298" />
      <path
         d="m 25845.8,13596.6 c 45.6,0 82.4,36.9 82.4,82.4 0,45.5 -36.8,82.4 -82.4,82.4 -45.4,0 -82.3,-36.9 -82.3,-82.4 0,-45.5 36.9,-82.4 82.3,-82.4"
         style="fill:#000000;fill-opacity:1;fill-rule:nonzero;stroke:none"
         id="path300" />
      <path
         d="m 25189.2,13596.6 c 45.5,0 82.4,36.9 82.4,82.4 0,45.5 -36.9,82.4 -82.4,82.4 -45.5,0 -82.4,-36.9 -82.4,-82.4 0,-45.5 36.9,-82.4 82.4,-82.4"
         style="fill:#000000;fill-opacity:1;fill-rule:nonzero;stroke:none"
         id="path302" />
      <path
         d="m 25044,13753.2 c 13.6,0 26.7,7 34.1,19.4 20.4,34.3 45,54.9 73.3,61.2 48.8,10.8 97.2,-21.8 97.7,-22.1 17.9,-12.3 42.6,-7.9 55,10 12.3,17.9 8,42.4 -9.8,54.9 -3.1,2.2 -76.3,52.5 -159.1,34.7 -50.9,-11 -93,-44.1 -125.2,-98.3 -11.1,-18.8 -4.9,-43.1 13.9,-54.2 6.3,-3.8 13.3,-5.6 20.1,-5.6"
         style="fill:#000000;fill-opacity:1;fill-rule:nonzero;stroke:none"
         id="path304" />
      <path
         d="m 26002.2,13749.2 c 8.6,0 17.4,2.9 24.7,8.7 17,13.7 19.8,38.6 6.1,55.7 -52,64.9 -109.6,100.2 -171.1,105 -79.4,6.1 -133.9,-42.8 -136.2,-44.9 -16.1,-14.8 -17.3,-39.8 -2.5,-55.9 14.7,-16.1 39.5,-17.3 55.6,-2.8 1.2,1 33.6,28.5 78,24.6 38.5,-3.4 77,-28.8 114.4,-75.5 7.9,-9.8 19.4,-14.9 31,-14.9"
         style="fill:#000000;fill-opacity:1;fill-rule:nonzero;stroke:none"
         id="path306" />
      <path
         d="m 25438,13570.9 c -106.6,-76.9 -139.8,-108.4 -180.9,-134 28.4,-95.2 177.6,-142.4 220,-131.4 -103.9,51.2 -118.6,120.6 -118.6,120.6 l 79.5,144.8"
         style="fill:#de623c;fill-opacity:1;fill-rule:nonzero;stroke:none"
         id="path308" />
      <path
         d="m 26179.2,13738.6 c -88.9,-112.5 -93.3,-257.1 -9.9,-323 83.4,-65.8 223,-28 311.8,84.6 88.9,112.5 93.3,257.1 9.9,322.9 -83.4,65.8 -223,28 -311.8,-84.5"
         style="fill:#f37a50;fill-opacity:1;fill-rule:nonzero;stroke:none"
         id="path310" />
      <path
         d="m 26257.1,13495.5 c 3.4,0 6.9,0.7 10.3,2.1 13.4,5.7 19.7,21.1 14,34.6 -18.8,44.6 -19.2,80.4 -1.3,106.6 27.8,40.4 93.4,52.9 141,51.3 14.6,-0.5 26.8,10.9 27.2,25.5 0.5,14.5 -10.9,26.7 -25.4,27.2 -63.9,2.1 -146.4,-16.2 -186.2,-74.1 -19.9,-28.8 -36.6,-79.5 -3.9,-157 4.3,-10.1 14,-16.2 24.3,-16.2"
         style="fill:#de623c;fill-opacity:1;fill-rule:nonzero;stroke:none"
         id="path312" />
      <path
         d="m 25725.4,13164.8 c 11,18 -4.6,40.4 -25.3,36.1 -52.7,-11.1 -139.8,-27.6 -223.8,-35.1 -83.9,-7.5 -172.6,-6.7 -226.4,-5.1 -21.1,0.6 -32.6,-24.2 -18.5,-40 43.2,-48.6 130,-120.5 258.7,-109 128.7,11.4 201.4,97.6 235.3,153.1"
         style="fill:#ffffff;fill-opacity:1;fill-rule:nonzero;stroke:none"
         id="path314" />
      <path
         d="m 26506,12388.8 c 0,0 1004.3,-445.6 1565.5,-1612.1 -327.7,-461.3 -681.3,-187 -681.3,-187 l -935.5,730.8 c 0,0 -238,430.7 -207.3,657.7 45.6,337.4 258.6,410.6 258.6,410.6"
         style="fill:#c4204a;fill-opacity:1;fill-rule:nonzero;stroke:none"
         id="path316" />
      <path
         d="m 26333.3,5950.5 c 323.1,58.5 633.1,58.1 814.9,54.1 -115,384.9 -49.5,2785.6 -778.7,3602.6 L 24502,9582.5 c -649.7,-1114.8 -305.5,-2811.8 -707,-3488.4 156.8,-75.8 497.5,-220.4 1073.1,-278.4 636.6,-64.3 919.1,36 1465.2,134.8"
         style="fill:#070635;fill-opacity:1;fill-rule:nonzero;stroke:none"
         id="path318" />
      <path
         d="m 24518.2,10070.1 c 0,381.5 -330.6,953 -172.1,1338.2 115.4,309.7 317.6,868.3 553.8,955.1 111.4,40.9 166.1,72.2 305,110.6 0,0 7.2,-295.2 170.4,-308.2 314.2,-25.2 444.3,378.8 444.3,378.8 169.3,16.2 795.1,-161.4 794.7,-225.2 -1.8,-499.7 -221.6,-1307.8 -354.3,-1848.1 -24.6,-275.1 -5.2,-488.5 22.4,-644.1 50.3,-162.3 137.3,-245.8 137.7,-280.9 0,0 -1190.1,-405 -1931,2.9 0,0 29.1,263.3 29.1,520.9"
         style="fill:#f5a3b7;fill-opacity:1;fill-rule:nonzero;stroke:none"
         id="path320" />
      <path
         d="m 25958.1,12534.3 c 0,0 -367.4,-1370 -367.4,-1949.3 0,-658.2 337.5,-1768 337.5,-1768 l 826,32.3 c 0,0 -101.1,462.4 -353.1,873.4 -260.1,424.4 25.5,1329.6 88.5,1570.5 63,240.9 165.4,1017.5 165.4,1017.5 0,0 -343.9,225.7 -696.9,223.6"
         style="fill:#e62552;fill-opacity:1;fill-rule:nonzero;stroke:none"
         id="path322" />
      <path
         d="m 25082.8,12435.1 c -82.2,-174.4 -399.7,-889 -380,-1323.5 19.8,-434.4 60.2,-1926.4 -58.7,-2332.4 -296.7,8.8 -432.2,98.3 -432.2,98.3 -42.2,114.5 402.3,771.6 282.5,1282.2 -119.8,510.6 -224.2,874.4 -191.3,1083.6 36.9,234.5 218.5,829 534.5,1105.5 111.5,49.3 245.2,86.3 245.2,86.3"
         style="fill:#e62552;fill-opacity:1;fill-rule:nonzero;stroke:none"
         id="path324" />
      <path
         d="m 26615.7,9711.2 -53.1,-22.1 c 0,0 -107.9,145.6 -218.1,140.1 l 67.4,-141.9 c 0,0 -126.8,-208.5 -460.6,-186.4 -285.2,-64.9 -85.7,-200.2 -164.6,-254.4 -116.5,-79.9 210.2,-276.2 485.4,-191.5 356.2,109.5 587.6,445.8 587.6,445.8 l -244,210.4"
         style="fill:#f37a50;fill-opacity:1;fill-rule:nonzero;stroke:none"
         id="path326" />
      <path
         d="m 26615.7,9711.2 756.1,954.7 c 0,0 159.3,304.7 699.7,110.8 26.1,-290.5 -284.6,-686.3 -1248.3,-1323.7 l -207.5,258.2"
         style="fill:#c4204a;fill-opacity:1;fill-rule:nonzero;stroke:none"
         id="path328" />
      <path
         d="m 19359.5,15170 c -672.1,189.6 -2014.7,-353.9 -1624,-2798.7 390.7,-2444.7 2148.5,-2105.5 2148.5,-2105.5 0,0 806.7,253.6 879.1,1806.8 72.4,1553.1 -273.2,2778.4 -1403.6,3097.4"
         style="fill:#201d40;fill-opacity:1;fill-rule:nonzero;stroke:none"
         id="path330" />
      <path
         d="m 18537.4,11781.3 c -143.2,-412.2 -680.1,-1218.3 -871.9,-1366.2 -127.7,181.9 -599,91.2 -599,91.2 0,0 471.3,1142.2 896.9,1695.7 198.6,372.7 808.9,251.9 574,-420.7"
         style="fill:#7890db;fill-opacity:1;fill-rule:nonzero;stroke:none"
         id="path332" />
      <path
         d="m 17066.5,10506.3 c 91.5,-502.3 698.7,-1155.3 698.7,-1155.3 0,0 68.2,39.3 83.1,335.3 -75.3,202.8 -182.8,728.8 -182.8,728.8 0,0 -239,256.9 -599,91.2"
         style="fill:#f37a50;fill-opacity:1;fill-rule:nonzero;stroke:none"
         id="path334" />
      <path
         d="m 18775.7,12949.5 501,75 -39.9,-465 c 0,0 -253.7,-457.2 -494.4,-378.5 -240.8,78.7 -123.4,280.7 -123.4,280.7 l 156.7,487.8"
         style="fill:#f37a50;fill-opacity:1;fill-rule:nonzero;stroke:none"
         id="path336" />
      <path
         d="m 19677.5,13704 c -81.4,-549.5 -497.2,-943 -928.7,-879.1 -431.6,64 -715.4,561.2 -634,1110.7 81.4,549.4 497.3,943 928.8,879 431.5,-63.9 715.4,-561.2 633.9,-1110.6"
         style="fill:#f37a50;fill-opacity:1;fill-rule:nonzero;stroke:none"
         id="path338" />
      <path
         d="m 19208.5,13852.2 c -6,1.8 -11.4,5.5 -15.3,11.1 -55.9,80.3 -168.4,78 -169.6,78 -15.7,-0.5 -28.9,11.9 -29.4,27.6 -0.5,15.8 11.8,28.9 27.6,29.5 5.8,0.2 144.4,3.6 218.3,-102.5 9,-12.9 5.8,-30.7 -7.1,-39.7 -7.4,-5.2 -16.4,-6.4 -24.5,-4"
         style="fill:#201d40;fill-opacity:1;fill-rule:nonzero;stroke:none"
         id="path340" />
      <path
         d="m 18246.1,13868.2 c -2.9,1.1 -5.6,2.7 -8,4.8 -12.1,10.2 -13.5,28.2 -3.3,40.2 79.2,93.4 189.3,67.3 193.9,66.1 15.3,-3.8 24.6,-19.3 20.8,-34.6 -3.8,-15.3 -19.2,-24.6 -34.5,-20.8 -3.6,0.8 -81,18 -136.7,-47.6 -8.1,-9.6 -21.2,-12.5 -32.2,-8.1"
         style="fill:#201d40;fill-opacity:1;fill-rule:nonzero;stroke:none"
         id="path342" />
      <path
         d="m 18644.5,13635.6 c -35.9,-44.2 -66.8,-89.1 -102.5,-116.2 -12,-9.1 -14.5,-26.4 -6,-38.8 35.2,-51.3 128.1,-88 184.7,-106.4 8.2,-2.6 13.8,8.4 6.8,13.5 -59.3,43.4 -86,76.9 -97.7,95.5 -5.8,9.3 -6.7,20.7 -2.6,30.9 9.3,23.3 27.8,70.7 39.7,109.7 4.1,13.5 -13.5,22.7 -22.4,11.8"
         style="fill:#de623c;fill-opacity:1;fill-rule:nonzero;stroke:none"
         id="path344" />
      <path
         d="m 19006.2,13220.6 c 10.9,16.8 -3.3,38.5 -23.1,35 -50.2,-9.1 -133.3,-22.4 -213.1,-27.2 -79.8,-4.7 -164,-1.5 -214.9,1.5 -20,1.2 -31.6,-22.1 -18.7,-37.5 39.7,-47.3 120,-117.8 242.4,-110.5 122.3,7.3 193.6,87 227.4,138.7"
         style="fill:#ffffff;fill-opacity:1;fill-rule:nonzero;stroke:none"
         id="path346" />
      <path
         d="m 19853.2,13754.3 c -510.4,23.1 -1181.7,494.2 -1262.8,752.8 69.6,325.4 326.2,509.3 632.7,388.4 306.5,-120.9 808.6,-723.7 630.1,-1141.2"
         style="fill:#201d40;fill-opacity:1;fill-rule:nonzero;stroke:none"
         id="path348" />
      <path
         d="m 18707,14376.3 c 0,0 -303.7,-308.7 -611.3,-379.2 107.6,360.1 184.5,633 369.1,721.5 184.5,88.4 388.3,103.8 388.3,103.8 l -146.1,-446.1"
         style="fill:#201d40;fill-opacity:1;fill-rule:nonzero;stroke:none"
         id="path350" />
      <path
         d="m 19558.2,13789.3 c -95.6,-88.9 -114.1,-224.5 -41.4,-302.8 72.8,-78.2 209.4,-69.6 305,19.4 95.7,88.9 114.2,224.5 41.4,302.7 -72.8,78.3 -209.3,69.7 -305,-19.3"
         style="fill:#f37a50;fill-opacity:1;fill-rule:nonzero;stroke:none"
         id="path352" />
      <path
         d="m 19640.7,13522 c -4,1.6 -7.7,4.1 -10.8,7.5 -44,49 -52.9,107.6 -23.8,156.8 29.9,50.4 91.1,77.6 145.7,64.8 15.3,-3.6 24.8,-19 21.2,-34.3 -3.6,-15.4 -19,-24.9 -34.3,-21.3 -29.9,7 -66.5,-9.8 -83.4,-38.3 -16.3,-27.4 -10.2,-59.1 17.1,-89.5 10.5,-11.7 9.6,-29.8 -2.1,-40.3 -8.4,-7.5 -19.9,-9.2 -29.6,-5.4"
         style="fill:#de623c;fill-opacity:1;fill-rule:nonzero;stroke:none"
         id="path354" />
      <path
         d="m 19153.7,13768.2 c 0,-48.4 -39.3,-87.7 -87.7,-87.7 -48.5,0 -87.7,39.3 -87.7,87.7 0,48.4 39.2,87.7 87.7,87.7 48.4,0 87.7,-39.3 87.7,-87.7"
         style="fill:#000000;fill-opacity:1;fill-rule:nonzero;stroke:none"
         id="path356" />
      <path
         d="m 18514.6,13768.2 c 0,-48.4 -39.3,-87.7 -87.7,-87.7 -48.5,0 -87.7,39.3 -87.7,87.7 0,48.4 39.2,87.7 87.7,87.7 48.4,0 87.7,-39.3 87.7,-87.7"
         style="fill:#000000;fill-opacity:1;fill-rule:nonzero;stroke:none"
         id="path358" />
      <path
         d="m 18306.7,2419.3 c 33.5,334.6 -139.1,2881.1 -139.1,2881.1 -488.3,2238.7 -296.5,3841.3 -296.5,3841.3 l 839.2,-59 330.7,-1265.1 -156.8,-2112.7 c 0,0 58.8,-162.6 89.9,-292.6 168.5,-705.3 0.7,-1548.1 -103.1,-2109.8 -48.1,-260.4 -122.8,-807.5 -124.8,-931.8 l 210.8,-272.6 c 0,0 -763,-844.4 -880.3,-849.7 -228.2,-10.3 -161,215.7 -161,215.7 313.6,322 381.4,859.4 391,955.2"
         style="fill:#f37a50;fill-opacity:1;fill-rule:nonzero;stroke:none"
         id="path360" />
      <path
         d="m 18970.1,1798.9 -42,-542.5 -97.5,-4.4 -49.3,503.8 c -259.6,-66.2 -445.6,-537.2 -445.6,-537.2 -178.7,-64.2 -633.2,-108.1 -794.9,-24.8 -39.1,158.5 375.6,269.6 375.6,269.6 37.5,-44.3 258.9,-78.3 337.5,-30.8 289.4,246.5 430.6,604.8 492.3,938.1 0,0 457.4,-31.9 223.9,-571.8"
         style="fill:#c4204a;fill-opacity:1;fill-rule:nonzero;stroke:none"
         id="path362" />
      <path
         d="m 18590.4,8978.8 1182.2,162.9 c 452.2,-1023.2 599.7,-2804.6 722.4,-3439.2 492.8,-826.3 649.3,-3331.8 649.3,-3331.8 l 210.8,-272.6 c 0,0 -763,-844.4 -880.4,-849.7 -228.1,-10.3 -160.9,215.7 -160.9,215.7 313.6,322 374.7,749.9 395,844 30.6,141.5 -956.8,2921.1 -956.8,2921.1 l -105.4,263.7 c -1206,1991.9 -1403.9,3497.8 -1403.9,3497.8 l 347.7,-11.9"
         style="fill:#f37a50;fill-opacity:1;fill-rule:nonzero;stroke:none"
         id="path364" />
      <path
         d="m 21368.1,1798.9 -41.9,-542.5 -97.6,-4.4 -49.3,503.8 c -259.5,-66.2 -445.5,-537.2 -445.5,-537.2 -178.8,-64.2 -633.2,-108.1 -795,-24.8 -39,158.5 375.7,269.6 375.7,269.6 37.5,-44.3 258.8,-78.3 337.4,-30.8 289.5,246.5 430.7,604.8 492.4,938.1 0,0 457.4,-31.9 223.8,-571.8"
         style="fill:#c4204a;fill-opacity:1;fill-rule:nonzero;stroke:none"
         id="path366" />
      <path
         d="m 20788.3,5818.7 c -118.1,395 -66.7,3222.4 -1108.9,3991.2 l -1793.6,-189 C 17471.4,8950 17623.4,7204.4 17763,5767.8 c 843.3,-301 1513.7,-421.8 3025.3,50.9"
         style="fill:#070635;fill-opacity:1;fill-rule:nonzero;stroke:none"
         id="path368" />
      <path
         d="m 17864,10063.4 c 0,392.8 -340.4,981.3 -177.3,1377.8 118.9,318.9 327.1,894 570.2,983.3 114.7,42.2 223,31.9 366,71.4 0,0 -44.5,-261.4 123.5,-274.8 323.5,-26 493.5,388.7 493.5,388.7 174.4,16.7 782.6,-164.9 782.2,-230.5 -1.9,-514.5 -228.2,-1346.5 -364.9,-1902.8 -25.3,-283.2 -5.3,-502.9 23.1,-663.2 51.8,-167.1 115,-262.7 115.4,-298.9 0,0 -1198.9,-407.3 -1961.7,12.7 0,0 30,271.1 30,536.3"
         style="fill:#95a6db;fill-opacity:1;fill-rule:nonzero;stroke:none"
         id="path370" />
      <path
         d="m 19997,9690.2 -102.2,-40.9 c 0,0 -106.5,169.4 -214.5,164 l 53.8,-161.8 c 0,0 -61.1,-189.1 -388.3,-167.5 -279.5,-63.5 -83.9,-196.2 -161.3,-249.3 -114.2,-78.3 206,-270.6 475.8,-187.7 349.1,107.4 575.9,437 575.9,437 l -239.2,206.2"
         style="fill:#f37a50;fill-opacity:1;fill-rule:nonzero;stroke:none"
         id="path372" />
      <path
         d="m 19997,12410.1 c 0,0 854.2,-500.4 1267.9,-1699.8 -371.6,-411.9 -684.5,-104.5 -684.5,-104.5 l -827.6,817.7 c 0,0 -243.3,298.8 -127,663.9 101.4,317.9 371.2,322.7 371.2,322.7"
         style="fill:#f37a50;fill-opacity:1;fill-rule:nonzero;stroke:none"
         id="path374" />
      <path
         d="m 19997,9690.2 597.2,874.6 c 0,0 141.1,335.5 670.7,145.5 25.6,-284.8 -180.6,-690.2 -1125.2,-1315 -61,159.4 -142.7,294.9 -142.7,294.9"
         style="fill:#f37a50;fill-opacity:1;fill-rule:nonzero;stroke:none"
         id="path376" />
      <path
         d="m 18746.4,12221.1 c -28.8,-134.6 49.4,-295.9 274.8,-220.3 270,90.6 396.1,597.4 396.1,597.4 l -169.3,91.7 c 0,0 -128.5,-350 -501.6,-468.8"
         style="fill:#ffffff;fill-opacity:1;fill-rule:nonzero;stroke:none"
         id="path378" />
      <path
         d="m 18746.4,12221.1 c -33.3,-69.3 -223.2,-247.1 -313.2,-141.2 -90,105.9 15.1,383.7 15.1,383.7 l 204.7,104 c 0,0 -80.2,-250.2 93.4,-346.5"
         style="fill:#ffffff;fill-opacity:1;fill-rule:nonzero;stroke:none"
         id="path380" />
      <path
         d="m 19997,12410.1 c 0,0 854.2,-500.4 1267.9,-1699.8 -371.6,-411.9 -716.8,-72.7 -716.8,-72.7 l -795.3,785.9 c 0,0 -243.3,298.8 -127,663.9 101.4,317.9 371.2,322.7 371.2,322.7"
         style="fill:#7890db;fill-opacity:1;fill-rule:nonzero;stroke:none"
         id="path382" />
      <path
         d="m 17667.8,9282.8 c 6.1,4.2 12.8,6.9 19.7,9 -0.7,1 -1.5,1.9 -2.3,3 -42.3,61.5 -40.8,136 3.4,166.4 7.2,5 15.2,8.3 23.6,10.4 -12.4,45.9 -2.7,90.1 28.8,111.7 12.5,8.6 27.1,12.6 42.6,12.7 -15.3,45.1 -4.6,92.8 30.7,117.1 44.2,30.3 109.3,12.3 145.4,-40.2 36.2,-52.5 29.7,-119.7 -14.5,-150.1 -11.2,-7.7 -23.7,-12.2 -36.8,-13.9 30.8,-57.5 25.8,-121 -14.1,-148.4 -7.2,-5 -15.2,-8.4 -23.6,-10.4 12.4,-45.9 2.7,-90.1 -28.8,-111.8 -11.7,-8 -25.1,-12 -39.4,-12.6 15.5,-39.4 6.9,-82.3 -24.2,-103.6 -37.3,-25.6 -92.3,-10.4 -122.8,33.9 -30.5,44.4 -25,101.2 12.3,126.8"
         style="fill:#f37a50;fill-opacity:1;fill-rule:nonzero;stroke:none"
         id="path384" />
      <path
         d="m 31060.6,12336.1 c -522.6,-103.2 -1395.1,-1152.4 -1460,-1951.3 289.4,-57.9 614,135.2 614,135.2 l 692.4,878.2 153.6,937.9"
         style="fill:#de623c;fill-opacity:1;fill-rule:nonzero;stroke:none"
         id="path386" />
      <path
         d="m 32069.4,15040.1 c 325.5,333.3 987.1,384.6 1109.2,-99.7 122.2,-484.4 110,-812.3 715.3,-700.4 482,89.2 1007.2,-317.2 1047.5,-1002.5 51.7,-876.7 -576,-571.4 -409.7,-996.1 166.4,-424.8 283,-858.8 -342.9,-910 -625.9,-51.2 -1143.6,444.9 -1112.3,1161.9 31.3,717.1 -409.6,428.5 -563.2,773.2 -218.4,490 -443.9,1773.6 -443.9,1773.6"
         style="fill:#201d40;fill-opacity:1;fill-rule:nonzero;stroke:none"
         id="path388" />
      <path
         d="m 30551,1772.5 -282.3,1111.8 700.3,96.4 c 24.1,-525.8 63.4,-1043.5 59.9,-1183.7 l -477.9,-24.5"
         style="fill:#f37a50;fill-opacity:1;fill-rule:nonzero;stroke:none"
         id="path390" />
      <path
         d="m 32222.1,2987.1 h 731.2 c -24.1,-175.3 -120,-1124.1 -120,-1124.1 -61.7,-140.2 -606.7,-108.2 -606.7,-29.4 41.2,170.9 -1.1,1131.5 -4.5,1153.5"
         style="fill:#f37a50;fill-opacity:1;fill-rule:nonzero;stroke:none"
         id="path392" />
      <path
         d="m 31026.4,2552.5 -721.1,-106.4 -500,2990.2 c 103,1134.8 1101.9,3549 1101.9,3549 l 1126.1,-394.3 27.4,-1064.7 -1356,-2295.9 c 176.8,-444 297.7,-1879.6 321.7,-2677.9"
         style="fill:#c4204a;fill-opacity:1;fill-rule:nonzero;stroke:none"
         id="path394" />
      <path
         d="m 31583.8,8905.3 c 10.3,70.1 13.7,92 72.1,127.1 l 1081.4,306.7 257.4,-254.1 c 243.8,-885.1 92.7,-2116.3 -99.5,-3093.3 281.5,-845.7 171.4,-2589 58.1,-3408.3 h -769 c -44.6,547.7 -30.6,1563.6 -34.1,2054.4 v 0 c -99.5,394.3 -195.6,814.9 -281.5,1257.4 -109.8,565.3 -247.1,1113 -284.9,1625.6 -34.3,486.3 -44.6,1007.7 0,1384.5"
         style="fill:#e62552;fill-opacity:1;fill-rule:nonzero;stroke:none"
         id="path396" />
      <path
         d="m 32693.4,13780.9 c 4.1,-587.8 -366.8,-1066.9 -828.4,-1070.1 -461.6,-3.2 -839.2,470.7 -843.3,1058.4 -4.1,587.8 366.8,1066.9 828.5,1070.1 461.6,3.2 839.1,-470.6 843.2,-1058.4"
         style="fill:#f37a50;fill-opacity:1;fill-rule:nonzero;stroke:none"
         id="path398" />
      <path
         d="m 32409.8,13196.2 -671.3,-381.2 c 0,0 -59.6,-271.9 -89.3,-360.1 -61.4,-182 173.7,-261.5 372.5,-148.2 198.7,113.3 327.4,264.9 327.4,264.9 l 60.7,624.6"
         style="fill:#f37a50;fill-opacity:1;fill-rule:nonzero;stroke:none"
         id="path400" />
      <path
         d="m 30998.4,13884.3 c 160,14.6 1050.8,244.6 1153.8,405.6 -8.4,-382.3 567.5,-818.4 644.7,-706.2 269.7,706.7 73.2,1311.8 -717.6,1469.6 -1084.4,216.3 -1080.9,-1169 -1080.9,-1169"
         style="fill:#2c2858;fill-opacity:1;fill-rule:nonzero;stroke:none"
         id="path402" />
      <path
         d="m 32011.4,13585.2 c -27.2,-43.3 -84.3,-56.3 -127.6,-29.1 -43.3,27.2 -56.4,84.3 -29.2,127.6 27.2,43.3 84.4,56.4 127.7,29.2 43.3,-27.2 56.3,-84.4 29.1,-127.7"
         style="fill:#000000;fill-opacity:1;fill-rule:nonzero;stroke:none"
         id="path404" />
      <path
         d="m 31364.3,13593.9 c -25.6,-40.6 -79.2,-52.8 -119.8,-27.3 -40.7,25.5 -52.9,79.2 -27.4,119.8 25.5,40.7 79.2,52.9 119.8,27.4 40.7,-25.6 52.9,-79.2 27.4,-119.9"
         style="fill:#000000;fill-opacity:1;fill-rule:nonzero;stroke:none"
         id="path406" />
      <path
         d="m 31125,13777.5 c -3.3,1.5 -6.3,3.6 -9,6.3 -13.3,13.2 -13.1,36.4 0.4,51.8 104.5,119.5 232.8,84.8 238.2,83.3 17.8,-5.1 27.3,-25.1 21.1,-44.8 -6.2,-19.6 -25.6,-31.5 -43.3,-26.5 -4.3,1.1 -94.6,24.1 -168.1,-60 -10.7,-12.2 -26.6,-15.8 -39.3,-10.1"
         style="fill:#2c2858;fill-opacity:1;fill-rule:nonzero;stroke:none"
         id="path408" />
      <path
         d="m 32101.4,13760.4 c 3.3,1.5 6.4,3.6 9.1,6.3 13.2,13.2 13,36.5 -0.4,51.9 -104.5,119.5 -232.9,84.7 -238.3,83.2 -17.8,-5.1 -27.2,-25.1 -21,-44.8 6.1,-19.6 25.5,-31.4 43.3,-26.5 4.2,1.1 94.6,24.1 168.1,-59.9 10.7,-12.3 26.5,-15.9 39.2,-10.2"
         style="fill:#2c2858;fill-opacity:1;fill-rule:nonzero;stroke:none"
         id="path410" />
      <path
         d="m 31430.1,13531.3 c -27.2,-57.1 -48.8,-113.7 -80.1,-152.4 -10.5,-13 -8.8,-32.3 3.7,-43.5 51.5,-46.1 161.4,-61.2 227.3,-66.2 9.6,-0.7 12.8,12.7 3.9,16.4 -75.5,31.2 -113.2,60.3 -130.7,77.3 -8.6,8.5 -12.6,20.6 -10.9,32.7 4,27.5 11.4,83.6 14,128.8 0.9,15.6 -20.5,21 -27.2,6.9"
         style="fill:#de623c;fill-opacity:1;fill-rule:nonzero;stroke:none"
         id="path412" />
      <path
         d="m 32475.6,13547.2 c -96.4,-99.1 -108.8,-243.3 -27.7,-322.2 81,-78.9 224.9,-62.6 321.3,36.5 96.4,99 108.8,243.3 27.7,322.2 -81,78.9 -224.9,62.5 -321.3,-36.5"
         style="fill:#f37a50;fill-opacity:1;fill-rule:nonzero;stroke:none"
         id="path414" />
      <path
         d="m 32540.4,13306.7 c -3.8,2.4 -7.2,5.7 -9.7,9.9 -36.2,59.6 -34,122.3 6,167.7 40.9,46.5 110,62.8 164.2,38.8 15.2,-6.8 22.1,-24.7 15.3,-39.9 -6.7,-15.3 -24.6,-22.2 -39.9,-15.4 -29.6,13.2 -71.1,2.9 -94.2,-23.4 -22.3,-25.3 -22.2,-59.6 0.2,-96.5 8.7,-14.2 4.2,-32.8 -10.1,-41.5 -10.1,-6.1 -22.4,-5.6 -31.8,0.3"
         style="fill:#de623c;fill-opacity:1;fill-rule:nonzero;stroke:none"
         id="path416" />
      <path
         d="m 30740.1,8808.7 c 0,0 277.1,-328 323.9,-352.6 l 248,270.9 1.8,-4.6 58.8,-155 68.9,-181.1 c 57.5,0 1787.5,387.5 1787.5,387.5 -3.5,156 -150.1,661.2 -387.5,1199 57.6,455.5 35.6,1139.8 53.6,1402.4 -139.7,704.4 -73.3,763.9 52.7,1095.8 l -438.9,129.6 -790.1,-278.7 -58.7,190.6 c 0,0 -495.3,-118.8 -599.5,-176.4 l -187.2,-781.1 40.5,-1659.4 c 0,0 -62.2,-668.2 -173.8,-1086.9"
         style="fill:#3f964f;fill-opacity:1;fill-rule:nonzero;stroke:none"
         id="path418" />
      <path
         d="m 32360.4,12687.7 305.4,-130.7 c -32.6,-371.7 -864.4,-593.8 -864.4,-593.8 l -82.6,358.7 641.6,365.8"
         style="fill:#0e6a41;fill-opacity:1;fill-rule:nonzero;stroke:none"
         id="path420" />
      <path
         d="m 31718.8,12321.9 -244.9,-272.1 c 0,0 -211.7,219 -135.1,354.4 76.7,135.4 357.4,226.7 357.4,226.7 l 22.6,-309"
         style="fill:#0e6a41;fill-opacity:1;fill-rule:nonzero;stroke:none"
         id="path422" />
      <path
         d="m 31641.1,12962.9 c 19.4,-1.9 38.8,-1.9 58.3,-0.1 143.8,13.1 234.6,123.7 238.4,128.4 11.7,14.5 9.5,35.8 -5.1,47.5 -14.5,11.7 -35.7,9.5 -47.4,-5 v 0 c -0.8,-0.9 -77.6,-93.4 -192.7,-103.7 -75.1,-6.7 -151.3,22.7 -226.7,87.3 -14.2,12.2 -35.5,10.5 -47.7,-3.6 -12.1,-14.2 -10.5,-35.6 3.7,-47.7 71.4,-61.2 144.9,-95.7 219.2,-103.1"
         style="fill:#de623c;fill-opacity:1;fill-rule:nonzero;stroke:none"
         id="path424" />
      <path
         d="m 30721.3,1790.5 c -73.2,192.3 -229.8,213.7 -229.8,213.7 -304.3,-405.9 -1051.6,-156.9 -1026.9,-705.9 1136.5,7.1 1608.8,0 1608.8,0 -1.5,126.1 -23.9,425.4 -50.1,542.6 l -59.3,-10.5 -242.7,-39.9"
         style="fill:#2c2858;fill-opacity:1;fill-rule:nonzero;stroke:none"
         id="path426" />
      <path
         d="m 29530.4,1151.7 h 1476.7 c 36.6,0 66.3,29.7 66.3,66.4 v 95.3 H 29464 v -95.3 c 0,-36.7 29.7,-66.4 66.4,-66.4"
         style="fill:#ffffff;fill-opacity:1;fill-rule:nonzero;stroke:none"
         id="path428" />
      <path
         d="m 31313.8,8722.4 58.8,-155 c 53.4,356.6 252.3,1849 140.1,2261 -105.3,387 26.4,795.1 153.9,1189.7 31,96.4 63.3,196.1 91,292.8 l -38.8,11 -38.6,11.1 c -27.3,-95.3 -59.3,-194.3 -90.2,-290.2 -131,-405.8 -266.4,-825.4 -154.8,-1235.6 96.8,-355.6 -51.6,-1580.8 -121.4,-2084.8"
         style="fill:#0e6a41;fill-opacity:1;fill-rule:nonzero;stroke:none"
         id="path430" />
      <path
         d="m 32096.4,1293 c 0,0 91.2,340.4 99.3,384.1 9.1,49.7 35.9,167.2 41.4,227.5 1.3,14.9 158,110.7 277.6,110.5 162,-0.3 309.7,-94.2 312.7,-111.9 19.1,-113.6 19.7,-247.1 50.7,-357.7 23,-82.3 85.6,-274 85.6,-274 l -867.3,21.5"
         style="fill:#2c2858;fill-opacity:1;fill-rule:nonzero;stroke:none"
         id="path432" />
      <path
         d="m 32096.4,1319.4 c 21.3,-67.5 283.6,10.4 475,10.4 160.8,-0.1 368.7,-62.3 392.3,-38.1 40.2,-71 7.1,-218.1 7.1,-218.1 0,0 -167.5,-8.7 -368.3,0 -200.9,8.6 -433.1,-4.2 -520.5,21.8 -55.2,92.3 14.4,224 14.4,224"
         style="fill:#ffffff;fill-opacity:1;fill-rule:nonzero;stroke:none"
         id="path434" />
      <path
         d="m 29600.6,10384.8 c 0,0 775.8,-861.9 1275.3,-977.9 29.8,164.5 10.1,239.8 10.1,239.8 l -671.4,873.3 -614,-135.2"
         style="fill:#de623c;fill-opacity:1;fill-rule:nonzero;stroke:none"
         id="path436" />
      <path
         d="m 30906.9,9338.4 c -2.4,7.1 -6.1,13.3 -10.3,19.1 1.2,0.3 2.4,0.6 3.6,1 70.9,23.5 114.6,83.9 97.7,134.7 -2.8,8.4 -7.1,15.8 -12.6,22.6 37.6,29.1 56.6,70.1 44.5,106.5 -4.8,14.4 -14.1,26.4 -26.3,35.8 39.4,26.6 59.6,71.2 46.1,111.9 -16.9,50.8 -79.7,75.8 -140.2,55.7 -60.5,-20.1 -95.9,-77.7 -79,-128.5 4.3,-12.9 11.6,-24.1 20.9,-33.3 -59.1,-27.3 -93.5,-80.9 -78.2,-126.9 2.7,-8.3 7.1,-15.8 12.6,-22.5 -37.6,-29.2 -56.6,-70.2 -44.5,-106.5 4.4,-13.4 12.7,-24.8 23.7,-33.8 -36.1,-22.1 -55,-61.5 -43.1,-97.3 14.3,-42.9 67.3,-64 118.4,-47 51.1,17 80.9,65.6 66.7,108.5"
         style="fill:#f37a50;fill-opacity:1;fill-rule:nonzero;stroke:none"
         id="path438" />
      <path
         d="m 33226.7,9749.9 -107,-42.8 c 0,0 -123,174 -236,168.4 l 67.9,-166.1 c 0,0 -64,-197.9 -406.4,-175.2 -292.5,-66.6 -87.9,-205.4 -168.9,-261 -119.5,-81.9 215.7,-283.2 498,-196.4 365.3,112.3 602.7,457.3 602.7,457.3 l -250.3,215.8"
         style="fill:#f37a50;fill-opacity:1;fill-rule:nonzero;stroke:none"
         id="path440" />
      <path
         d="m 32947.8,12471 c 0,0 1030.1,-457.1 1605.7,-1653.6 -336.2,-473.2 -698.8,-191.7 -698.8,-191.7 l -959.6,749.5 c 0,0 -244,441.7 -212.6,674.6 46.8,346.1 265.3,421.2 265.3,421.2"
         style="fill:#f37a50;fill-opacity:1;fill-rule:nonzero;stroke:none"
         id="path442" />
      <path
         d="m 33226.7,9749.9 624.9,915.3 c 0,0 147.7,351.1 701.9,152.2 26.8,-298 -189,-722.3 -1177.5,-1376.2 -63.8,166.9 -149.3,308.7 -149.3,308.7"
         style="fill:#f37a50;fill-opacity:1;fill-rule:nonzero;stroke:none"
         id="path444" />
    </g>
  </g>
</svg>
